SplineFontDB: 3.0
FontName: ETBembo-RomanOSF
FullName: ETBembo RomanOSF
FamilyName: ETBembo
Weight: Book
Copyright: ETBembo designed for Eward Tufte / Graphics Press (c) 2002 Dmitry Krasny / Deka Design
Version: 001.001
ItalicAngle: 0
UnderlinePosition: -329
UnderlineWidth: 102
Ascent: 1638
Descent: 410
InvalidEm: 0
sfntRevision: 0x00010041
LayerCount: 2
Layer: 0 1 "Back" 1
Layer: 1 1 "Fore" 0
XUID: [1021 354 -364515948 13356620]
StyleMap: 0x0040
FSType: 4
OS2Version: 2
OS2_WeightWidthSlopeOnly: 0
OS2_UseTypoMetrics: 0
CreationTime: 1394504182
ModificationTime: 1523420065
PfmFamily: 17
TTFWeight: 400
TTFWidth: 5
LineGap: 0
VLineGap: 0
Panose: 2 0 5 3 0 0 0 0 0 0
OS2TypoAscent: 1638
OS2TypoAOffset: 0
OS2TypoDescent: -410
OS2TypoDOffset: 0
OS2TypoLinegap: 0
OS2WinAscent: 1835
OS2WinAOffset: 0
OS2WinDescent: 632
OS2WinDOffset: 0
HheadAscent: 1835
HheadAOffset: 0
HheadDescent: -632
HheadDOffset: 0
OS2SubXSize: 1331
OS2SubYSize: 1434
OS2SubXOff: 0
OS2SubYOff: 287
OS2SupXSize: 1331
OS2SupYSize: 1434
OS2SupXOff: 0
OS2SupYOff: 983
OS2StrikeYSize: 100
OS2StrikeYPos: 528
OS2Vendor: 'PfEd'
OS2CodePages: 00000001.00000000
OS2UnicodeRanges: 800000af.4000004a.00000000.00000000
Lookup: 4 0 1 "'liga' Standard Ligatures in Latin lookup 0" { "'liga' Standard Ligatures in Latin lookup 0-1"  } ['liga' ('DFLT' <'dflt' > 'latn' <'dflt' > ) ]
MarkAttachClasses: 1
DEI: 91125
TtTable: prep
PUSHW_1
 511
SCANCTRL
PUSHB_1
 1
SCANTYPE
SVTCA[y-axis]
MPPEM
PUSHB_1
 8
LT
IF
PUSHB_2
 1
 1
INSTCTRL
EIF
PUSHB_2
 70
 6
CALL
IF
POP
PUSHB_1
 16
EIF
MPPEM
PUSHB_1
 20
GT
IF
POP
PUSHB_1
 128
EIF
SCVTCI
PUSHB_1
 6
CALL
NOT
IF
SVTCA[y-axis]
PUSHB_1
 3
DUP
RCVT
PUSHB_1
 3
CALL
WCVTP
PUSHB_1
 4
DUP
RCVT
PUSHB_3
 3
 105
 2
CALL
PUSHB_1
 3
CALL
WCVTP
PUSHB_1
 5
DUP
RCVT
PUSHB_3
 4
 118
 2
CALL
PUSHB_1
 3
CALL
WCVTP
PUSHB_1
 6
DUP
RCVT
PUSHB_3
 5
 222
 2
CALL
PUSHB_1
 3
CALL
WCVTP
PUSHB_1
 7
DUP
RCVT
PUSHB_3
 6
 134
 2
CALL
PUSHB_1
 3
CALL
WCVTP
PUSHB_1
 8
DUP
RCVT
PUSHB_3
 7
 72
 2
CALL
PUSHB_1
 3
CALL
WCVTP

StartChar: .notdef
Encoding: 65536 -1 0
Width: 748
Flags: W
LayerCount: 2
Fore
SplineSet
68 0 m 1,0,-1
 68 1365 l 1,1,-1
 612 1365 l 1,2,-1
 612 0 l 1,3,-1
 68 0 l 1,0,-1
136 68 m 1,4,-1
 544 68 l 1,5,-1
 544 1297 l 1,6,-1
 136 1297 l 1,7,-1
 136 68 l 1,4,-1
EndSplineSet
Validated: 1
EndChar

StartChar: exclam
Encoding: 33 33 4
Width: 557
GlyphClass: 2
Flags: W
LayerCount: 2
Fore
SplineSet
168 78 m 0,0,1
 168 127 168 127 199.5 156.5 c 128,-1,2
 231 186 231 186 280.5 186 c 128,-1,3
 330 186 330 186 362.5 156.5 c 128,-1,4
 395 127 395 127 395 78 c 0,5,6
 395 31 395 31 362.5 0 c 128,-1,7
 330 -31 330 -31 280.5 -31 c 128,-1,8
 231 -31 231 -31 199.5 0 c 128,-1,9
 168 31 168 31 168 78 c 0,0,1
173 1367 m 128,-1,11
 172 1386 172 1386 188.5 1399.5 c 128,-1,12
 205 1413 205 1413 238 1413 c 2,13,-1
 305 1411 l 2,14,15
 364 1409 364 1409 377.5 1393.5 c 128,-1,16
 391 1378 391 1378 387 1325 c 2,17,-1
 309 375 l 1,18,19
 303 361 303 361 282.5 358.5 c 128,-1,20
 262 356 262 356 252 375 c 1,21,-1
 174 1325 l 2,22,10
 174 1348 174 1348 173 1367 c 128,-1,11
EndSplineSet
Validated: 33
EndChar

StartChar: quotedbl
Encoding: 34 34 5
Width: 870
GlyphClass: 2
Flags: W
LayerCount: 2
Fore
SplineSet
135 1241 m 0,0,1
 135 1380 135 1380 246 1380 c 0,2,3
 299 1380 299 1380 330.5 1345 c 128,-1,4
 362 1310 362 1310 362 1251 c 0,5,6
 362 1220 362 1220 354 1159 c 0,7,8
 350 1128 350 1128 338 1067 c 2,9,-1
 279 752 l 1,10,11
 269 738 269 738 246 739 c 0,12,13
 234 739 234 739 222.5 749.5 c 128,-1,14
 211 760 211 760 209 776 c 2,15,-1
 158 1069 l 2,16,17
 135 1196 135 1196 135 1241 c 0,0,1
510 1229 m 0,18,19
 510 1381 510 1381 627 1380 c 0,20,21
 680 1380 680 1380 711.5 1345 c 128,-1,22
 743 1310 743 1310 743 1251 c 0,23,24
 743 1181 743 1181 721 1065 c 2,25,-1
 662 752 l 2,26,27
 656 736 656 736 639 733 c 0,28,29
 625 729 625 729 608.5 736 c 128,-1,30
 592 743 592 743 592 752 c 2,31,-1
 537 1063 l 2,32,33
 510 1206 510 1206 510 1229 c 0,18,19
EndSplineSet
Validated: 33
EndChar

StartChar: numbersign
Encoding: 35 35 6
Width: 1431
GlyphClass: 2
Flags: W
LayerCount: 2
Fore
SplineSet
94 408 m 0,0,1
 88 439 88 439 94 471 c 1,2,3
 94 504 94 504 139 504 c 2,4,-1
 293 504 l 2,5,6
 318 504 318 504 327 510 c 128,-1,7
 336 516 336 516 340 541 c 2,8,-1
 406 856 l 2,9,10
 410 887 410 887 381 889 c 0,11,12
 365 889 365 889 312.5 889 c 128,-1,13
 260 889 260 889 216 889 c 128,-1,14
 172 889 172 889 145 889 c 0,15,16
 114 889 114 889 103 896 c 128,-1,17
 92 903 92 903 94 922 c 1,18,19
 90 949 90 949 98 997 c 0,20,21
 98 1020 98 1020 141 1022 c 0,22,23
 286 1026 286 1026 410 1022 c 0,24,25
 430 1020 430 1020 436 1025 c 128,-1,26
 442 1030 442 1030 446 1051 c 2,27,-1
 522 1415 l 2,28,29
 526 1431 526 1431 529 1440.5 c 128,-1,30
 532 1450 532 1450 540.5 1453 c 128,-1,31
 549 1456 549 1456 554 1455 c 128,-1,32
 559 1454 559 1454 578.5 1452 c 128,-1,33
 598 1450 598 1450 610 1448 c 0,34,35
 645 1446 645 1446 649 1440 c 128,-1,36
 653 1434 653 1434 647 1403 c 2,37,-1
 578 1055 l 2,38,39
 574 1043 574 1043 581 1032.5 c 128,-1,40
 588 1022 588 1022 602 1022 c 0,41,42
 647 1026 647 1026 788.5 1023 c 128,-1,43
 930 1020 930 1020 973 1022 c 0,44,45
 996 1024 996 1024 1002 1030 c 128,-1,46
 1008 1036 1008 1036 1012 1059 c 0,47,48
 1065 1323 1065 1323 1079 1389 c 0,49,50
 1079 1393 1079 1393 1081 1403 c 128,-1,51
 1083 1413 1083 1413 1084 1416 c 128,-1,52
 1085 1419 1085 1419 1088.5 1426.5 c 128,-1,53
 1092 1434 1092 1434 1094 1436 c 128,-1,54
 1096 1438 1096 1438 1101 1442 c 128,-1,55
 1106 1446 1106 1446 1113 1448 c 128,-1,56
 1120 1450 1120 1450 1128 1450 c 2,57,-1
 1178 1454 l 2,58,59
 1203 1456 1203 1456 1211 1439.5 c 128,-1,60
 1219 1423 1219 1423 1212 1401 c 2,61,-1
 1141 1055 l 2,62,63
 1135 1022 1135 1022 1165 1022 c 0,64,65
 1220 1016 1220 1016 1303 1022 c 0,66,67
 1307 1022 1307 1022 1314 1022 c 128,-1,68
 1321 1022 1321 1022 1324 1022 c 128,-1,69
 1327 1022 1327 1022 1332 1022 c 128,-1,70
 1337 1022 1337 1022 1339 1020 c 128,-1,71
 1341 1018 1341 1018 1344.5 1015 c 128,-1,72
 1348 1012 1348 1012 1348 1005.5 c 128,-1,73
 1348 999 1348 999 1348 991 c 0,74,75
 1350 983 1350 983 1343 915 c 0,76,77
 1343 888 1343 888 1296 889 c 0,78,79
 1280 889 1280 889 1251.5 889 c 128,-1,80
 1223 889 1223 889 1190 889 c 128,-1,81
 1157 889 1157 889 1145 889 c 0,82,83
 1137 889 1137 889 1130.5 888 c 128,-1,84
 1124 887 1124 887 1120 886 c 128,-1,85
 1116 885 1116 885 1112 881 c 128,-1,86
 1108 877 1108 877 1106 874.5 c 128,-1,87
 1104 872 1104 872 1102 864 c 128,-1,88
 1100 856 1100 856 1099 854 c 128,-1,89
 1098 852 1098 852 1096 841.5 c 128,-1,90
 1094 831 1094 831 1094 827 c 2,91,-1
 1034 541 l 2,92,93
 1026 504 1026 504 1065 504 c 0,94,95
 1163 500 1163 500 1290 504 c 0,96,97
 1306 504 1306 504 1319.5 505 c 128,-1,98
 1333 506 1333 506 1340.5 497.5 c 128,-1,99
 1348 489 1348 489 1348 469 c 2,100,-1
 1343 408 l 2,101,102
 1343 398 1343 398 1340 391.5 c 128,-1,103
 1337 385 1337 385 1335 381 c 128,-1,104
 1333 377 1333 377 1325 375 c 128,-1,105
 1317 373 1317 373 1314 373 c 128,-1,106
 1311 373 1311 373 1299.5 372 c 128,-1,107
 1288 371 1288 371 1286 371 c 0,108,109
 1165 367 1165 367 1055 371 c 0,110,111
 1024 371 1024 371 1015 366.5 c 128,-1,112
 1006 362 1006 362 1002.5 346 c 128,-1,113
 999 330 999 330 991 319 c 1,114,-1
 924 -12 l 2,115,116
 920 -39 920 -39 910.5 -49 c 128,-1,117
 901 -59 901 -59 877 -59 c 2,118,-1
 817 -59 l 2,119,120
 780 -59 780 -59 791 -6 c 2,121,-1
 858 317 l 2,122,123
 866 344 866 344 860 356.5 c 128,-1,124
 854 369 854 369 829 371 c 0,125,126
 639 379 639 379 487 371 c 0,127,128
 450 369 450 369 442 363.5 c 128,-1,129
 434 358 434 358 426 324 c 2,130,-1
 358 -10 l 2,131,132
 356 -22 356 -22 351 -31.5 c 128,-1,133
 346 -41 346 -41 343 -46 c 128,-1,134
 340 -51 340 -51 331 -53 c 128,-1,135
 322 -55 322 -55 317.5 -56 c 128,-1,136
 313 -57 313 -57 298 -57 c 128,-1,137
 283 -57 283 -57 276 -57 c 2,138,-1
 244 -59 l 2,139,140
 234 -59 234 -59 228.5 -56 c 128,-1,141
 223 -53 223 -53 222 -45 c 128,-1,142
 221 -37 221 -37 222 -31 c 128,-1,143
 223 -25 223 -25 226 -13.5 c 128,-1,144
 229 -2 229 -2 229 2 c 2,145,-1
 297 330 l 2,146,147
 303 355 303 355 298 363 c 128,-1,148
 293 371 293 371 266 371 c 2,149,-1
 137 371 l 2,150,151
 117 371 117 371 110.5 372 c 128,-1,152
 104 373 104 373 99 381 c 128,-1,153
 94 389 94 389 94 408 c 0,0,1
467 526.5 m 128,-1,155
 469 520 469 520 471 519 c 128,-1,156
 473 518 473 518 478 514 c 128,-1,157
 483 510 483 510 485 506 c 1,158,159
 678 514 678 514 850 506 c 0,160,161
 897 506 897 506 905 543 c 2,162,-1
 967 840 l 2,163,164
 973 873 973 873 968 881 c 128,-1,165
 963 889 963 889 940 889 c 0,166,167
 741 893 741 893 586 889 c 0,168,169
 549 887 549 887 543 877 c 0,170,171
 539 869 539 869 535 850 c 2,172,-1
 469 541 l 2,173,154
 465 533 465 533 467 526.5 c 128,-1,155
EndSplineSet
Validated: 33
EndChar

StartChar: dollar
Encoding: 36 36 7
Width: 980
GlyphClass: 2
Flags: W
LayerCount: 2
Fore
SplineSet
74 213 m 0,0,1
 74 246 74 246 97.5 270.5 c 128,-1,2
 121 295 121 295 154 295 c 0,3,4
 207 295 207 295 242 207 c 0,5,6
 246 195 246 195 253 174.5 c 128,-1,7
 260 154 260 154 263 146.5 c 128,-1,8
 266 139 266 139 273.5 125 c 128,-1,9
 281 111 281 111 292 100.5 c 128,-1,10
 303 90 303 90 319 78 c 1,11,12
 335 78 335 78 336 106 c 2,13,-1
 336 608 l 1,14,15
 330 622 330 622 322 629 c 0,16,17
 201 721 201 721 166 764 c 0,18,19
 109 836 109 836 109 932 c 0,20,21
 109 1024 109 1024 169 1097.5 c 128,-1,22
 229 1171 229 1171 328 1204 c 0,23,24
 336 1204 336 1204 336 1223 c 2,25,-1
 336 1333 l 1,26,27
 340 1343 340 1343 354 1346 c 2,28,-1
 377 1348 l 1,29,30
 393 1344 393 1344 401 1329 c 1,31,-1
 401 1243 l 2,32,33
 403 1241 403 1241 405.5 1236 c 128,-1,34
 408 1231 408 1231 411 1228 c 128,-1,35
 414 1225 414 1225 422 1225 c 0,36,37
 473 1229 473 1229 522 1225 c 0,38,39
 526 1223 526 1223 531.5 1232 c 128,-1,40
 537 1241 537 1241 537 1247 c 2,41,-1
 537 1329 l 2,42,43
 539 1339 539 1339 561 1346 c 1,44,-1
 586 1346 l 2,45,46
 604 1346 604 1346 604 1323 c 2,47,-1
 602 1227 l 2,48,49
 602 1215 602 1215 612 1204 c 1,50,51
 714 1173 714 1173 776 1124 c 128,-1,52
 838 1075 838 1075 838 1020 c 0,53,54
 838 987 838 987 817.5 965.5 c 128,-1,55
 797 944 797 944 766 944 c 0,56,57
 717 944 717 944 672 1012 c 0,58,59
 641 1059 641 1059 618 1083 c 1,60,-1
 602 1075 l 1,61,-1
 602 702 l 1,62,63
 608 665 608 665 614 659 c 0,64,65
 698 606 698 606 748.5 567 c 128,-1,66
 799 528 799 528 844 457.5 c 128,-1,67
 889 387 889 387 889 305 c 0,68,69
 889 190 889 190 814 103 c 128,-1,70
 739 16 739 16 612 -20 c 0,71,72
 602 -20 602 -20 602 -39 c 0,73,74
 602 -143 602 -143 604 -201 c 0,75,76
 604 -219 604 -219 582 -219 c 2,77,-1
 551 -219 l 1,78,79
 531 -215 531 -215 535 -195 c 2,80,-1
 537 -55 l 2,81,82
 537 -35 537 -35 518 -35 c 0,83,84
 475 -41 475 -41 422 -33 c 0,85,86
 418 -33 418 -33 410.5 -38 c 128,-1,87
 403 -43 403 -43 403 -53 c 2,88,-1
 406 -184 l 2,89,90
 406 -188 406 -188 407 -194.5 c 128,-1,91
 408 -201 408 -201 408 -204 c 128,-1,92
 408 -207 408 -207 404.5 -212 c 128,-1,93
 401 -217 401 -217 395 -219 c 2,94,-1
 344 -219 l 1,95,96
 332 -215 332 -215 336 -197 c 1,97,-1
 336 -188 l 1,98,-1
 336 -35 l 2,99,100
 334 -19 334 -19 324 -14 c 0,101,102
 189 29 189 29 135 84 c 0,103,104
 74 150 74 150 74 213 c 0,0,1
244 1004 m 0,105,106
 244 926 244 926 319 860 c 0,107,108
 329 852 329 852 336 874 c 0,109,110
 336 877 336 877 336 879 c 2,111,-1
 336 1120 l 2,112,113
 338 1122 338 1122 336 1129.5 c 128,-1,114
 334 1137 334 1137 328 1135 c 0,115,116
 244 1090 244 1090 244 1004 c 0,105,106
401 51 m 1,117,118
 405 33 405 33 414 33 c 0,119,120
 477 19 477 19 526 29 c 0,121,122
 537 29 537 29 537 49 c 2,123,-1
 537 467 l 2,124,125
 537 477 537 477 529.5 490.5 c 128,-1,126
 522 504 522 504 518 506 c 2,127,-1
 457 545 l 2,128,129
 437 557 437 557 418 569 c 0,130,131
 410 573 410 573 405.5 566 c 128,-1,132
 401 559 401 559 401 541 c 2,133,-1
 401 51 l 1,117,118
401 819 m 2,134,135
 401 799 401 799 410 791 c 0,136,137
 422 781 422 781 520 717 c 1,138,139
 537 725 537 725 537 737 c 2,140,-1
 537 1128 l 2,141,142
 537 1148 537 1148 526 1149 c 0,143,144
 463 1167 463 1167 416 1159 c 0,145,146
 402 1157 402 1157 401 1130 c 2,147,-1
 401 819 l 2,134,135
602 76 m 2,148,149
 602 70 602 70 606 65.5 c 128,-1,150
 610 61 610 61 613 60 c 128,-1,151
 616 59 616 59 618 61 c 0,152,153
 739 127 739 127 739 258 c 0,154,155
 739 358 739 358 641 424 c 2,156,-1
 616 440 l 2,157,158
 610 444 610 444 605 436 c 128,-1,159
 600 428 600 428 602 420 c 2,160,-1
 602 76 l 2,148,149
EndSplineSet
Validated: 33
EndChar

StartChar: percent
Encoding: 37 37 8
Width: 1425
GlyphClass: 2
Flags: W
LayerCount: 2
Fore
SplineSet
90 938 m 0,0,1
 90 1069 90 1069 174 1154 c 128,-1,2
 258 1239 258 1239 379 1239 c 0,3,4
 502 1239 502 1239 588 1156 c 128,-1,5
 674 1073 674 1073 672 944 c 0,6,7
 670 813 670 813 587 728 c 128,-1,8
 504 643 504 643 381 643 c 0,9,10
 262 643 262 643 176 728 c 128,-1,11
 90 813 90 813 90 938 c 0,0,1
207 942 m 0,12,13
 207 831 207 831 254 771 c 128,-1,14
 301 711 301 711 381 711 c 0,15,16
 463 711 463 711 510 772.5 c 128,-1,17
 557 834 557 834 557 944.5 c 128,-1,18
 557 1055 557 1055 509 1114.5 c 128,-1,19
 461 1174 461 1174 375 1174 c 0,20,21
 297 1174 297 1174 252 1112.5 c 128,-1,22
 207 1051 207 1051 207 942 c 0,12,13
258 -98 m 2,23,-1
 1059 1292 l 2,24,25
 1077 1317 1077 1317 1104 1307 c 2,26,-1
 1128 1296 l 2,27,28
 1147 1291 1147 1291 1135 1262 c 1,29,-1
 338 -121 l 2,30,31
 332 -133 332 -133 326 -137 c 0,32,33
 322 -139 322 -139 285 -139 c 0,34,35
 236 -139 236 -139 258 -98 c 2,23,-1
731 209 m 0,36,37
 731 340 731 340 815 425 c 128,-1,38
 899 510 899 510 1020 510 c 0,39,40
 1143 510 1143 510 1229 427 c 128,-1,41
 1315 344 1315 344 1313 215 c 0,42,43
 1311 84 1311 84 1228 -1 c 128,-1,44
 1145 -86 1145 -86 1022 -86 c 0,45,46
 903 -86 903 -86 817 -2 c 128,-1,47
 731 82 731 82 731 209 c 0,36,37
848 213 m 0,48,49
 848 102 848 102 895 42 c 128,-1,50
 942 -18 942 -18 1022 -18 c 0,51,52
 1104 -18 1104 -18 1151 43 c 128,-1,53
 1198 104 1198 104 1198 215 c 128,-1,54
 1198 326 1198 326 1150 385 c 128,-1,55
 1102 444 1102 444 1016 444 c 0,56,57
 938 444 938 444 893 383 c 128,-1,58
 848 322 848 322 848 213 c 0,48,49
EndSplineSet
Validated: 33
EndChar

StartChar: ampersand
Encoding: 38 38 9
Width: 1562
GlyphClass: 2
Flags: W
LayerCount: 2
Fore
SplineSet
86 328 m 0,0,1
 86 490 86 490 207 594 c 0,2,3
 260 641 260 641 414 713 c 1,4,5
 449 736 449 736 438 743 c 0,6,7
 307 868 307 868 307 1006 c 0,8,9
 307 1123 307 1123 390 1194.5 c 128,-1,10
 473 1266 473 1266 608 1266 c 0,11,12
 731 1266 731 1266 812 1204.5 c 128,-1,13
 893 1143 893 1143 893 1047 c 0,14,15
 893 900 893 900 682 782 c 0,16,17
 676 778 676 778 677 770 c 128,-1,18
 678 762 678 762 682 758 c 0,19,20
 750 707 750 707 844 616 c 0,21,22
 932 530 932 530 1001 428 c 0,23,24
 1009 414 1009 414 1028 438 c 0,25,26
 1106 536 1106 536 1161 625 c 0,27,28
 1208 697 1208 697 1236 759 c 128,-1,29
 1264 821 1264 821 1264 842 c 0,30,31
 1264 856 1264 856 1241.5 862 c 128,-1,32
 1219 868 1219 868 1184 871 c 128,-1,33
 1149 874 1149 874 1147 874 c 0,34,35
 1139 878 1139 878 1137 894.5 c 128,-1,36
 1135 911 1135 911 1139 920 c 0,37,38
 1141 932 1141 932 1163 932 c 0,39,40
 1298 926 1298 926 1522 934 c 0,41,42
 1542 938 1542 938 1546 918 c 1,43,-1
 1546 891 l 2,44,45
 1546 875 1546 875 1518 870 c 0,46,47
 1508 868 1508 868 1478 866 c 128,-1,48
 1448 864 1448 864 1432.5 862 c 128,-1,49
 1417 860 1417 860 1395.5 852 c 128,-1,50
 1374 844 1374 844 1360 831 c 0,51,52
 1331 802 1331 802 1280 709 c 0,53,54
 1266 680 1266 680 1245.5 641 c 128,-1,55
 1225 602 1225 602 1223 596 c 0,56,57
 1160 479 1160 479 1059 367 c 0,58,59
 1049 357 1049 357 1057 344 c 0,60,61
 1094 283 1094 283 1128 221 c 0,62,63
 1183 121 1183 121 1215 89 c 128,-1,64
 1247 57 1247 57 1290 57 c 0,65,66
 1343 57 1343 57 1456 135 c 1,67,68
 1470 139 1470 139 1484.5 112.5 c 128,-1,69
 1499 86 1499 86 1485 80 c 1,70,71
 1338 -39 1338 -39 1212 -39 c 0,72,73
 1126 -39 1126 -39 1076 0 c 128,-1,74
 1026 39 1026 39 967 147 c 0,75,76
 957 167 957 167 940 197 c 0,77,78
 928 220 928 220 909 201 c 0,79,80
 669 -39 669 -39 444 -39 c 0,81,82
 292 -39 292 -39 189 66.5 c 128,-1,83
 86 172 86 172 86 328 c 0,0,1
285 352 m 0,84,85
 285 235 285 235 352.5 163.5 c 128,-1,86
 420 92 420 92 530 92 c 0,87,88
 614 92 614 92 713.5 141 c 128,-1,89
 813 190 813 190 883 266 c 0,90,91
 893 276 893 276 883 293 c 0,92,93
 811 404 811 404 709 510 c 0,94,95
 596 623 596 623 516 676 c 0,96,97
 502 686 502 686 475 668 c 0,98,99
 285 525 285 525 285 352 c 0,84,85
467 1059 m 0,100,101
 467 928 467 928 612 813 c 1,102,103
 739 893 739 893 739 1030 c 0,104,105
 739 1108 739 1108 699 1153 c 128,-1,106
 659 1198 659 1198 594 1198 c 0,107,108
 535 1198 535 1198 501 1161 c 128,-1,109
 467 1124 467 1124 467 1059 c 0,100,101
EndSplineSet
Validated: 33
EndChar

StartChar: quotesingle
Encoding: 39 39 10
Width: 378
GlyphClass: 2
Flags: W
LayerCount: 2
Fore
SplineSet
78 1231 m 0,0,1
 78 1381 78 1381 188 1380 c 0,2,3
 241 1380 241 1380 273 1345 c 128,-1,4
 305 1310 305 1310 305 1251 c 0,5,6
 305 1212 305 1212 295 1157 c 0,7,8
 283 1091 283 1091 279 1067 c 2,9,-1
 229 786 l 2,10,11
 225 766 225 766 216 753.5 c 128,-1,12
 207 741 207 741 188 743 c 0,13,14
 165 745 165 745 160.5 749.5 c 128,-1,15
 156 754 156 754 154 770 c 0,16,17
 152 778 152 778 152 782 c 2,18,-1
 102 1067 l 2,19,20
 77 1194 77 1194 78 1231 c 0,0,1
EndSplineSet
Validated: 33
EndChar

StartChar: parenleft
Encoding: 40 40 11
Width: 667
GlyphClass: 2
Flags: W
LayerCount: 2
Fore
SplineSet
162 492 m 0,0,1
 162 748 162 748 267.5 997.5 c 128,-1,2
 373 1247 373 1247 555 1444 c 1,3,4
 586 1467 586 1467 616.5 1437 c 128,-1,5
 647 1407 647 1407 629 1376 c 1,6,7
 486 1216 486 1216 385 954 c 0,8,9
 307 749 307 749 307 492 c 0,10,11
 307 291 307 291 350 133 c 128,-1,12
 393 -25 393 -25 496 -205 c 0,13,14
 557 -309 557 -309 629 -395 c 1,15,16
 645 -428 645 -428 580 -459 c 0,17,18
 560 -469 560 -469 537 -442 c 0,19,20
 365 -252 365 -252 263.5 -4 c 128,-1,21
 162 244 162 244 162 492 c 0,0,1
EndSplineSet
Validated: 33
EndChar

StartChar: parenright
Encoding: 41 41 12
Width: 647
GlyphClass: 2
Flags: W
LayerCount: 2
Fore
SplineSet
25 -391 m 1,0,1
 172 -227 172 -227 270 31 c 0,2,3
 348 236 348 236 348 496 c 0,4,5
 348 695 348 695 305 852.5 c 128,-1,6
 262 1010 262 1010 158 1192 c 0,7,8
 101 1294 101 1294 39 1366 c 0,9,10
 27 1378 27 1378 28 1398.5 c 128,-1,11
 29 1419 29 1419 45 1434 c 0,12,13
 82 1465 82 1465 115 1432 c 0,14,15
 291 1239 291 1239 390 994.5 c 128,-1,16
 489 750 489 750 489 496 c 0,17,18
 489 236 489 236 385 -15 c 128,-1,19
 281 -266 281 -266 98 -459 c 1,20,21
 65 -484 65 -484 32.5 -456 c 128,-1,22
 0 -428 0 -428 25 -391 c 1,0,1
EndSplineSet
Validated: 33
EndChar

StartChar: asterisk
Encoding: 42 42 13
Width: 1093
GlyphClass: 2
Flags: W
LayerCount: 2
Fore
SplineSet
158 727 m 0,0,1
 158 776 158 776 181.5 795.5 c 128,-1,2
 205 815 205 815 262 827 c 0,3,4
 266 829 266 829 308 838.5 c 128,-1,5
 350 848 350 848 375 856 c 0,6,7
 432 872 432 872 494 909 c 0,8,9
 519 923 519 923 498 934 c 0,10,11
 432 969 432 969 375 985 c 0,12,13
 355 991 355 991 334 996 c 128,-1,14
 313 1001 313 1001 291.5 1006.5 c 128,-1,15
 270 1012 270 1012 260 1014 c 0,16,17
 205 1030 205 1030 181.5 1049.5 c 128,-1,18
 158 1069 158 1069 158 1116 c 0,19,20
 158 1139 158 1139 177.5 1165.5 c 128,-1,21
 197 1192 197 1192 244 1192 c 0,22,23
 254 1192 254 1192 262 1190 c 128,-1,24
 270 1188 270 1188 279.5 1182 c 128,-1,25
 289 1176 289 1176 295 1171.5 c 128,-1,26
 301 1167 301 1167 310 1158 c 128,-1,27
 319 1149 319 1149 323.5 1145 c 128,-1,28
 328 1141 328 1141 337 1129.5 c 128,-1,29
 346 1118 346 1118 348 1116 c 0,30,31
 422 1028 422 1028 512 973 c 0,32,33
 535 961 535 961 535 987 c 0,34,35
 531 1083 531 1083 506 1167 c 0,36,37
 477 1263 477 1263 477 1292 c 0,38,39
 477 1327 477 1327 498.5 1353.5 c 128,-1,40
 520 1380 520 1380 557 1380 c 128,-1,41
 594 1380 594 1380 615.5 1353.5 c 128,-1,42
 637 1327 637 1327 637 1292 c 0,43,44
 637 1255 637 1255 610 1167 c 0,45,46
 583 1075 583 1075 582 987 c 0,47,48
 582 962 582 962 608 975 c 0,49,50
 700 1034 700 1034 766 1116 c 0,51,52
 832 1192 832 1192 872 1192 c 0,53,54
 919 1192 919 1192 937.5 1166.5 c 128,-1,55
 956 1141 956 1141 956 1116 c 0,56,57
 956 1048 956 1048 877 1020 c 0,58,59
 852 1012 852 1012 805 1001.5 c 128,-1,60
 758 991 758 991 741 985 c 0,61,62
 694 971 694 971 621 936 c 0,63,64
 609 930 609 930 606.5 927 c 128,-1,65
 604 924 604 924 606 921 c 128,-1,66
 608 918 608 918 623 909 c 0,67,68
 699 868 699 868 739 856 c 0,69,70
 755 850 755 850 804.5 840.5 c 128,-1,71
 854 831 854 831 879 823 c 0,72,73
 956 797 956 797 956 727 c 0,74,75
 956 700 956 700 934.5 676.5 c 128,-1,76
 913 653 913 653 881 653 c 0,77,78
 842 653 842 653 817.5 672.5 c 128,-1,79
 793 692 793 692 764 731 c 0,80,81
 692 821 692 821 604 874 c 0,82,83
 584 884 584 884 584 866 c 0,84,85
 586 743 586 743 612 664 c 0,86,87
 626 629 626 629 631 610 c 0,88,89
 639 592 639 592 639 553 c 128,-1,90
 639 514 639 514 616.5 487.5 c 128,-1,91
 594 461 594 461 557 461 c 128,-1,92
 520 461 520 461 497.5 487.5 c 128,-1,93
 475 514 475 514 475 553 c 0,94,95
 475 582 475 582 483 610 c 0,96,97
 495 643 495 643 504 664 c 0,98,99
 531 744 531 744 532 862 c 0,100,101
 532 887 532 887 512 874 c 0,102,103
 428 825 428 825 352 731 c 0,104,105
 329 702 329 702 319 691 c 128,-1,106
 309 680 309 680 285.5 666.5 c 128,-1,107
 262 653 262 653 233 653 c 0,108,109
 200 653 200 653 179 676.5 c 128,-1,110
 158 700 158 700 158 727 c 0,0,1
EndSplineSet
Validated: 1
EndChar

StartChar: plus
Encoding: 43 43 14
Width: 1429
GlyphClass: 2
Flags: W
LayerCount: 2
Fore
SplineSet
145 662 m 2,0,-1
 145 717 l 2,1,2
 145 721 145 721 145 730 c 128,-1,3
 145 739 145 739 145 741 c 128,-1,4
 145 743 145 743 146 748.5 c 128,-1,5
 147 754 147 754 149.5 755 c 128,-1,6
 152 756 152 756 156 758 c 128,-1,7
 160 760 160 760 166 760 c 128,-1,8
 172 760 172 760 180 760 c 2,9,-1
 618 760 l 2,10,11
 638 760 638 760 643.5 765 c 128,-1,12
 649 770 649 770 649 788 c 2,13,-1
 649 1196 l 2,14,15
 649 1202 649 1202 648 1210.5 c 128,-1,16
 647 1219 647 1219 647 1223 c 0,17,18
 647 1270 647 1270 676 1270 c 2,19,-1
 756 1270 l 2,20,21
 774 1270 774 1270 779 1262.5 c 128,-1,22
 784 1255 784 1255 784 1225 c 2,23,-1
 784 780 l 1,24,25
 780 760 780 760 805 760 c 2,26,-1
 1247 760 l 2,27,28
 1274 760 1274 760 1282 752.5 c 128,-1,29
 1290 745 1290 745 1290 725 c 2,30,-1
 1290 662 l 2,31,32
 1290 635 1290 635 1281 630 c 128,-1,33
 1272 625 1272 625 1241 625 c 2,34,-1
 815 625 l 2,35,36
 811 625 811 625 803 625 c 128,-1,37
 795 625 795 625 794 625 c 128,-1,38
 793 625 793 625 788.5 623 c 128,-1,39
 784 621 784 621 784 615.5 c 128,-1,40
 784 610 784 610 784 602 c 2,41,-1
 784 160 l 2,42,43
 784 129 784 129 778 124 c 128,-1,44
 772 119 772 119 741 119 c 1,45,46
 712 111 712 111 680 119 c 0,47,48
 672 119 672 119 667 120 c 128,-1,49
 662 121 662 121 657.5 123 c 128,-1,50
 653 125 653 125 652 126 c 128,-1,51
 651 127 651 127 650 132 c 128,-1,52
 649 137 649 137 649 139 c 128,-1,53
 649 141 649 141 649 148.5 c 128,-1,54
 649 156 649 156 649 160 c 2,55,-1
 649 598 l 2,56,57
 649 625 649 625 621 625 c 2,58,-1
 188 625 l 2,59,60
 161 625 161 625 153 631 c 128,-1,61
 145 637 145 637 145 662 c 2,0,-1
EndSplineSet
Validated: 1
EndChar

StartChar: comma
Encoding: 44 44 15
Width: 514
GlyphClass: 2
Flags: W
LayerCount: 2
Fore
SplineSet
143 63 m 0,0,1
 143 108 143 108 176 138 c 128,-1,2
 209 168 209 168 254 168 c 0,3,4
 315 168 315 168 352 124 c 128,-1,5
 389 80 389 80 389 8 c 0,6,7
 389 -80 389 -80 337 -160 c 128,-1,8
 285 -240 285 -240 201 -279 c 0,9,10
 172 -293 172 -293 160 -281 c 0,11,12
 158 -279 158 -279 155 -273.5 c 128,-1,13
 152 -268 152 -268 150 -266 c 0,14,15
 140 -235 140 -235 156 -231 c 1,16,17
 293 -149 293 -149 293 -53 c 0,18,19
 293 -33 293 -33 285 -31 c 0,20,21
 279 -27 279 -27 258 -33 c 0,22,23
 211 -43 211 -43 177 -14.5 c 128,-1,24
 143 14 143 14 143 63 c 0,0,1
EndSplineSet
Validated: 33
EndChar

StartChar: hyphen
Encoding: 45 45 16
Width: 890
GlyphClass: 2
Flags: W
LayerCount: 2
Fore
SplineSet
90 432 m 1,0,-1
 90 514 l 2,1,2
 90 530 90 530 103.5 539.5 c 128,-1,3
 117 549 117 549 129 549 c 0,4,5
 197 547 197 547 432.5 550 c 128,-1,6
 668 553 668 553 782 549 c 0,7,8
 792 549 792 549 801.5 537.5 c 128,-1,9
 811 526 811 526 811 516 c 2,10,-1
 807 436 l 1,11,12
 801 411 801 411 772 408 c 0,13,14
 614 412 614 412 414.5 409 c 128,-1,15
 215 406 215 406 111 408 c 0,16,17
 97 408 97 408 90 432 c 1,0,-1
EndSplineSet
Validated: 33
EndChar

StartChar: period
Encoding: 46 46 17
Width: 417
GlyphClass: 2
Flags: W
LayerCount: 2
Fore
SplineSet
133 80 m 0,0,1
 133 133 133 133 168 166 c 128,-1,2
 203 199 203 199 258 199 c 0,3,4
 311 199 311 199 344 167 c 128,-1,5
 377 135 377 135 377 82 c 0,6,7
 377 31 377 31 344 -3 c 128,-1,8
 311 -37 311 -37 258 -37 c 128,-1,9
 205 -37 205 -37 169 -4 c 128,-1,10
 133 29 133 29 133 80 c 0,0,1
EndSplineSet
Validated: 1
EndChar

StartChar: slash
Encoding: 47 47 18
Width: 980
GlyphClass: 2
Flags: W
LayerCount: 2
Fore
SplineSet
76 -14.5 m 128,-1,1
 76 -4 76 -4 82 10 c 0,2,3
 201 235 201 235 430 680.5 c 128,-1,4
 659 1126 659 1126 776 1354 c 0,5,6
 796 1387 796 1387 811 1386 c 2,7,-1
 913 1382 l 2,8,9
 921 1382 921 1382 927.5 1375 c 128,-1,10
 934 1368 934 1368 933 1354.5 c 128,-1,11
 932 1341 932 1341 922 1327 c 2,12,-1
 231 -4 l 2,13,14
 211 -45 211 -45 186 -43 c 0,15,16
 182 -43 182 -43 171 -43 c 128,-1,17
 160 -43 160 -43 149.5 -43 c 128,-1,18
 139 -43 139 -43 125 -42 c 128,-1,19
 111 -41 111 -41 101.5 -38 c 128,-1,20
 92 -35 92 -35 84 -30 c 128,-1,0
 76 -25 76 -25 76 -14.5 c 128,-1,1
EndSplineSet
Validated: 1
EndChar

StartChar: zero
Encoding: 48 48 19
Width: 1001
GlyphClass: 2
Flags: W
LayerCount: 2
Fore
SplineSet
82 440 m 0,0,1
 82 655 82 655 203 793.5 c 128,-1,2
 324 932 324 932 512 932 c 0,3,4
 702 932 702 932 823 795.5 c 128,-1,5
 944 659 944 659 944 446 c 0,6,7
 944 237 944 237 823 104 c 128,-1,8
 702 -29 702 -29 510 -29 c 0,9,10
 324 -29 324 -29 203 104.5 c 128,-1,11
 82 238 82 238 82 440 c 0,0,1
227 452.5 m 128,-1,13
 227 274 227 274 303 173 c 128,-1,14
 379 72 379 72 510 72 c 0,15,16
 645 72 645 72 723 172.5 c 128,-1,17
 801 273 801 273 801 451 c 0,18,19
 801 635 801 635 724 735.5 c 128,-1,20
 647 836 647 836 508 836 c 0,21,22
 379 836 379 836 303 733.5 c 128,-1,12
 227 631 227 631 227 452.5 c 128,-1,13
EndSplineSet
Validated: 1
EndChar

StartChar: one
Encoding: 49 49 20
Width: 790
GlyphClass: 2
Flags: W
LayerCount: 2
Fore
SplineSet
111 641 m 0,0,1
 129 653 129 653 156.5 670.5 c 128,-1,2
 184 688 184 688 199 698 c 0,3,4
 342 798 342 798 420 905 c 0,5,6
 430 913 430 913 467 913 c 128,-1,7
 504 913 504 913 508 897 c 1,8,-1
 508 176 l 2,9,10
 508 106 508 106 524 92 c 0,11,12
 534 86 534 86 559 82 c 0,13,14
 565 80 565 80 616 76 c 0,15,16
 624 76 624 76 649 76 c 128,-1,17
 674 76 674 76 682 74 c 0,18,19
 700 70 700 70 700 31 c 128,-1,20
 700 -8 700 -8 680 -8 c 0,21,22
 315 -4 315 -4 176 -8 c 0,23,24
 164 -10 164 -10 159 7.5 c 128,-1,25
 154 25 154 25 157 45.5 c 128,-1,26
 160 66 160 66 170 72 c 0,27,28
 188 80 188 80 207 76 c 1,29,30
 258 76 258 76 266 78 c 0,31,32
 295 78 295 78 311 86 c 0,33,34
 354 106 354 106 354 170 c 2,35,-1
 354 645 l 2,36,37
 352 649 352 649 352 661.5 c 128,-1,38
 352 674 352 674 350 680 c 0,39,40
 348 698 348 698 338 692 c 0,41,42
 307 669 307 669 256 643 c 0,43,44
 233 631 233 631 195.5 613.5 c 128,-1,45
 158 596 158 596 139 588 c 0,46,47
 125 580 125 580 112.5 606.5 c 128,-1,48
 100 633 100 633 111 641 c 0,0,1
EndSplineSet
Validated: 33
EndChar

StartChar: two
Encoding: 50 50 21
Width: 1001
GlyphClass: 2
Flags: W
LayerCount: 2
Fore
SplineSet
66 19.5 m 128,-1,1
 66 41 66 41 74 49 c 0,2,3
 303 207 303 207 449 336 c 0,4,5
 623 490 623 490 623 612 c 0,6,7
 623 700 623 700 566.5 755.5 c 128,-1,8
 510 811 510 811 422 811 c 0,9,10
 307 811 307 811 184 698 c 0,11,12
 176 690 176 690 152.5 701.5 c 128,-1,13
 129 713 129 713 139 735 c 1,14,15
 233 841 233 841 316 886.5 c 128,-1,16
 399 932 399 932 502 932 c 0,17,18
 619 932 619 932 701.5 862.5 c 128,-1,19
 784 793 784 793 784 692 c 0,20,21
 784 616 784 616 742 539.5 c 128,-1,22
 700 463 700 463 619.5 388 c 128,-1,23
 539 313 539 313 483.5 269 c 128,-1,24
 428 225 428 225 340 164 c 0,25,26
 334 158 334 158 340 150 c 0,27,28
 344 142 344 142 358 141 c 0,29,30
 639 141 639 141 694 143 c 0,31,32
 735 145 735 145 750.5 153.5 c 128,-1,33
 766 162 766 162 782 190 c 0,34,35
 813 245 813 245 842 319 c 1,36,37
 854 331 854 331 877 328 c 0,38,39
 887 326 887 326 894 320.5 c 128,-1,40
 901 315 901 315 899 307 c 2,41,-1
 829 20 l 2,42,43
 823 -9 823 -9 774 -8 c 2,44,-1
 756 -8 l 1,45,-1
 78 -8 l 1,46,0
 66 -2 66 -2 66 19.5 c 128,-1,1
EndSplineSet
Validated: 1
EndChar

StartChar: three
Encoding: 51 51 22
Width: 892
GlyphClass: 2
Flags: W
LayerCount: 2
Fore
SplineSet
123 -252 m 0,0,1
 123 -205 123 -205 164 -185.5 c 128,-1,2
 205 -166 205 -166 242 -188 c 0,3,4
 248 -192 248 -192 259 -201.5 c 128,-1,5
 270 -211 270 -211 276 -215 c 0,6,7
 358 -276 358 -276 412 -276 c 0,8,9
 469 -276 469 -276 509 -208.5 c 128,-1,10
 549 -141 549 -141 549 -33 c 0,11,12
 549 145 549 145 465 217 c 0,13,14
 399 276 399 276 289 246 c 0,15,16
 269 240 269 240 262.5 266.5 c 128,-1,17
 256 293 256 293 268 299 c 0,18,19
 524 457 524 457 524 639 c 0,20,21
 524 715 524 715 487.5 759 c 128,-1,22
 451 803 451 803 387 803 c 0,23,24
 291 803 291 803 193 690 c 0,25,26
 185 684 185 684 174.5 686 c 128,-1,27
 164 688 164 688 155.5 700.5 c 128,-1,28
 147 713 147 713 152 727 c 0,29,30
 203 827 203 827 279.5 882.5 c 128,-1,31
 356 938 356 938 446 938 c 0,32,33
 546 938 546 938 612 866.5 c 128,-1,34
 678 795 678 795 678 688 c 0,35,36
 678 532 678 532 514 410 c 0,37,38
 506 406 506 406 503 398.5 c 128,-1,39
 500 391 500 391 510 387 c 0,40,41
 555 381 555 381 594 350 c 0,42,43
 705 256 705 256 705 76 c 0,44,45
 705 -112 705 -112 593 -238.5 c 128,-1,46
 481 -365 481 -365 313 -365 c 0,47,48
 123 -365 123 -365 123 -252 c 0,0,1
EndSplineSet
Validated: 33
EndChar

StartChar: four
Encoding: 52 52 23
Width: 1001
GlyphClass: 2
Flags: W
LayerCount: 2
Fore
SplineSet
54.5 21.5 m 128,-1,1
 51 41 51 41 59 55 c 2,2,-1
 631 920 l 2,3,4
 647 940 647 940 674 936 c 1,5,6
 694 928 694 928 694 915 c 2,7,-1
 694 156 l 1,8,9
 698 131 698 131 723 121 c 1,10,-1
 891 125 l 2,11,12
 895 125 895 125 907.5 124 c 128,-1,13
 920 123 920 123 926 119 c 128,-1,14
 932 115 932 115 934 103 c 128,-1,15
 936 91 936 91 936 25 c 0,16,17
 936 15 936 15 921.5 5.5 c 128,-1,18
 907 -4 907 -4 901 -2 c 2,19,-1
 723 0 l 2,20,21
 717 0 717 0 705.5 -9 c 128,-1,22
 694 -18 694 -18 694 -27 c 0,23,24
 700 -160 700 -160 694 -326 c 0,25,26
 694 -365 694 -365 662 -365 c 2,27,-1
 557 -365 l 2,28,29
 547 -367 547 -367 537.5 -353.5 c 128,-1,30
 528 -340 528 -340 528 -330 c 0,31,32
 520 -142 520 -142 526 -39 c 1,33,34
 520 2 520 2 506 0 c 0,35,36
 330 -10 330 -10 66 0 c 0,37,0
 58 2 58 2 54.5 21.5 c 128,-1,1
208 131.5 m 128,-1,39
 211 121 211 121 221 121 c 0,40,41
 346 117 346 117 489 121 c 0,42,43
 493 121 493 121 500 121 c 0,44,45
 514 123 514 123 524 135 c 0,46,47
 526 139 526 139 528 141 c 0,48,49
 522 465 522 465 528 590 c 1,50,51
 534 606 534 606 522 618 c 0,52,53
 518 622 518 622 514 616 c 2,54,-1
 211 152 l 2,55,38
 205 142 205 142 208 131.5 c 128,-1,39
EndSplineSet
Validated: 33
EndChar

StartChar: five
Encoding: 53 53 24
Width: 919
GlyphClass: 2
Flags: W
LayerCount: 2
Fore
SplineSet
111 -279 m 0,0,1
 111 -246 111 -246 132.5 -222.5 c 128,-1,2
 154 -199 154 -199 184 -199 c 0,3,4
 207 -199 207 -199 238 -211 c 0,5,6
 355 -252 355 -252 389 -252 c 0,7,8
 475 -252 475 -252 539.5 -172 c 128,-1,9
 604 -92 604 -92 604 18 c 0,10,11
 604 96 604 96 566 172 c 128,-1,12
 528 248 528 248 458.5 312.5 c 128,-1,13
 389 377 389 377 329.5 421 c 128,-1,14
 270 465 270 465 188 516 c 0,15,16
 170 528 170 528 188 557 c 0,17,18
 338 764 338 764 479 918 c 0,19,20
 491 932 491 932 508 930 c 2,21,-1
 741 903 l 2,22,23
 780 899 780 899 776 868 c 0,24,25
 772 850 772 850 746.5 813 c 128,-1,26
 721 776 721 776 709 764 c 0,27,28
 695 750 695 750 674 750 c 2,29,-1
 481 774 l 2,30,31
 456 776 456 776 444 760 c 2,32,-1
 365 662 l 2,33,34
 342 633 342 633 346 625 c 256,35,36
 350 617 350 617 367 606 c 0,37,38
 465 545 465 545 559 457 c 0,39,40
 745 281 745 281 745 84 c 0,41,42
 745 -129 745 -129 539 -262 c 0,43,44
 383 -362 383 -362 219 -362 c 0,45,46
 170 -362 170 -362 140.5 -339.5 c 128,-1,47
 111 -317 111 -317 111 -279 c 0,0,1
EndSplineSet
Validated: 1
EndChar

StartChar: six
Encoding: 54 54 25
Width: 1028
GlyphClass: 2
Flags: W
LayerCount: 2
Fore
SplineSet
98 451 m 0,0,1
 98 605 98 605 164.5 741 c 128,-1,2
 231 877 231 877 344 975 c 128,-1,3
 457 1073 457 1073 584 1142.5 c 128,-1,4
 711 1212 711 1212 854 1257 c 0,5,6
 891 1267 891 1267 908.5 1252 c 128,-1,7
 926 1237 926 1237 905 1208 c 1,8,9
 729 1130 729 1130 612.5 1043 c 128,-1,10
 496 956 496 956 397 817 c 0,11,12
 391 807 391 807 397 801 c 128,-1,13
 403 795 403 795 412 797 c 0,14,15
 453 807 453 807 467 807 c 0,16,17
 483 809 483 809 522 809 c 0,18,19
 700 809 700 809 813 696 c 128,-1,20
 926 583 926 583 926 403 c 0,21,22
 926 219 926 219 810 95 c 128,-1,23
 694 -29 694 -29 522 -29 c 0,24,25
 340 -29 340 -29 219 107.5 c 128,-1,26
 98 244 98 244 98 451 c 0,0,1
276 403 m 0,27,28
 276 229 276 229 341 130 c 128,-1,29
 406 31 406 31 516 31 c 0,30,31
 604 31 604 31 664 90 c 0,32,33
 750 176 750 176 750 371 c 0,34,35
 750 555 750 555 683 654.5 c 128,-1,36
 616 754 616 754 496 754 c 0,37,38
 435 754 435 754 344 713 c 1,39,40
 303 613 303 613 289.5 551 c 128,-1,41
 276 489 276 489 276 403 c 0,27,28
EndSplineSet
Validated: 1
EndChar

StartChar: seven
Encoding: 55 55 26
Width: 1001
GlyphClass: 2
Flags: W
LayerCount: 2
Fore
SplineSet
86 561 m 2,0,-1
 127 870 l 1,1,2
 141 905 141 905 190 905 c 0,3,4
 522 917 522 917 852 905 c 0,5,6
 889 905 889 905 897 889 c 1,7,-1
 897 856 l 1,8,9
 604 94 604 94 393 -338 c 0,10,11
 383 -365 383 -365 362 -362 c 2,12,-1
 299 -360 l 2,13,14
 285 -358 285 -358 275.5 -347 c 128,-1,15
 266 -336 266 -336 272 -322 c 2,16,-1
 743 737 l 2,17,18
 747 747 747 747 732 751.5 c 128,-1,19
 717 756 717 756 702 756 c 0,20,21
 612 750 612 750 279 756 c 0,22,23
 236 758 236 758 211 737.5 c 128,-1,24
 186 717 186 717 170 649 c 2,25,-1
 143 547 l 2,26,27
 139 541 139 541 125 541 c 128,-1,28
 111 541 111 541 98.5 546 c 128,-1,29
 86 551 86 551 86 561 c 2,0,-1
EndSplineSet
Validated: 33
EndChar

StartChar: eight
Encoding: 56 56 27
Width: 950
GlyphClass: 2
Flags: W
LayerCount: 2
Fore
SplineSet
145 285 m 0,0,1
 145 391 145 391 199.5 461.5 c 128,-1,2
 254 532 254 532 358 598 c 0,3,4
 385 612 385 612 367 629 c 0,5,6
 181 770 181 770 180 958 c 0,7,8
 180 1089 180 1089 270 1173 c 128,-1,9
 360 1257 360 1257 502 1257 c 0,10,11
 637 1257 637 1257 725 1177.5 c 128,-1,12
 813 1098 813 1098 813 973 c 0,13,14
 813 885 813 885 770 819.5 c 128,-1,15
 727 754 727 754 623 686 c 0,16,17
 607 674 607 674 621 664 c 0,18,19
 746 562 746 562 795 481.5 c 128,-1,20
 844 401 844 401 844 299 c 0,21,22
 844 158 844 158 742.5 64.5 c 128,-1,23
 641 -29 641 -29 489 -29 c 0,24,25
 342 -29 342 -29 243.5 59 c 128,-1,26
 145 147 145 147 145 285 c 0,0,1
281 289 m 0,27,28
 281 170 281 170 342 101.5 c 128,-1,29
 403 33 403 33 504 33 c 0,30,31
 590 33 590 33 647.5 87 c 128,-1,32
 705 141 705 141 705 223 c 0,33,34
 705 317 705 317 644.5 396 c 128,-1,35
 584 475 584 475 434 578 c 1,36,37
 348 525 348 525 314.5 461 c 128,-1,38
 281 397 281 397 281 289 c 0,27,28
307 1030 m 0,39,40
 307 883 307 883 555 711 c 1,41,42
 614 744 614 744 639 780 c 0,43,44
 686 858 686 858 686 956 c 0,45,46
 686 1069 686 1069 633 1135.5 c 128,-1,47
 580 1202 580 1202 492 1202 c 0,48,49
 410 1202 410 1202 358.5 1154 c 128,-1,50
 307 1106 307 1106 307 1030 c 0,39,40
EndSplineSet
Validated: 1
EndChar

StartChar: nine
Encoding: 57 57 28
Width: 1044
GlyphClass: 2
Flags: W
LayerCount: 2
Fore
SplineSet
98 502 m 0,0,1
 98 686 98 686 214 810 c 128,-1,2
 330 934 330 934 504 934 c 0,3,4
 690 934 690 934 808 795.5 c 128,-1,5
 926 657 926 657 926 446 c 0,6,7
 926 274 926 274 864.5 135 c 128,-1,8
 803 -4 803 -4 692.5 -99.5 c 128,-1,9
 582 -195 582 -195 449.5 -258.5 c 128,-1,10
 317 -322 317 -322 156 -360 c 0,11,12
 136 -364 136 -364 122.5 -351 c 128,-1,13
 109 -338 109 -338 109 -319.5 c 128,-1,14
 109 -301 109 -301 125 -295 c 0,15,16
 518 -154 518 -154 651 78 c 1,17,18
 671 125 671 125 633 115 c 0,19,20
 551 95 551 95 496 94 c 0,21,22
 328 94 328 94 213 212 c 128,-1,23
 98 330 98 330 98 502 c 0,0,1
276 532 m 0,24,25
 276 350 276 350 343 250 c 128,-1,26
 410 150 410 150 528 150 c 0,27,28
 600 150 600 150 676 186 c 0,29,30
 705 200 705 200 717 240 c 0,31,32
 750 367 750 367 750 506 c 0,33,34
 750 680 750 680 685.5 780.5 c 128,-1,35
 621 881 621 881 512 881 c 0,36,37
 432 881 432 881 373 831 c 0,38,39
 277 755 277 755 276 532 c 0,24,25
EndSplineSet
Validated: 1
EndChar

StartChar: colon
Encoding: 58 58 29
Width: 526
GlyphClass: 2
Flags: W
LayerCount: 2
Fore
SplineSet
156 84 m 128,-1,1
 156 129 156 129 186.5 157.5 c 128,-1,2
 217 186 217 186 264 186 c 128,-1,3
 311 186 311 186 342 157.5 c 128,-1,4
 373 129 373 129 373 84 c 128,-1,5
 373 39 373 39 342 9.5 c 128,-1,6
 311 -20 311 -20 264 -20 c 128,-1,7
 217 -20 217 -20 186.5 9.5 c 128,-1,0
 156 39 156 39 156 84 c 128,-1,1
156 717 m 0,8,9
 156 764 156 764 186.5 792.5 c 128,-1,10
 217 821 217 821 264 821 c 128,-1,11
 311 821 311 821 342 792.5 c 128,-1,12
 373 764 373 764 373 717 c 0,13,14
 373 672 373 672 342 643 c 128,-1,15
 311 614 311 614 264 614 c 128,-1,16
 217 614 217 614 186.5 643 c 128,-1,17
 156 672 156 672 156 717 c 0,8,9
EndSplineSet
Validated: 1
EndChar

StartChar: semicolon
Encoding: 59 59 30
Width: 471
GlyphClass: 2
Flags: W
LayerCount: 2
Fore
SplineSet
129 74 m 0,0,1
 129 119 129 119 163 149.5 c 128,-1,2
 197 180 197 180 244 180 c 0,3,4
 307 180 307 180 349 133 c 128,-1,5
 391 86 391 86 391 12 c 0,6,7
 391 -84 391 -84 326.5 -170 c 128,-1,8
 262 -256 262 -256 162 -295 c 0,9,10
 146 -301 146 -301 134.5 -274.5 c 128,-1,11
 123 -248 123 -248 141 -240 c 0,12,13
 286 -152 286 -152 287 -49 c 0,14,15
 287 -20 287 -20 272 -20 c 0,16,17
 264 -20 264 -20 247.5 -23.5 c 128,-1,18
 231 -27 231 -27 223 -27 c 0,19,20
 184 -27 184 -27 156.5 3 c 128,-1,21
 129 33 129 33 129 74 c 0,0,1
131 713 m 128,-1,23
 131 758 131 758 162 787.5 c 128,-1,24
 193 817 193 817 240 817 c 128,-1,25
 287 817 287 817 318.5 788.5 c 128,-1,26
 350 760 350 760 350 713 c 0,27,28
 350 668 350 668 318.5 639 c 128,-1,29
 287 610 287 610 240 610 c 128,-1,30
 193 610 193 610 162 639 c 128,-1,22
 131 668 131 668 131 713 c 128,-1,23
EndSplineSet
Validated: 1
EndChar

StartChar: less
Encoding: 60 60 31
Width: 1429
GlyphClass: 2
Flags: W
LayerCount: 2
Fore
SplineSet
143 672 m 1,0,1
 137 690 137 690 143 723 c 1,2,3
 143 752 143 752 168 762 c 0,4,5
 875 1075 875 1075 1237 1217 c 0,6,7
 1272 1231 1272 1231 1281 1212.5 c 128,-1,8
 1290 1194 1290 1194 1290 1153 c 2,9,-1
 1290 1120 l 2,10,11
 1290 1093 1290 1093 1245 1073 c 0,12,13
 540 774 540 774 379 711 c 0,14,15
 338 695 338 695 383 676 c 0,16,17
 801 492 801 492 1262 309 c 0,18,19
 1291 297 1291 297 1290 262 c 2,20,-1
 1290 217 l 2,21,22
 1290 151 1290 151 1227 174 c 0,23,24
 883 301 883 301 166 629 c 0,25,26
 143 639 143 639 143 672 c 1,0,1
EndSplineSet
Validated: 33
EndChar

StartChar: equal
Encoding: 61 61 32
Width: 1429
GlyphClass: 2
Flags: W
LayerCount: 2
Fore
SplineSet
139 428 m 2,0,-1
 139 477 l 2,1,2
 139 526 139 526 197 526 c 0,3,4
 371 522 371 522 1253 522 c 0,5,6
 1292 522 1292 522 1292 485 c 2,7,-1
 1290 430 l 2,8,9
 1288 401 1288 401 1280 393 c 128,-1,10
 1272 385 1272 385 1237 385 c 2,11,-1
 195 385 l 2,12,13
 164 385 164 385 151.5 393 c 128,-1,14
 139 401 139 401 139 428 c 2,0,-1
145 983 m 1,15,16
 151 1008 151 1008 188 1008 c 0,17,18
 221 1008 221 1008 654 1009 c 128,-1,19
 1087 1010 1087 1010 1239 1014 c 0,20,21
 1270 1014 1270 1014 1280 995.5 c 128,-1,22
 1290 977 1290 977 1290 948 c 0,23,24
 1290 944 1290 944 1291 930.5 c 128,-1,25
 1292 917 1292 917 1292 909 c 0,26,27
 1292 895 1292 895 1291 888 c 128,-1,28
 1290 881 1290 881 1282 876.5 c 128,-1,29
 1274 872 1274 872 1268 872 c 128,-1,30
 1262 872 1262 872 1239 872 c 2,31,-1
 205 872 l 1,32,33
 158 866 158 866 147 911 c 1,34,-1
 145 983 l 1,15,16
EndSplineSet
Validated: 33
EndChar

StartChar: greater
Encoding: 62 62 33
Width: 1429
GlyphClass: 2
Flags: W
LayerCount: 2
Fore
SplineSet
141 262 m 0,0,1
 141 297 141 297 170 309 c 0,2,3
 723 530 723 530 1036 670 c 0,4,5
 1054 678 1054 678 1062.5 689 c 128,-1,6
 1071 700 1071 700 1053 711 c 0,7,8
 729 850 729 850 186 1073 c 0,9,10
 149 1087 149 1087 145 1098 c 0,11,12
 143 1106 143 1106 143 1124 c 2,13,-1
 143 1161 l 2,14,15
 143 1202 143 1202 156.5 1214.5 c 128,-1,16
 170 1227 170 1227 195 1217 c 0,17,18
 676 1018 676 1018 1253 766 c 0,19,20
 1288 750 1288 750 1288 723 c 1,21,22
 1294 690 1294 690 1290 672 c 0,23,24
 1290 654 1290 654 1283 644.5 c 128,-1,25
 1276 635 1276 635 1247 621 c 0,26,27
 860 447 860 447 205 174 c 0,28,29
 144 147 144 147 143 217 c 0,30,31
 143 225 143 225 142 240.5 c 128,-1,32
 141 256 141 256 141 262 c 0,0,1
EndSplineSet
Validated: 33
EndChar

StartChar: question
Encoding: 63 63 34
Width: 741
GlyphClass: 2
Flags: W
LayerCount: 2
Fore
SplineSet
86 1260 m 0,0,1
 86 1373 86 1373 283 1372 c 0,2,3
 451 1372 451 1372 556.5 1261.5 c 128,-1,4
 662 1151 662 1151 662 977 c 0,5,6
 662 774 662 774 514 674 c 0,7,8
 455 633 455 633 367 600 c 0,9,10
 281 571 281 571 281 514 c 0,11,12
 281 461 281 461 369 356 c 0,13,14
 371 352 371 352 366.5 345 c 128,-1,15
 362 338 362 338 356 336 c 0,16,17
 344 332 344 332 323.5 337 c 128,-1,18
 303 342 303 342 295 352 c 0,19,20
 186 481 186 481 186 582 c 0,21,22
 186 656 186 656 224 699.5 c 128,-1,23
 262 743 262 743 352 778 c 0,24,25
 487 827 487 827 535.5 877.5 c 128,-1,26
 584 928 584 928 584 1010 c 128,-1,27
 584 1092 584 1092 530.5 1137 c 128,-1,28
 477 1182 477 1182 379 1182 c 0,29,30
 348 1182 348 1182 297 1174.5 c 128,-1,31
 246 1167 246 1167 219 1167 c 0,32,33
 86 1167 86 1167 86 1260 c 0,0,1
197 78 m 128,-1,35
 197 127 197 127 231.5 158.5 c 128,-1,36
 266 190 266 190 317 190 c 0,37,38
 370 190 370 190 404 159.5 c 128,-1,39
 438 129 438 129 438 78 c 0,40,41
 438 29 438 29 404.5 -3 c 128,-1,42
 371 -35 371 -35 317 -35 c 0,43,44
 266 -35 266 -35 231.5 -3 c 128,-1,34
 197 29 197 29 197 78 c 128,-1,35
EndSplineSet
Validated: 33
EndChar

StartChar: at
Encoding: 64 64 35
Width: 1966
GlyphClass: 2
Flags: W
LayerCount: 2
Fore
SplineSet
246 565 m 0,0,1
 246 927 246 927 484.5 1177 c 128,-1,2
 723 1427 723 1427 1069 1427 c 0,3,4
 1350 1427 1350 1427 1529 1258.5 c 128,-1,5
 1708 1090 1708 1090 1708 819 c 0,6,7
 1708 565 1708 565 1559.5 380 c 128,-1,8
 1411 195 1411 195 1210 195 c 0,9,10
 1069 195 1069 195 1069 328 c 0,11,12
 1069 367 1069 367 1071 391 c 0,13,14
 1075 411 1075 411 1061 399 c 0,15,16
 1055 391 1055 391 1051 385 c 0,17,18
 1022 350 1022 350 961 293 c 0,19,20
 852 195 852 195 754 195 c 0,21,22
 682 195 682 195 636 257 c 128,-1,23
 590 319 590 319 590 410 c 0,24,25
 590 523 590 523 650.5 652.5 c 128,-1,26
 711 782 711 782 809 885 c 0,27,28
 948 1028 948 1028 1073 1028 c 0,29,30
 1167 1028 1167 1028 1208 956 c 0,31,32
 1220 936 1220 936 1233 969 c 0,33,34
 1233 973 1233 973 1235 980 c 128,-1,35
 1237 987 1237 987 1238 990 c 128,-1,36
 1239 993 1239 993 1240 998.5 c 128,-1,37
 1241 1004 1241 1004 1243 1006 c 128,-1,38
 1245 1008 1245 1008 1247 1011 c 128,-1,39
 1249 1014 1249 1014 1251 1016 c 128,-1,40
 1253 1018 1253 1018 1257.5 1020 c 128,-1,41
 1262 1022 1262 1022 1266 1023 c 128,-1,42
 1270 1024 1270 1024 1276 1025 c 128,-1,43
 1282 1026 1282 1026 1288 1026 c 0,44,45
 1306 1028 1306 1028 1374 1028 c 0,46,47
 1394 1028 1394 1028 1395 1006 c 0,48,49
 1395 1004 1395 1004 1338.5 824.5 c 128,-1,50
 1282 645 1282 645 1250.5 527.5 c 128,-1,51
 1219 410 1219 410 1214 358 c 0,52,53
 1210 278 1210 278 1270 279 c 0,54,55
 1315 279 1315 279 1372.5 313.5 c 128,-1,56
 1430 348 1430 348 1475 401 c 0,57,58
 1547 489 1547 489 1590.5 604 c 128,-1,59
 1634 719 1634 719 1634 834 c 0,60,61
 1634 1063 1634 1063 1475.5 1211.5 c 128,-1,62
 1317 1360 1317 1360 1077 1360 c 0,63,64
 772 1360 772 1360 559 1123.5 c 128,-1,65
 346 887 346 887 346 543 c 0,66,67
 346 242 346 242 531.5 55.5 c 128,-1,68
 717 -131 717 -131 1010 -131 c 0,69,70
 1241 -131 1241 -131 1416 -15.5 c 128,-1,71
 1591 100 1591 100 1690 324 c 0,72,73
 1698 342 1698 342 1704 346 c 128,-1,74
 1710 350 1710 350 1729 350 c 0,75,76
 1733 350 1733 350 1739 349 c 128,-1,77
 1745 348 1745 348 1749 348 c 0,78,79
 1765 344 1765 344 1759 319 c 0,80,81
 1675 75 1675 75 1471.5 -65 c 128,-1,82
 1268 -205 1268 -205 1006 -205 c 0,83,84
 678 -205 678 -205 462 12 c 128,-1,85
 246 229 246 229 246 565 c 0,0,1
745 436 m 0,86,87
 745 387 745 387 771 354.5 c 128,-1,88
 797 322 797 322 834 322 c 0,89,90
 932 322 932 322 1055 485 c 0,91,92
 1108 557 1108 557 1141 655 c 0,93,94
 1180 778 1180 778 1180 848 c 0,95,96
 1180 901 1180 901 1152 934 c 128,-1,97
 1124 967 1124 967 1081 967 c 0,98,99
 1013 967 1013 967 946 889 c 0,100,101
 866 793 866 793 805.5 657.5 c 128,-1,102
 745 522 745 522 745 436 c 0,86,87
EndSplineSet
Validated: 33
EndChar

StartChar: A
Encoding: 65 65 36
Width: 1456
GlyphClass: 2
Flags: W
LayerCount: 2
Fore
SplineSet
29 55 m 0,0,1
 31 67 31 67 47 68 c 0,2,3
 139 68 139 68 166 98 c 0,4,5
 180 114 180 114 207 176 c 0,6,7
 232 237 232 237 240 260 c 2,8,-1
 625 1307 l 1,9,-1
 610 1360 l 2,10,11
 608 1364 608 1364 611 1367 c 128,-1,12
 614 1370 614 1370 620.5 1372 c 128,-1,13
 627 1374 627 1374 634 1375 c 128,-1,14
 641 1376 641 1376 650 1376 c 128,-1,15
 659 1376 659 1376 665.5 1376 c 128,-1,16
 672 1376 672 1376 680 1376 c 2,17,-1
 686 1376 l 2,18,19
 778 1376 778 1376 793 1356 c 1,20,21
 899 1075 899 1075 984 851 c 128,-1,22
 1069 627 1069 627 1116 502 c 128,-1,23
 1163 377 1163 377 1176 342 c 0,24,25
 1196 289 1196 289 1233 182 c 0,26,27
 1260 108 1260 108 1287.5 84.5 c 128,-1,28
 1315 61 1315 61 1382 61 c 2,29,-1
 1397 61 l 2,30,31
 1409 61 1409 61 1414 44 c 0,32,33
 1416 36 1416 36 1416 27 c 128,-1,34
 1416 18 1416 18 1414 10 c 0,35,36
 1409 -8 1409 -8 1397 -8 c 0,37,38
 1266 -2 1266 -2 1111 -2 c 0,39,40
 987 -2 987 -2 848 -6 c 0,41,42
 832 -6 832 -6 825 10 c 0,43,44
 823 16 823 16 823 35 c 0,45,46
 823 55 823 55 831.5 61.5 c 128,-1,47
 840 68 840 68 860 68 c 2,48,-1
 954 68 l 2,49,50
 1017 70 1017 70 1034 96 c 0,51,52
 1041 107 1041 107 1041 123 c 0,53,54
 1041 145 1041 145 1028 178 c 0,55,56
 1003 244 1003 244 958 365.5 c 128,-1,57
 913 487 913 487 889 553 c 0,58,59
 885 565 885 565 865.5 573.5 c 128,-1,60
 846 582 846 582 831 580 c 0,61,62
 778 577 778 577 700 577 c 128,-1,63
 622 577 622 577 518 580 c 0,64,65
 495 580 495 580 469 545 c 1,66,67
 416 371 416 371 338 190 c 0,68,69
 322 151 322 151 322 121 c 0,70,71
 322 68 322 68 438 66 c 0,72,73
 452 66 452 66 474 68 c 128,-1,74
 496 70 496 70 514 68 c 0,75,76
 528 66 528 66 528 29 c 1,77,78
 524 -6 524 -6 514 -6 c 0,79,80
 343 -3 343 -3 232 -3 c 128,-1,81
 121 -3 121 -3 70 -6 c 2,82,-1
 47 -6 l 1,83,84
 25 -2 25 -2 25 27 c 0,85,86
 25 39 25 39 29 55 c 0,0,1
535 727 m 0,87,88
 534 725 534 725 534 723 c 0,89,90
 534 708 534 708 559 696 c 1,91,92
 623 694 623 694 685.5 694 c 128,-1,93
 748 694 748 694 807 696 c 0,94,95
 817 696 817 696 822 706 c 0,96,97
 825 712 825 712 825 718 c 0,98,99
 825 723 825 723 823 727 c 0,100,101
 755 915 755 915 698 1100 c 0,102,103
 694 1110 694 1110 685 1113 c 0,104,105
 683 1114 683 1114 681 1114 c 0,106,107
 675 1114 675 1114 672 1106 c 0,108,109
 633 979 633 979 535 727 c 0,87,88
EndSplineSet
Validated: 1
EndChar

StartChar: B
Encoding: 66 66 37
Width: 1343
GlyphClass: 2
Flags: W
LayerCount: 2
Fore
SplineSet
43 27.5 m 128,-1,1
 43 61 43 61 57 66 c 0,2,3
 96 72 96 72 106 68 c 1,4,5
 239 68 239 68 270 99.5 c 128,-1,6
 301 131 301 131 301 272 c 2,7,-1
 301 1055 l 2,8,9
 301 1205 301 1205 274.5 1234.5 c 128,-1,10
 248 1264 248 1264 123 1264 c 2,11,-1
 76 1264 l 2,12,13
 60 1264 60 1264 61.5 1297.5 c 128,-1,14
 63 1331 63 1331 76 1333 c 2,15,-1
 94 1335 l 2,16,17
 248 1351 248 1351 678 1352 c 0,18,19
 805 1352 805 1352 862.5 1340.5 c 128,-1,20
 920 1329 920 1329 997 1294 c 0,21,22
 1079 1255 1079 1255 1127.5 1184.5 c 128,-1,23
 1176 1114 1176 1114 1176 1030 c 0,24,25
 1176 942 1176 942 1122.5 872.5 c 128,-1,26
 1069 803 1069 803 979 770 c 0,27,28
 963 764 963 764 983 754 c 2,29,-1
 1024 733 l 1,30,31
 1255 621 1255 621 1255 408 c 0,32,33
 1255 267 1255 267 1165 153 c 128,-1,34
 1075 39 1075 39 942 12 c 0,35,36
 833 -9 833 -9 714 -9 c 0,37,38
 690 -9 690 -9 666 -8 c 0,39,40
 504 -5 504 -5 352 -5 c 128,-1,41
 200 -5 200 -5 59 -8 c 0,42,0
 43 -6 43 -6 43 27.5 c 128,-1,1
500 360 m 2,43,44
 500 251 500 251 510 197 c 0,45,46
 533 76 533 76 733 76 c 0,47,48
 866 76 866 76 951 168 c 128,-1,49
 1036 260 1036 260 1036 395 c 0,50,51
 1036 481 1036 481 994 555 c 128,-1,52
 952 629 952 629 879 672 c 0,53,54
 848 690 848 690 816 701.5 c 128,-1,55
 784 713 784 713 746 716 c 0,56,57
 710 719 710 719 686 720 c 0,58,59
 674 720 674 720 656 720 c 128,-1,60
 638 720 638 720 614 720 c 0,61,62
 566 719 566 719 545 719 c 0,63,64
 500 711 500 711 500 676 c 2,65,-1
 500 360 l 2,43,44
500 829 m 2,66,67
 500 815 500 815 506 805 c 128,-1,68
 512 795 512 795 517 791.5 c 128,-1,69
 522 788 522 788 524 788 c 0,70,71
 538 788 538 788 586 786 c 0,72,73
 610 786 610 786 628 786 c 128,-1,74
 646 786 646 786 658 786 c 0,75,76
 684 787 684 787 724 790 c 128,-1,77
 764 793 764 793 795.5 800 c 128,-1,78
 827 807 827 807 854 819 c 0,79,80
 963 864 963 864 963 1018 c 0,81,82
 963 1149 963 1149 872 1227 c 0,83,84
 806 1280 806 1280 707 1290 c 0,85,86
 666 1294 666 1294 628 1294 c 0,87,88
 575 1294 575 1294 528 1286 c 0,89,90
 520 1284 520 1284 510 1272 c 128,-1,91
 500 1260 500 1260 500 1247 c 2,92,-1
 500 829 l 2,66,67
EndSplineSet
Validated: 1
EndChar

StartChar: C
Encoding: 67 67 38
Width: 1560
GlyphClass: 2
Flags: W
LayerCount: 2
Fore
SplineSet
115 649 m 0,0,1
 115 964 115 964 323.5 1163 c 128,-1,2
 532 1362 532 1362 868 1362 c 0,3,4
 1015 1362 1015 1362 1204 1292 c 0,5,6
 1243 1277 1243 1277 1269 1277 c 0,7,8
 1291 1277 1291 1277 1305 1288 c 0,9,10
 1313 1294 1313 1294 1332.5 1294 c 128,-1,11
 1352 1294 1352 1294 1354 1286 c 0,12,13
 1375 1199 1375 1199 1375 1129 c 0,14,15
 1375 1115 1375 1115 1374 1102 c 0,16,17
 1374 1084 1374 1084 1372 1042 c 0,18,19
 1371 1021 1371 1021 1371 1004.5 c 128,-1,20
 1371 988 1371 988 1372 977 c 0,21,22
 1368 959 1368 959 1343.5 953.5 c 128,-1,23
 1319 948 1319 948 1311 961 c 0,24,25
 1258 1115 1258 1115 1148 1200.5 c 128,-1,26
 1038 1286 1038 1286 881 1286 c 0,27,28
 633 1286 633 1286 487.5 1124.5 c 128,-1,29
 342 963 342 963 342 692 c 0,30,31
 342 413 342 413 502 229 c 128,-1,32
 662 45 662 45 909 45 c 0,33,34
 1091 45 1091 45 1243 180 c 0,35,36
 1284 217 1284 217 1305.5 245.5 c 128,-1,37
 1327 274 1327 274 1366 344 c 1,38,39
 1370 362 1370 362 1409 358 c 0,40,41
 1434 354 1434 354 1432 342 c 0,42,43
 1383 172 1383 172 1288 14 c 1,44,45
 1261 20 1261 20 1241 20 c 0,46,47
 1180 20 1180 20 1081 -10 c 0,48,49
 993 -39 993 -39 846 -39 c 0,50,51
 522 -39 522 -39 318.5 155.5 c 128,-1,52
 115 350 115 350 115 649 c 0,0,1
EndSplineSet
Validated: 1
EndChar

StartChar: D
Encoding: 68 68 39
Width: 1583
GlyphClass: 2
Flags: W
LayerCount: 2
Fore
SplineSet
25 1296 m 0,0,1
 27 1326 27 1326 41 1329 c 2,2,-1
 55 1333 l 1,3,4
 461 1349 461 1349 657 1350 c 0,5,6
 858 1350 858 1350 989 1316 c 128,-1,7
 1120 1282 1120 1282 1229 1204 c 0,8,9
 1477 1026 1477 1026 1477 709 c 0,10,11
 1477 478 1477 478 1336.5 289 c 128,-1,12
 1196 100 1196 100 973 37 c 0,13,14
 823 -6 823 -6 569 -6 c 2,15,-1
 78 -8 l 2,16,17
 39 -8 39 -8 33 10 c 0,18,19
 26 27 26 27 26 39 c 0,20,21
 26 61 26 61 49 70 c 0,22,23
 63 72 63 72 90 73 c 128,-1,24
 117 74 117 74 125 74 c 0,25,26
 143 76 143 76 157.5 80 c 128,-1,27
 172 84 172 84 183.5 89 c 128,-1,28
 195 94 195 94 203 105.5 c 128,-1,29
 211 117 211 117 216 123 c 128,-1,30
 221 129 221 129 225 145.5 c 128,-1,31
 229 162 229 162 231 168 c 128,-1,32
 233 174 233 174 234.5 194.5 c 128,-1,33
 236 215 236 215 236 220 c 128,-1,34
 236 225 236 225 236 247.5 c 128,-1,35
 236 270 236 270 236 274 c 2,36,-1
 236 1055 l 2,37,38
 236 1192 236 1192 210 1229 c 128,-1,39
 184 1266 184 1266 59 1266 c 2,40,-1
 41 1266 l 2,41,42
 25 1266 25 1266 25 1291 c 0,43,44
 25 1293 25 1293 25 1296 c 0,0,1
434 209 m 2,45,46
 434 129 434 129 466 95 c 128,-1,47
 498 61 498 61 594 61 c 0,48,49
 899 61 899 61 1077 212 c 128,-1,50
 1255 363 1255 363 1255 676 c 0,51,52
 1255 828 1255 828 1199 955.5 c 128,-1,53
 1143 1083 1143 1083 1044 1159 c 0,54,55
 976 1212 976 1212 906 1237 c 128,-1,56
 836 1262 836 1262 715 1274 c 0,57,58
 647 1280 647 1280 572 1280 c 0,59,60
 527 1280 527 1280 479 1278 c 0,61,62
 434 1274 434 1274 434 1231 c 2,63,-1
 434 209 l 2,45,46
EndSplineSet
Validated: 1
EndChar

StartChar: E
Encoding: 69 69 40
Width: 1267
GlyphClass: 2
Flags: W
LayerCount: 2
Fore
SplineSet
50 45 m 0,0,1
 55 68 55 68 69.5 70 c 128,-1,2
 84 72 84 72 158 72 c 0,3,4
 258 76 258 76 283.5 109.5 c 128,-1,5
 309 143 309 143 309 274 c 2,6,-1
 309 1053 l 2,7,8
 309 1184 309 1184 283.5 1222 c 128,-1,9
 258 1260 258 1260 150 1260 c 0,10,11
 146 1260 146 1260 140.5 1260 c 128,-1,12
 135 1260 135 1260 131 1260 c 128,-1,13
 127 1260 127 1260 122 1260 c 128,-1,14
 117 1260 117 1260 114 1261 c 128,-1,15
 111 1262 111 1262 106.5 1264 c 128,-1,16
 102 1266 102 1266 98 1270 c 128,-1,17
 94 1274 94 1274 92 1278 c 0,18,19
 86 1290 86 1290 100 1321 c 0,20,21
 106 1331 106 1331 135 1331 c 0,22,23
 470 1333 470 1333 698.5 1333 c 128,-1,24
 927 1333 927 1333 1049 1331 c 0,25,26
 1088 1331 1088 1331 1087 1311 c 0,27,28
 1095 1245 1095 1245 1098.5 1190 c 128,-1,29
 1102 1135 1102 1135 1103 1091 c 128,-1,30
 1104 1047 1104 1047 1106 1030 c 1,31,32
 1102 1010 1102 1010 1057 1024 c 0,33,34
 1043 1026 1043 1026 1042 1047 c 0,35,36
 1022 1172 1022 1172 985 1203.5 c 128,-1,37
 948 1235 948 1235 821 1237 c 0,38,39
 703 1241 703 1241 628 1241 c 0,40,41
 578 1241 578 1241 547 1239 c 0,42,43
 535 1239 535 1239 521.5 1222.5 c 128,-1,44
 508 1206 508 1206 508 1194 c 2,45,-1
 508 780 l 2,46,47
 508 764 508 764 517 750.5 c 128,-1,48
 526 737 526 737 537 737 c 2,49,-1
 778 737 l 2,50,51
 899 737 899 737 925.5 757.5 c 128,-1,52
 952 778 952 778 967 889 c 0,53,54
 971 903 971 903 1012 899 c 0,55,56
 1022 897 1022 897 1028 868 c 1,57,58
 1030 828 1030 828 1030 762 c 0,59,60
 1030 663 1030 663 1026 504 c 0,61,62
 1026 477 1026 477 1001 475 c 0,63,64
 966 471 966 471 965 485 c 0,65,66
 949 591 949 591 921 613 c 128,-1,67
 893 635 893 635 772 637 c 2,68,-1
 537 639 l 1,69,70
 508 631 508 631 508 606 c 2,71,-1
 508 262 l 2,72,73
 508 143 508 143 529.5 119.5 c 128,-1,74
 551 96 551 96 662 96 c 2,75,-1
 825 96 l 2,76,77
 940 96 940 96 980 105.5 c 128,-1,78
 1020 115 1020 115 1047 145 c 0,79,80
 1096 204 1096 204 1122 311 c 0,81,82
 1126 329 1126 329 1143 334 c 0,83,84
 1180 338 1180 338 1186 326 c 1,85,86
 1186 260 1186 260 1180 201.5 c 128,-1,87
 1174 143 1174 143 1166.5 89 c 128,-1,88
 1159 35 1159 35 1157 25 c 0,89,90
 1153 -4 1153 -4 1075 -4 c 0,91,92
 346 -4 346 -4 76 -6 c 1,93,94
 56 -2 56 -2 51 8 c 0,95,96
 48 16 48 16 48 26 c 0,97,98
 48 35 48 35 50 45 c 0,0,1
EndSplineSet
Validated: 1
EndChar

StartChar: F
Encoding: 70 70 41
Width: 1112
GlyphClass: 2
Flags: W
LayerCount: 2
Fore
SplineSet
82 26 m 0,0,1
 84 58 84 58 100 61 c 0,2,3
 188 65 188 65 217 93 c 128,-1,4
 246 121 246 121 246 203 c 2,5,-1
 246 1124 l 2,6,7
 246 1206 246 1206 214 1235 c 128,-1,8
 182 1264 182 1264 98 1268 c 0,9,10
 94 1270 94 1270 90 1277 c 128,-1,11
 86 1284 86 1284 86 1293.5 c 128,-1,12
 86 1303 86 1303 87 1312 c 128,-1,13
 88 1321 88 1321 93 1327 c 0,14,15
 97 1331 97 1331 102 1332 c 0,16,17
 104 1332 104 1332 106 1331 c 2,18,-1
 989 1331 l 2,19,20
 1001 1331 1001 1331 1012.5 1318.5 c 128,-1,21
 1024 1306 1024 1306 1022 1296 c 2,22,-1
 1016 1071 l 1,23,24
 1004 1064 1004 1064 989 1064 c 128,-1,25
 974 1064 974 1064 954 1071 c 1,26,27
 950 1175 950 1175 911 1204 c 128,-1,28
 872 1233 872 1233 729 1233 c 2,29,-1
 481 1233 l 2,30,31
 454 1233 454 1233 446 1200 c 1,32,-1
 444 799 l 2,33,34
 444 787 444 787 454.5 775.5 c 128,-1,35
 465 764 465 764 473 762 c 0,36,37
 512 760 512 760 556 760 c 128,-1,38
 600 760 600 760 653.5 761 c 128,-1,39
 707 762 707 762 735 762 c 0,40,41
 850 764 850 764 880.5 780.5 c 128,-1,42
 911 797 911 797 920 870 c 0,43,44
 922 890 922 890 946 895 c 0,45,46
 977 899 977 899 979 879 c 2,47,-1
 979 512 l 1,48,49
 975 500 975 500 949.5 500 c 128,-1,50
 924 500 924 500 922 512 c 0,51,52
 912 612 912 612 879 638 c 0,53,54
 848 662 848 662 744 662 c 0,55,56
 736 662 736 662 727 662 c 0,57,58
 669 660 669 660 610 660 c 128,-1,59
 551 660 551 660 492 662 c 1,60,61
 447 658 447 658 446 621 c 2,62,-1
 446 203 l 2,63,64
 446 121 446 121 478 92 c 128,-1,65
 510 63 510 63 600 63 c 2,66,-1
 621 63 l 1,67,68
 637 59 637 59 637 27 c 0,69,70
 637 12 637 12 633 2 c 0,71,72
 630 -7 630 -7 623 -6 c 0,73,74
 622 -6 622 -6 621 -6 c 0,75,76
 450 -4 450 -4 321 -4 c 128,-1,77
 192 -4 192 -4 104 -6 c 0,78,79
 81 -6 81 -6 81 20 c 0,80,81
 82 23 82 23 82 26 c 0,0,1
EndSplineSet
Validated: 1
EndChar

StartChar: G
Encoding: 71 71 42
Width: 1562
GlyphClass: 2
Flags: W
LayerCount: 2
Fore
SplineSet
117 639 m 0,0,1
 117 791 117 791 178.5 932 c 128,-1,2
 240 1073 240 1073 350 1176 c 0,3,4
 456 1276 456 1276 572 1321 c 128,-1,5
 688 1366 688 1366 848 1366 c 0,6,7
 979 1366 979 1366 1186 1305 c 0,8,9
 1231 1293 1231 1293 1249 1292 c 0,10,11
 1274 1292 1274 1292 1290 1309 c 1,12,13
 1306 1313 1306 1313 1337 1309 c 0,14,15
 1344 1307 1344 1307 1344 1218.5 c 128,-1,16
 1344 1130 1344 1130 1337 954 c 0,17,18
 1335 936 1335 936 1304.5 935 c 128,-1,19
 1274 934 1274 934 1272 950 c 0,20,21
 1204 1292 1204 1292 881 1292 c 0,22,23
 627 1292 627 1292 483.5 1121 c 128,-1,24
 340 950 340 950 340 653 c 0,25,26
 340 379 340 379 481.5 209 c 128,-1,27
 623 39 623 39 856 39 c 0,28,29
 981 39 981 39 1122 102 c 0,30,31
 1147 112 1147 112 1147 170 c 0,32,33
 1147 184 1147 184 1146 230 c 128,-1,34
 1145 276 1145 276 1145 315 c 128,-1,35
 1145 354 1145 354 1147 377 c 0,36,37
 1147 459 1147 459 1114 484.5 c 128,-1,38
 1081 510 1081 510 989 514 c 2,39,-1
 909 516 l 2,40,41
 899 516 899 516 893 533.5 c 128,-1,42
 887 551 887 551 891 568.5 c 128,-1,43
 895 586 895 586 909 588 c 0,44,45
 1010 585 1010 585 1152 585 c 128,-1,46
 1294 585 1294 585 1475 588 c 0,47,48
 1497 588 1497 588 1497 567 c 0,49,50
 1497 561 1497 561 1495 553 c 0,51,52
 1493 541 1493 541 1487 529.5 c 128,-1,53
 1481 518 1481 518 1475 520 c 0,54,55
 1401 518 1401 518 1374.5 487.5 c 128,-1,56
 1348 457 1348 457 1346 379 c 0,57,58
 1344 324 1344 324 1344 265 c 128,-1,59
 1344 206 1344 206 1346 145 c 0,60,61
 1346 98 1346 98 1327 90 c 0,62,63
 1221 35 1221 35 1069.5 -2 c 128,-1,64
 918 -39 918 -39 791 -39 c 0,65,66
 494 -39 494 -39 305.5 152.5 c 128,-1,67
 117 344 117 344 117 639 c 0,0,1
EndSplineSet
Validated: 1
EndChar

StartChar: H
Encoding: 72 72 43
Width: 1613
GlyphClass: 2
Flags: W
LayerCount: 2
Fore
SplineSet
53 8 m 0,0,1
 48 23 48 23 48 35 c 0,2,3
 48 55 48 55 63 66 c 1,4,5
 73 68 73 68 115 68 c 0,6,7
 187 72 187 72 213.5 100.5 c 128,-1,8
 240 129 240 129 240 203 c 2,9,-1
 240 1124 l 2,10,11
 240 1204 240 1204 210 1233 c 128,-1,12
 180 1262 180 1262 100 1266 c 0,13,14
 92 1270 92 1270 89 1286.5 c 128,-1,15
 86 1303 86 1303 90 1317 c 128,-1,16
 94 1331 94 1331 104 1331 c 0,17,18
 235 1325 235 1325 358.5 1325 c 128,-1,19
 482 1325 482 1325 598 1331 c 0,20,21
 606 1331 606 1331 618 1323 c 0,22,23
 628 1313 628 1313 621 1278 c 0,24,25
 619 1268 619 1268 596 1266 c 0,26,27
 508 1266 508 1266 474 1233 c 128,-1,28
 440 1200 440 1200 440 1124 c 2,29,-1
 440 750 l 2,30,31
 440 740 440 740 449.5 729.5 c 128,-1,32
 459 719 459 719 477 719 c 0,33,34
 611 716 611 716 769.5 716 c 128,-1,35
 928 716 928 716 1110 719 c 0,36,37
 1126 719 1126 719 1148.5 729 c 128,-1,38
 1171 739 1171 739 1171 752 c 2,39,-1
 1171 1124 l 2,40,41
 1171 1200 1171 1200 1137.5 1233 c 128,-1,42
 1104 1266 1104 1266 1014 1266 c 2,43,-1
 973 1266 l 1,44,45
 953 1270 953 1270 953 1292 c 0,46,47
 953 1303 953 1303 958 1319 c 0,48,49
 966 1337 966 1337 995 1337 c 0,50,51
 1017 1338 1017 1338 1048 1338 c 0,52,53
 1125 1338 1125 1338 1260.5 1334 c 128,-1,54
 1396 1330 1396 1330 1465 1330 c 0,55,56
 1493 1330 1493 1330 1509 1331 c 0,57,58
 1529 1333 1529 1333 1537.5 1311.5 c 128,-1,59
 1546 1290 1546 1290 1536 1274 c 0,60,61
 1532 1264 1532 1264 1507 1264 c 0,62,63
 1431 1258 1431 1258 1402.5 1228 c 128,-1,64
 1374 1198 1374 1198 1372 1124 c 0,65,66
 1368 985 1368 985 1368 808 c 128,-1,67
 1368 631 1368 631 1370 443.5 c 128,-1,68
 1372 256 1372 256 1372 203 c 0,69,70
 1372 129 1372 129 1406 98.5 c 128,-1,71
 1440 68 1440 68 1528 68 c 0,72,73
 1567 67 1567 67 1573 51 c 0,74,75
 1577 42 1577 42 1577 33 c 128,-1,76
 1577 24 1577 24 1574 14 c 0,77,78
 1567 -6 1567 -6 1548 -6 c 2,79,-1
 967 -6 l 2,80,81
 942 -6 942 -6 940 12 c 0,82,83
 934 30 934 30 941 48 c 128,-1,84
 948 66 948 66 965 66 c 2,85,-1
 1014 66 l 2,86,87
 1098 66 1098 66 1134.5 96.5 c 128,-1,88
 1171 127 1171 127 1171 203 c 2,89,-1
 1171 586 l 1,90,91
 1167 623 1167 623 1133 623 c 0,92,93
 989 617 989 617 824.5 617 c 128,-1,94
 660 617 660 617 477 623 c 0,95,96
 467 623 467 623 453.5 608.5 c 128,-1,97
 440 594 440 594 440 571 c 2,98,-1
 440 203 l 2,99,100
 440 123 440 123 470 95.5 c 128,-1,101
 500 68 500 68 586 68 c 2,102,-1
 596 68 l 1,103,-1
 606 68 l 2,104,105
 620 70 620 70 628.5 52.5 c 128,-1,106
 637 35 637 35 631 15.5 c 128,-1,107
 625 -4 625 -4 606 -6 c 2,108,-1
 86 -6 l 2,109,110
 59 -6 59 -6 53 8 c 0,0,1
EndSplineSet
Validated: 1
EndChar

StartChar: I
Encoding: 73 73 44
Width: 743
GlyphClass: 2
Flags: W
LayerCount: 2
Fore
SplineSet
106 25 m 0,0,1
 106 64 106 64 125 63 c 0,2,3
 219 71 219 71 241.5 95 c 128,-1,4
 264 119 264 119 268 203 c 2,5,-1
 270 274 l 1,6,-1
 270 1053 l 1,7,-1
 268 1124 l 2,8,9
 266 1206 266 1206 243.5 1233 c 128,-1,10
 221 1260 221 1260 139 1268 c 0,11,12
 113 1271 113 1271 113 1295 c 0,13,14
 113 1305 113 1305 117 1319 c 0,15,16
 123 1333 123 1333 145 1333 c 0,17,18
 153 1333 153 1333 350 1328 c 0,19,20
 416 1326 416 1326 467 1326 c 0,21,22
 570 1326 570 1326 616 1333 c 0,23,24
 617 1333 617 1333 619 1333 c 0,25,26
 648 1333 648 1333 649 1311 c 0,27,28
 655 1268 655 1268 639 1268 c 0,29,30
 635 1268 635 1268 625.5 1266 c 128,-1,31
 616 1264 616 1264 610 1264 c 0,32,33
 516 1262 516 1262 492.5 1228 c 128,-1,34
 469 1194 469 1194 469 1053 c 2,35,-1
 469 203 l 2,36,37
 469 123 469 123 497.5 96.5 c 128,-1,38
 526 70 526 70 610 68 c 0,39,40
 633 68 633 68 641 66 c 0,41,42
 653 58 653 58 655 40 c 0,43,44
 656 35 656 35 656 31 c 0,45,46
 656 18 656 18 652 8 c 0,47,48
 647 -6 647 -6 639 -6 c 0,49,50
 512 -2 512 -2 385 -2 c 2,51,-1
 131 -6 l 2,52,53
 106 -6 106 -6 106 25 c 0,0,1
EndSplineSet
Validated: 1
EndChar

StartChar: J
Encoding: 74 74 45
Width: 663
GlyphClass: 2
Flags: W
LayerCount: 2
Fore
SplineSet
-184 -465 m 0,0,1
 -184 -426 -184 -426 -157.5 -397.5 c 128,-1,2
 -131 -369 -131 -369 -94 -369 c 0,3,4
 -80 -369 -80 -369 -65.5 -376 c 128,-1,5
 -51 -383 -51 -383 -29.5 -401.5 c 128,-1,6
 -8 -420 -8 -420 -6 -422 c 0,7,8
 37 -455 37 -455 45 -459 c 0,9,10
 64 -467 64 -467 85 -467 c 0,11,12
 103 -467 103 -467 122 -460 c 0,13,14
 162 -446 162 -446 186 -414 c 0,15,16
 219 -365 219 -365 229.5 -284 c 128,-1,17
 240 -203 240 -203 240 14 c 0,18,19
 240 1038 240 1038 238 1124 c 0,20,21
 236 1208 236 1208 203 1236 c 128,-1,22
 170 1264 170 1264 80 1264 c 0,23,24
 76 1262 76 1262 66.5 1264 c 128,-1,25
 57 1266 57 1266 55 1266 c 0,26,27
 39 1268 39 1268 36 1288.5 c 128,-1,28
 33 1309 33 1309 41 1321 c 0,29,30
 47 1331 47 1331 72 1331 c 0,31,32
 161 1326 161 1326 288.5 1326 c 128,-1,33
 416 1326 416 1326 582 1331 c 0,34,35
 604 1331 604 1331 610 1319 c 0,36,37
 614 1310 614 1310 614 1297 c 0,38,39
 614 1293 614 1293 614 1288 c 0,40,41
 612 1270 612 1270 602 1268 c 0,42,43
 598 1266 598 1266 580 1266 c 0,44,45
 494 1260 494 1260 466 1232 c 128,-1,46
 438 1204 438 1204 438 1124 c 2,47,-1
 438 150 l 2,48,49
 438 5 438 5 410 -123 c 0,50,51
 373 -303 373 -303 303 -410 c 0,52,53
 184 -592 184 -592 14 -592 c 0,54,55
 -74 -592 -74 -592 -129 -556 c 128,-1,56
 -184 -520 -184 -520 -184 -465 c 0,0,1
EndSplineSet
Validated: 1
EndChar

StartChar: K
Encoding: 75 75 46
Width: 1515
GlyphClass: 2
Flags: W
LayerCount: 2
Fore
SplineSet
41 38 m 0,0,1
 45 64 45 64 68 72 c 0,2,3
 80 76 80 76 106 72 c 1,4,5
 196 72 196 72 230 102.5 c 128,-1,6
 264 133 264 133 264 203 c 2,7,-1
 264 1124 l 2,8,9
 264 1206 264 1206 231.5 1235 c 128,-1,10
 199 1264 199 1264 106 1264 c 2,11,-1
 66 1264 l 2,12,13
 52 1266 52 1266 46.5 1287.5 c 128,-1,14
 41 1309 41 1309 49 1321 c 1,15,16
 53 1335 53 1335 78 1335 c 0,17,18
 287 1330 287 1330 437 1330 c 0,19,20
 550 1330 550 1330 629 1333 c 0,21,22
 658 1333 658 1333 657 1300 c 0,23,24
 657 1263 657 1263 621 1264 c 0,25,26
 529 1264 529 1264 496 1235 c 128,-1,27
 463 1206 463 1206 463 1124 c 2,28,-1
 463 694 l 2,29,30
 465 669 465 669 498 680 c 0,31,32
 537 694 537 694 571 727 c 0,33,34
 665 811 665 811 786 973 c 128,-1,35
 907 1135 907 1135 907 1214 c 0,36,37
 907 1241 907 1241 886.5 1249 c 128,-1,38
 866 1257 866 1257 791 1266 c 2,39,-1
 770 1268 l 1,40,41
 745 1286 745 1286 764 1321 c 0,42,43
 768 1335 768 1335 788 1331 c 0,44,45
 936 1327 936 1327 1065 1327 c 128,-1,46
 1194 1327 1194 1327 1303 1331 c 0,47,48
 1332 1333 1332 1333 1327 1298 c 0,49,50
 1323 1269 1323 1269 1303 1270 c 0,51,52
 1156 1268 1156 1268 1094 1223 c 0,53,54
 1076 1211 1076 1211 1055 1187 c 128,-1,55
 1034 1163 1034 1163 1023 1146.5 c 128,-1,56
 1012 1130 1012 1130 988.5 1094.5 c 128,-1,57
 965 1059 965 1059 961 1053 c 0,58,59
 891 944 891 944 731 739 c 0,60,61
 706 710 706 710 696 702 c 1,62,63
 735 686 735 686 813 610 c 0,64,65
 872 553 872 553 929.5 487.5 c 128,-1,66
 987 422 987 422 1061 326.5 c 128,-1,67
 1135 231 1135 231 1165 195 c 0,68,69
 1233 115 1233 115 1282 91.5 c 128,-1,70
 1331 68 1331 68 1427 68 c 0,71,72
 1450 67 1450 67 1456 55 c 0,73,74
 1464 44 1464 44 1464 29 c 0,75,76
 1464 24 1464 24 1463 20 c 0,77,78
 1460 -2 1460 -2 1440 -6 c 1,79,80
 1403 -3 1403 -3 1290 -3 c 0,81,82
 1139 -3 1139 -3 852 -8 c 1,83,84
 829 -4 829 -4 825 4 c 0,85,86
 819 16 819 16 822 36.5 c 128,-1,87
 825 57 825 57 840 59 c 0,88,89
 920 59 920 59 945.5 71.5 c 128,-1,90
 971 84 971 84 971 106 c 0,91,92
 971 131 971 131 944 166 c 0,93,94
 930 184 930 184 888 237.5 c 128,-1,95
 846 291 846 291 827.5 314.5 c 128,-1,96
 809 338 809 338 771 383 c 128,-1,97
 733 428 733 428 705.5 455.5 c 128,-1,98
 678 483 678 483 641 517 c 128,-1,99
 604 551 604 551 567 578 c 0,100,101
 532 603 532 603 496 608 c 0,102,103
 476 610 476 610 469.5 603 c 128,-1,104
 463 596 463 596 463 575 c 2,105,-1
 463 203 l 2,106,107
 463 129 463 129 496.5 97.5 c 128,-1,108
 530 66 530 66 621 66 c 0,109,110
 654 66 654 66 659 51 c 0,111,112
 671 24 671 24 659 0 c 0,113,114
 655 -8 655 -8 631 -8 c 0,115,116
 504 -3 504 -3 368 -3 c 128,-1,117
 232 -3 232 -3 88 -8 c 0,118,119
 55 -8 55 -8 49 0 c 0,120,121
 40 9 40 9 40 26 c 0,122,123
 40 32 40 32 41 38 c 0,0,1
EndSplineSet
Validated: 1
EndChar

StartChar: L
Encoding: 76 76 47
Width: 1218
GlyphClass: 2
Flags: W
LayerCount: 2
Fore
SplineSet
45 42 m 0,0,1
 49 62 49 62 61 66 c 0,2,3
 63 66 63 66 69.5 68 c 128,-1,4
 76 70 76 70 78 70 c 128,-1,5
 80 70 80 70 86 70 c 0,6,7
 236 70 236 70 250 137 c 1,8,9
 254 182 254 182 254 283 c 2,10,-1
 254 1124 l 2,11,12
 254 1206 254 1206 221 1236 c 128,-1,13
 188 1266 188 1266 96 1266 c 2,14,-1
 72 1266 l 2,15,16
 58 1268 58 1268 55.5 1290.5 c 128,-1,17
 53 1313 53 1313 61 1323 c 0,18,19
 69 1339 69 1339 92 1333 c 1,20,21
 179 1331 179 1331 290 1331 c 0,22,23
 457 1331 457 1331 678 1335 c 0,24,25
 703 1335 703 1335 707 1317 c 0,26,27
 711 1304 711 1304 711 1293 c 0,28,29
 711 1263 711 1263 680 1262 c 0,30,31
 639 1258 639 1258 614 1257 c 0,32,33
 497 1253 497 1253 475 1239 c 128,-1,34
 453 1225 453 1225 453 1145 c 2,35,-1
 453 207 l 2,36,37
 453 144 453 144 479.5 120 c 128,-1,38
 506 96 506 96 569 96 c 2,39,-1
 762 96 l 2,40,41
 883 96 883 96 930 116.5 c 128,-1,42
 977 137 977 137 1049 233 c 2,43,-1
 1120 328 l 1,44,45
 1149 338 1149 338 1163 328 c 0,46,47
 1174 322 1174 322 1174 313 c 0,48,49
 1174 308 1174 308 1171 303 c 0,50,51
 1091 113 1091 113 1040 31 c 0,52,53
 1013 -8 1013 -8 977 -8 c 0,54,55
 620 -2 620 -2 381 -2 c 0,56,57
 190 -2 190 -2 76 -6 c 0,58,59
 51 -10 51 -10 47 12 c 0,60,61
 43 18 43 18 43 27 c 0,62,63
 43 34 43 34 45 42 c 0,0,1
EndSplineSet
Validated: 1
EndChar

StartChar: M
Encoding: 77 77 48
Width: 1929
GlyphClass: 2
Flags: W
LayerCount: 2
Fore
SplineSet
57 49 m 0,0,1
 65 65 65 65 82 63 c 0,2,3
 92 63 92 63 101 63 c 0,4,5
 141 64 141 64 167 70 c 0,6,7
 199 78 199 78 214 108.5 c 128,-1,8
 229 139 229 139 233.5 162.5 c 128,-1,9
 238 186 238 186 242 248 c 0,10,11
 244 264 244 264 244 274 c 0,12,13
 250 370 250 370 265.5 555.5 c 128,-1,14
 281 741 281 741 289 889.5 c 128,-1,15
 297 1038 297 1038 297 1171 c 0,16,17
 297 1218 297 1218 274.5 1234.5 c 128,-1,18
 252 1251 252 1251 184 1257 c 0,19,20
 156 1260 156 1260 156 1290 c 0,21,22
 156 1298 156 1298 158 1307 c 0,23,24
 163 1334 163 1334 188 1334 c 0,25,26
 192 1334 192 1334 197 1333 c 0,27,28
 268 1329 268 1329 351 1329 c 0,29,30
 406 1329 406 1329 465 1331 c 0,31,32
 504 1331 504 1331 514 1311 c 2,33,-1
 952 313 l 2,34,35
 958 301 958 301 971.5 313.5 c 128,-1,36
 985 326 985 326 991 338 c 2,37,-1
 1411 1307 l 2,38,39
 1425 1332 1425 1332 1462 1331 c 0,40,41
 1534 1329 1534 1329 1601 1329 c 128,-1,42
 1668 1329 1668 1329 1731 1331 c 0,43,44
 1733 1331 1733 1331 1740 1331 c 128,-1,45
 1747 1331 1747 1331 1748 1331 c 128,-1,46
 1749 1331 1749 1331 1753 1329 c 128,-1,47
 1757 1327 1757 1327 1758 1324 c 128,-1,48
 1759 1321 1759 1321 1761 1315 c 0,49,50
 1767 1266 1767 1266 1751 1264 c 2,51,-1
 1729 1262 l 2,52,53
 1655 1256 1655 1256 1635.5 1237.5 c 128,-1,54
 1616 1219 1616 1219 1616 1176 c 0,55,56
 1616 1158 1616 1158 1619 1127 c 128,-1,57
 1622 1096 1622 1096 1622 1090 c 2,58,-1
 1677 279 l 2,59,60
 1687 132 1687 132 1712 100 c 128,-1,61
 1737 68 1737 68 1833 68 c 0,62,63
 1866 68 1866 68 1870 45 c 1,64,-1
 1870 10 l 2,65,66
 1868 -6 1868 -6 1839 -6 c 0,67,68
 1769 -8 1769 -8 1671 -8 c 0,69,70
 1523 -8 1523 -8 1309 -4 c 0,71,72
 1295 -4 1295 -4 1290 10 c 0,73,74
 1286 28 1286 28 1290 49 c 0,75,76
 1290 65 1290 65 1325 66 c 0,77,78
 1436 66 1436 66 1464 109 c 0,79,80
 1484 141 1484 141 1484 211 c 0,81,82
 1484 237 1484 237 1481 268 c 0,83,84
 1452 762 1452 762 1432 1063 c 0,85,86
 1432 1079 1432 1079 1415 1061 c 0,87,88
 1409 1055 1409 1055 1407 1047 c 2,89,-1
 956 -2 l 2,90,91
 954 -12 954 -12 924.5 -12 c 128,-1,92
 895 -12 895 -12 891 -2 c 2,93,-1
 428 1044 l 2,94,95
 422 1058 422 1058 410 1057 c 0,96,97
 404 1055 404 1055 403 1049 c 2,98,-1
 356 285 l 2,99,100
 352 203 352 203 352 182 c 0,101,102
 352 123 352 123 382 97.5 c 128,-1,103
 412 72 412 72 496 63 c 0,104,105
 519 63 519 63 522 45 c 0,106,107
 530 16 530 16 518 4 c 0,108,109
 516 2 516 2 494 -4 c 1,110,111
 413 -6 413 -6 306.5 -6 c 128,-1,112
 200 -6 200 -6 68 -4 c 0,113,114
 49 0 49 0 49 18 c 0,115,116
 49 31 49 31 57 49 c 0,0,1
EndSplineSet
Validated: 1
EndChar

StartChar: N
Encoding: 78 78 49
Width: 1708
GlyphClass: 2
Flags: W
LayerCount: 2
Fore
SplineSet
70 18 m 0,0,1
 69 26 69 26 69 32 c 0,2,3
 69 48 69 48 76 55 c 0,4,5
 86 69 86 69 106 70 c 0,6,7
 264 70 264 70 264 188 c 2,8,-1
 264 1223 l 1,9,10
 209 1264 209 1264 98 1266 c 0,11,12
 90 1264 90 1264 86 1275 c 128,-1,13
 82 1286 82 1286 82 1300 c 0,14,15
 82 1333 82 1333 115 1333 c 0,16,17
 200 1331 200 1331 273 1331 c 128,-1,18
 346 1331 346 1331 408 1333 c 0,19,20
 437 1333 437 1333 457 1309 c 2,21,-1
 1294 350 l 2,22,23
 1306 332 1306 332 1325 362 c 0,24,25
 1329 370 1329 370 1329 379 c 2,26,-1
 1329 1055 l 2,27,28
 1329 1143 1329 1143 1325 1178.5 c 128,-1,29
 1321 1214 1321 1214 1303 1231 c 0,30,31
 1285 1249 1285 1249 1245 1255 c 0,32,33
 1212 1259 1212 1259 1133 1264 c 0,34,35
 1121 1264 1121 1264 1114.5 1282 c 128,-1,36
 1108 1300 1108 1300 1113 1316.5 c 128,-1,37
 1118 1333 1118 1333 1133 1333 c 0,38,39
 1197 1330 1197 1330 1299 1330 c 0,40,41
 1434 1330 1434 1330 1636 1335 c 0,42,43
 1649 1335 1649 1335 1649 1296 c 0,44,45
 1649 1291 1649 1291 1649 1287 c 0,46,47
 1648 1274 1648 1274 1644 1271 c 0,48,49
 1638 1266 1638 1266 1620 1266 c 0,50,51
 1501 1262 1501 1262 1475.5 1235 c 128,-1,52
 1450 1208 1450 1208 1450 1090 c 2,53,-1
 1450 8 l 2,54,55
 1450 -19 1450 -19 1414 -23 c 0,56,57
 1406 -24 1406 -24 1400 -24 c 0,58,59
 1377 -24 1377 -24 1372 -12 c 0,60,61
 1368 -8 1368 -8 1299.5 69.5 c 128,-1,62
 1231 147 1231 147 1107 287.5 c 128,-1,63
 983 428 983 428 883 543 c 2,64,-1
 408 1083 l 2,65,66
 402 1087 402 1087 396.5 1083 c 128,-1,67
 391 1079 391 1079 388 1068 c 128,-1,68
 385 1057 385 1057 385 1040 c 2,69,-1
 385 285 l 2,70,71
 385 181 385 181 397 145 c 0,72,73
 417 79 417 79 496 74 c 0,74,75
 510 72 510 72 530.5 74 c 128,-1,76
 551 76 551 76 573.5 72 c 128,-1,77
 596 68 596 68 600 59 c 0,78,79
 610 41 610 41 605 17.5 c 128,-1,80
 600 -6 600 -6 575 -6 c 0,81,82
 432 -3 432 -3 322 -3 c 0,83,84
 176 -3 176 -3 90 -8 c 0,85,86
 74 -10 74 -10 70 18 c 0,0,1
EndSplineSet
Validated: 1
EndChar

StartChar: O
Encoding: 79 79 50
Width: 1693
GlyphClass: 2
Flags: W
LayerCount: 2
Fore
SplineSet
109 639 m 0,0,1
 109 952 109 952 316.5 1159 c 128,-1,2
 524 1366 524 1366 850 1366 c 0,3,4
 1169 1366 1169 1366 1372 1175.5 c 128,-1,5
 1575 985 1575 985 1575 694 c 0,6,7
 1575 383 1575 383 1367 172 c 128,-1,8
 1159 -39 1159 -39 846 -39 c 0,9,10
 527 -39 527 -39 318 155.5 c 128,-1,11
 109 350 109 350 109 639 c 0,0,1
330 692 m 0,12,13
 330 411 330 411 485.5 224 c 128,-1,14
 641 37 641 37 881 37 c 0,15,16
 1012 37 1012 37 1106 85 c 128,-1,17
 1200 133 1200 133 1253.5 219 c 128,-1,18
 1307 305 1307 305 1330.5 407.5 c 128,-1,19
 1354 510 1354 510 1354 633 c 0,20,21
 1354 922 1354 922 1199 1107 c 128,-1,22
 1044 1292 1044 1292 793 1292 c 0,23,24
 582 1292 582 1292 456 1125 c 128,-1,25
 330 958 330 958 330 692 c 0,12,13
EndSplineSet
Validated: 1
EndChar

StartChar: P
Encoding: 80 80 51
Width: 1181
GlyphClass: 2
Flags: W
LayerCount: 2
Fore
SplineSet
51 1296 m 0,0,1
 51 1331 51 1331 68 1331 c 0,2,3
 215 1349 215 1349 539 1350 c 0,4,5
 707 1350 707 1350 811 1323 c 0,6,7
 944 1288 944 1288 1022 1191 c 128,-1,8
 1100 1094 1100 1094 1100 967 c 0,9,10
 1100 774 1100 774 964.5 662.5 c 128,-1,11
 829 551 829 551 590 551 c 0,12,13
 553 551 553 551 487 561 c 0,14,15
 481 561 481 561 477 554 c 128,-1,16
 473 547 473 547 471 536.5 c 128,-1,17
 469 526 469 526 467 516 c 2,18,-1
 467 203 l 2,19,20
 466 122 466 122 498 98 c 0,21,22
 527 76 527 76 610 76 c 0,23,24
 617 76 617 76 625 76 c 2,25,-1
 696 76 l 1,26,27
 712 72 712 72 718 50 c 0,28,29
 723 28 723 28 716 8 c 0,30,31
 710 -10 710 -10 697 -10 c 0,32,33
 696 -10 696 -10 694 -10 c 0,34,35
 543 -4 543 -4 384 -4 c 0,36,37
 257 -4 257 -4 125 -8 c 0,38,39
 96 -8 96 -8 88 4 c 0,40,41
 82 16 82 16 82 31 c 0,42,43
 84 76 84 76 143 76 c 0,44,45
 219 76 219 76 243.5 90 c 128,-1,46
 268 104 268 104 268 160 c 2,47,-1
 268 1104 l 2,48,49
 268 1204 268 1204 248 1238 c 0,50,51
 230 1270 230 1270 176 1270 c 0,52,53
 173 1270 173 1270 170 1270 c 2,54,-1
 68 1268 l 2,55,56
 62 1266 62 1266 57.5 1275 c 128,-1,57
 53 1284 53 1284 51 1296 c 0,0,1
467 659 m 2,58,59
 467 632 467 632 496 625 c 0,60,61
 539 617 539 617 575 616 c 0,62,63
 729 616 729 616 806 711.5 c 128,-1,64
 883 807 883 807 883 973 c 0,65,66
 883 1176 883 1176 743 1249 c 0,67,68
 668 1289 668 1289 565 1289 c 0,69,70
 528 1289 528 1289 487 1284 c 0,71,72
 467 1282 467 1282 467 1237 c 2,73,-1
 467 659 l 2,58,59
EndSplineSet
Validated: 33
EndChar

StartChar: Q
Encoding: 81 81 52
Width: 1683
GlyphClass: 2
Flags: W
LayerCount: 2
Fore
SplineSet
92 643 m 0,0,1
 92 952 92 952 305 1159 c 128,-1,2
 518 1366 518 1366 844 1366 c 0,3,4
 1163 1366 1163 1366 1358.5 1176.5 c 128,-1,5
 1554 987 1554 987 1554 694 c 0,6,7
 1554 454 1554 454 1415 265 c 128,-1,8
 1276 76 1276 76 1047 0 c 0,9,10
 1041 -2 1041 -2 1038.5 -7 c 128,-1,11
 1036 -12 1036 -12 1044 -18 c 0,12,13
 1159 -63 1159 -63 1325 -205 c 0,14,15
 1421 -287 1421 -287 1488 -317.5 c 128,-1,16
 1555 -348 1555 -348 1651 -352 c 0,17,18
 1659 -354 1659 -354 1659 -361 c 0,19,20
 1659 -373 1659 -373 1634 -399 c 0,21,22
 1618 -415 1618 -415 1606 -420 c 0,23,24
 1547 -432 1547 -432 1501 -432 c 0,25,26
 1280 -432 1280 -432 1016 -207 c 0,27,28
 885 -98 885 -98 872 -88 c 0,29,30
 839 -63 839 -63 768 -37 c 1,31,32
 463 -10 463 -10 277.5 178.5 c 128,-1,33
 92 367 92 367 92 643 c 0,0,1
313 692 m 0,34,35
 313 411 313 411 471 223 c 128,-1,36
 629 35 629 35 872 35 c 0,37,38
 1017 35 1017 35 1126 129 c 128,-1,39
 1235 223 1235 223 1284 356.5 c 128,-1,40
 1333 490 1333 490 1333 633 c 0,41,42
 1333 926 1333 926 1184.5 1109 c 128,-1,43
 1036 1292 1036 1292 786 1292 c 0,44,45
 573 1292 573 1292 443 1125 c 128,-1,46
 313 958 313 958 313 692 c 0,34,35
EndSplineSet
Validated: 1
EndChar

StartChar: R
Encoding: 82 82 53
Width: 1425
GlyphClass: 2
Flags: W
LayerCount: 2
Fore
SplineSet
41 10 m 0,0,1
 37 18 37 18 37 29 c 128,-1,2
 37 40 37 40 41 53 c 0,3,4
 47 69 47 69 102 70 c 0,5,6
 194 70 194 70 226 95.5 c 128,-1,7
 258 121 258 121 258 203 c 2,8,-1
 258 274 l 1,9,-1
 258 1055 l 2,10,11
 258 1205 258 1205 231.5 1234.5 c 128,-1,12
 205 1264 205 1264 61 1266 c 0,13,14
 53 1266 53 1266 47 1279 c 128,-1,15
 41 1292 41 1292 44 1309.5 c 128,-1,16
 47 1327 47 1327 61 1333 c 1,17,-1
 82 1335 l 2,18,19
 215 1349 215 1349 569 1350 c 0,20,21
 747 1350 747 1350 832.5 1322 c 128,-1,22
 918 1294 918 1294 999 1221 c 0,23,24
 1112 1119 1112 1119 1112 965 c 0,25,26
 1112 852 1112 852 1055.5 757 c 128,-1,27
 999 662 999 662 907 614 c 0,28,29
 889 608 889 608 903 588 c 0,30,31
 917 563 917 563 958 494.5 c 128,-1,32
 999 426 999 426 1024 391 c 2,33,-1
 1139 219 l 2,34,35
 1172 170 1172 170 1194.5 146.5 c 128,-1,36
 1217 123 1217 123 1268 82 c 0,37,38
 1315 45 1315 45 1378 33 c 1,39,40
 1398 19 1398 19 1398 2 c 0,41,42
 1398 -8 1398 -8 1391 -18 c 1,43,-1
 1378 -27 l 1,44,45
 1368 -27 1368 -27 1347.5 -29 c 128,-1,46
 1327 -31 1327 -31 1317 -31 c 0,47,48
 1196 -31 1196 -31 1130.5 2 c 128,-1,49
 1065 35 1065 35 1014 94 c 0,50,51
 946 174 946 174 840 340 c 0,52,53
 801 403 801 403 758 483 c 0,54,55
 756 487 756 487 749.5 498.5 c 128,-1,56
 743 510 743 510 738 517 c 128,-1,57
 733 524 733 524 727 533.5 c 128,-1,58
 721 543 721 543 713 547 c 128,-1,59
 705 551 705 551 696 551 c 0,60,61
 590 538 590 538 528 538 c 0,62,63
 513 538 513 538 500 539 c 0,64,65
 486 539 486 539 472.5 528.5 c 128,-1,66
 459 518 459 518 459 506 c 0,67,68
 459 309 459 309 461 203 c 0,69,70
 463 121 463 121 492.5 95.5 c 128,-1,71
 522 70 522 70 614 70 c 0,72,73
 618 70 618 70 628.5 72 c 128,-1,74
 639 74 639 74 646 74 c 128,-1,75
 653 74 653 74 661.5 73 c 128,-1,76
 670 72 670 72 676 67.5 c 128,-1,77
 682 63 682 63 684 55 c 0,78,79
 690 28 690 28 686 10 c 0,80,81
 684 4 684 4 673 -1 c 128,-1,82
 662 -6 662 -6 657 -6 c 0,83,84
 639 -6 639 -6 594 -6 c 0,85,86
 457 -6 457 -6 68 -10 c 1,87,88
 48 -4 48 -4 41 10 c 0,0,1
459 655 m 2,89,90
 459 614 459 614 479 614 c 0,91,92
 530 611 530 611 569 611 c 0,93,94
 644 611 644 611 680 623 c 0,95,96
 780 658 780 658 835.5 747.5 c 128,-1,97
 891 837 891 837 891 950 c 0,98,99
 891 1112 891 1112 816 1199 c 128,-1,100
 741 1286 741 1286 549 1286 c 0,101,102
 459 1286 459 1286 459 1239 c 2,103,-1
 459 655 l 2,89,90
EndSplineSet
Validated: 1
EndChar

StartChar: S
Encoding: 83 83 54
Width: 1050
GlyphClass: 2
Flags: W
LayerCount: 2
Fore
SplineSet
115 328 m 0,0,1
 115 338 115 338 127 342 c 128,-1,2
 139 346 139 346 154.5 345 c 128,-1,3
 170 344 170 344 174 338 c 0,4,5
 205 244 205 244 237.5 192.5 c 128,-1,6
 270 141 270 141 328 102 c 0,7,8
 414 43 414 43 500 43 c 0,9,10
 617 43 617 43 687.5 108.5 c 128,-1,11
 758 174 758 174 758 274 c 0,12,13
 758 303 758 303 753 328.5 c 128,-1,14
 748 354 748 354 732.5 381 c 128,-1,15
 717 408 717 408 705.5 426 c 128,-1,16
 694 444 694 444 666.5 470 c 128,-1,17
 639 496 639 496 626.5 508 c 128,-1,18
 614 520 614 520 578.5 544.5 c 128,-1,19
 543 569 543 569 533.5 576.5 c 128,-1,20
 524 584 524 584 485 609.5 c 128,-1,21
 446 635 446 635 442 637 c 0,22,23
 368 686 368 686 324.5 720 c 128,-1,24
 281 754 281 754 227.5 806 c 128,-1,25
 174 858 174 858 149.5 917.5 c 128,-1,26
 125 977 125 977 125 1047 c 0,27,28
 125 1188 125 1188 225.5 1277 c 128,-1,29
 326 1366 326 1366 489 1366 c 0,30,31
 555 1366 555 1366 659 1331 c 0,32,33
 716 1313 716 1313 735 1313 c 0,34,35
 747 1313 747 1313 768 1331 c 1,36,37
 795 1339 795 1339 815 1331 c 1,38,39
 827 1300 827 1300 854 1053 c 1,40,41
 852 1033 852 1033 827.5 1032.5 c 128,-1,42
 803 1032 803 1032 799 1042 c 0,43,44
 701 1292 701 1292 508 1292 c 0,45,46
 412 1292 412 1292 358.5 1241 c 128,-1,47
 305 1190 305 1190 305 1106 c 0,48,49
 305 1006 305 1006 422 903 c 0,50,51
 471 858 471 858 576.5 786.5 c 128,-1,52
 682 715 682 715 752.5 662.5 c 128,-1,53
 823 610 823 610 881.5 522 c 128,-1,54
 940 434 940 434 940 336 c 0,55,56
 940 172 940 172 823.5 66.5 c 128,-1,57
 707 -39 707 -39 518 -39 c 0,58,59
 450 -39 450 -39 305 4 c 0,60,61
 254 18 254 18 244 18 c 0,62,63
 228 18 228 18 213 -4 c 1,64,65
 190 -14 190 -14 160 -4 c 1,66,67
 135 80 135 80 115 328 c 0,0,1
EndSplineSet
Validated: 1
EndChar

StartChar: T
Encoding: 84 84 55
Width: 1394
GlyphClass: 2
Flags: W
LayerCount: 2
Fore
SplineSet
70 1014 m 0,0,1
 78 1182 78 1182 102 1366 c 1,2,3
 116 1378 116 1378 134 1378 c 0,4,5
 137 1378 137 1378 139 1378 c 0,6,7
 160 1376 160 1376 164 1366 c 0,8,9
 180 1331 180 1331 279 1331 c 0,10,11
 427 1334 427 1334 638 1334 c 128,-1,12
 849 1334 849 1334 1122 1331 c 0,13,14
 1140 1330 1140 1330 1155 1330 c 0,15,16
 1200 1330 1200 1330 1214 1335 c 0,17,18
 1232 1341 1232 1341 1241 1366 c 0,19,20
 1247 1376 1247 1376 1269.5 1374 c 128,-1,21
 1292 1372 1292 1372 1303 1366 c 1,22,-1
 1335 1012 l 2,23,24
 1335 1008 1335 1008 1334 1003.5 c 128,-1,25
 1333 999 1333 999 1330 997 c 128,-1,26
 1327 995 1327 995 1324 994 c 128,-1,27
 1321 993 1321 993 1317 992 c 128,-1,28
 1313 991 1313 991 1309 991 c 0,29,30
 1297 991 1297 991 1289.5 992 c 128,-1,31
 1282 993 1282 993 1278 999.5 c 128,-1,32
 1274 1006 1274 1006 1273 1009 c 128,-1,33
 1272 1012 1272 1012 1270 1022 c 0,34,35
 1245 1149 1245 1149 1215.5 1191 c 128,-1,36
 1186 1233 1186 1233 1130 1233 c 2,37,-1
 831 1233 l 2,38,39
 821 1233 821 1233 812 1219.5 c 128,-1,40
 803 1206 803 1206 803 1196 c 0,41,42
 803 1094 803 1094 803 923 c 128,-1,43
 803 752 803 752 803 547 c 128,-1,44
 803 342 803 342 803 274 c 2,45,-1
 803 203 l 2,46,47
 803 123 803 123 834.5 99.5 c 128,-1,48
 866 76 866 76 958 76 c 2,49,-1
 1018 76 l 2,50,51
 1036 76 1036 76 1047 49 c 0,52,53
 1053 31 1053 31 1047 10 c 0,54,55
 1041 -6 1041 -6 1014 -6 c 0,56,57
 912 -2 912 -2 777 -2 c 0,58,59
 608 -2 608 -2 387 -8 c 0,60,61
 367 -8 367 -8 362 6 c 0,62,63
 354 31 354 31 362 55 c 0,64,65
 370 69 370 69 389 74 c 1,66,67
 455 74 455 74 467 72 c 0,68,69
 545 72 545 72 573.5 103.5 c 128,-1,70
 602 135 602 135 602 217 c 2,71,-1
 602 274 l 1,72,-1
 602 1200 l 2,73,74
 602 1210 602 1210 585.5 1221.5 c 128,-1,75
 569 1233 569 1233 555 1233 c 2,76,-1
 319 1233 l 1,77,-1
 276 1233 l 2,78,79
 219 1233 219 1233 188.5 1187 c 128,-1,80
 158 1141 158 1141 131 1001 c 1,81,82
 121 995 121 995 106.5 994 c 128,-1,83
 92 993 92 993 81 998.5 c 128,-1,84
 70 1004 70 1004 70 1014 c 0,0,1
EndSplineSet
Validated: 1
EndChar

StartChar: U
Encoding: 85 85 56
Width: 1669
GlyphClass: 2
Flags: W
LayerCount: 2
Fore
SplineSet
48 1314 m 0,0,1
 51 1330 51 1330 66 1331 c 0,2,3
 109 1335 109 1335 300.5 1335 c 128,-1,4
 492 1335 492 1335 618 1331 c 0,5,6
 630 1331 630 1331 634.5 1313.5 c 128,-1,7
 639 1296 639 1296 634 1280 c 128,-1,8
 629 1264 629 1264 618 1266 c 2,9,-1
 598 1266 l 2,10,11
 508 1266 508 1266 477 1237 c 128,-1,12
 446 1208 446 1208 442 1124 c 0,13,14
 442 1110 442 1110 441 1079.5 c 128,-1,15
 440 1049 440 1049 440 1034 c 2,16,-1
 440 635 l 2,17,18
 440 385 440 385 536.5 240.5 c 128,-1,19
 633 96 633 96 870 96 c 0,20,21
 1175 96 1175 96 1266 340 c 0,22,23
 1298 423 1298 423 1298 612 c 0,24,25
 1298 618 1298 618 1298 623 c 2,26,-1
 1298 993 l 2,27,28
 1298 1165 1298 1165 1265.5 1213.5 c 128,-1,29
 1233 1262 1233 1262 1114 1264 c 1,30,-1
 1100 1268 l 1,31,32
 1084 1268 1084 1268 1080.5 1299.5 c 128,-1,33
 1077 1331 1077 1331 1100 1331 c 0,34,35
 1214 1333 1214 1333 1340 1333 c 128,-1,36
 1466 1333 1466 1333 1606 1331 c 0,37,38
 1624 1331 1624 1331 1624 1300.5 c 128,-1,39
 1624 1270 1624 1270 1606 1268 c 0,40,41
 1487 1264 1487 1264 1452 1215.5 c 128,-1,42
 1417 1167 1417 1167 1417 1001 c 2,43,-1
 1417 625 l 2,44,45
 1417 525 1417 525 1414 472.5 c 128,-1,46
 1411 420 1411 420 1395.5 348 c 128,-1,47
 1380 276 1380 276 1343.5 221 c 128,-1,48
 1307 166 1307 166 1245 113 c 0,49,50
 1153 31 1153 31 1061 -4 c 128,-1,51
 969 -39 969 -39 823 -39 c 0,52,53
 430 -39 430 -39 289 268 c 0,54,55
 258 338 258 338 250 396.5 c 128,-1,56
 242 455 242 455 242 604 c 2,57,-1
 242 1139 l 2,58,59
 242 1221 242 1221 212 1242.5 c 128,-1,60
 182 1264 182 1264 66 1266 c 0,61,62
 56 1266 56 1266 50 1282 c 0,63,64
 46 1292 46 1292 47 1303 c 0,65,66
 47 1308 47 1308 48 1314 c 0,0,1
EndSplineSet
Validated: 1
EndChar

StartChar: V
Encoding: 86 86 57
Width: 1558
GlyphClass: 2
Flags: W
LayerCount: 2
Fore
SplineSet
49 1274 m 0,0,1
 46 1283 46 1283 46 1291 c 0,2,3
 46 1303 46 1303 51 1315 c 0,4,5
 55 1331 55 1331 86 1331 c 0,6,7
 224 1327 224 1327 358 1327 c 128,-1,8
 492 1327 492 1327 623 1331 c 0,9,10
 664 1331 664 1331 668 1325 c 0,11,12
 684 1305 684 1305 672 1280 c 0,13,14
 670 1270 670 1270 647 1260 c 1,15,16
 541 1256 541 1256 497 1241.5 c 128,-1,17
 453 1227 453 1227 453 1194 c 0,18,19
 453 1174 453 1174 487 1083 c 2,20,-1
 805 295 l 2,21,22
 807 291 807 291 812 285 c 128,-1,23
 817 279 817 279 825.5 271.5 c 128,-1,24
 834 264 834 264 842 268 c 128,-1,25
 850 272 850 272 856 289 c 2,26,-1
 1155 1065 l 2,27,28
 1184 1141 1184 1141 1184 1188 c 0,29,30
 1184 1229 1184 1229 1149 1248.5 c 128,-1,31
 1114 1268 1114 1268 1018 1268 c 2,32,-1
 1001 1268 l 1,33,34
 989 1272 989 1272 985 1291.5 c 128,-1,35
 981 1311 981 1311 987 1323 c 0,36,37
 991 1331 991 1331 1016 1331 c 0,38,39
 1136 1327 1136 1327 1255 1327 c 128,-1,40
 1374 1327 1374 1327 1493 1331 c 0,41,42
 1507 1331 1507 1331 1511 1325 c 0,43,44
 1518 1316 1518 1316 1518 1304 c 0,45,46
 1518 1298 1518 1298 1517 1292 c 0,47,48
 1513 1272 1513 1272 1499 1270 c 0,49,50
 1411 1268 1411 1268 1369 1227 c 128,-1,51
 1327 1186 1327 1186 1276 1055 c 2,52,-1
 864 -10 l 2,53,54
 860 -20 860 -20 847 -34.5 c 128,-1,55
 834 -49 834 -49 825 -49 c 0,56,57
 811 -52 811 -52 795 -52 c 0,58,59
 774 -52 774 -52 752 -47 c 0,60,61
 734 -47 734 -47 721 -14 c 2,62,-1
 281 1085 l 2,63,64
 234 1204 234 1204 202 1229.5 c 128,-1,65
 170 1255 170 1255 74 1257 c 0,66,67
 56 1261 56 1261 49 1274 c 0,0,1
EndSplineSet
Validated: 1
EndChar

StartChar: W
Encoding: 87 87 58
Width: 2224
GlyphClass: 2
Flags: W
LayerCount: 2
Fore
SplineSet
35 1317 m 0,0,1
 37 1331 37 1331 74 1331 c 0,2,3
 206 1339 206 1339 346 1339 c 0,4,5
 466 1339 466 1339 592 1333 c 0,6,7
 608 1333 608 1333 605 1301.5 c 128,-1,8
 602 1270 602 1270 592 1266 c 1,9,-1
 573 1266 l 2,10,11
 505 1266 505 1266 488 1254.5 c 128,-1,12
 471 1243 471 1243 471 1208 c 0,13,14
 471 1175 471 1175 510 1079 c 2,15,-1
 834 266 l 2,16,17
 836 258 836 258 843 251 c 128,-1,18
 850 244 850 244 860 248 c 128,-1,19
 870 252 870 252 881 276 c 2,20,-1
 1063 725 l 2,21,22
 1071 743 1071 743 1061 772 c 2,23,-1
 915 1122 l 2,24,25
 876 1218 876 1218 842.5 1241 c 128,-1,26
 809 1264 809 1264 694 1268 c 0,27,28
 680 1272 680 1272 678 1302.5 c 128,-1,29
 676 1333 676 1333 696 1333 c 0,30,31
 779 1335 779 1335 996.5 1335 c 128,-1,32
 1214 1335 1214 1335 1565 1333 c 0,33,34
 1588 1333 1588 1333 1584.5 1301.5 c 128,-1,35
 1581 1270 1581 1270 1569 1266 c 0,36,37
 1456 1264 1456 1264 1419 1240.5 c 128,-1,38
 1382 1217 1382 1217 1343 1120 c 2,39,-1
 1241 870 l 2,40,41
 1231 837 1231 837 1241 813 c 2,42,-1
 1477 250 l 2,43,44
 1481 242 1481 242 1488 240 c 128,-1,45
 1495 238 1495 238 1504 247 c 128,-1,46
 1513 256 1513 256 1520 272 c 2,47,-1
 1833 1098 l 2,48,49
 1865 1188 1865 1188 1865 1225 c 0,50,51
 1866 1238 1866 1238 1862 1244 c 0,52,53
 1848 1268 1848 1268 1739 1272 c 0,54,55
 1727 1274 1727 1274 1724.5 1290.5 c 128,-1,56
 1722 1307 1722 1307 1729.5 1321 c 128,-1,57
 1737 1335 1737 1335 1747 1333 c 0,58,59
 1810 1330 1810 1330 1895 1330 c 0,60,61
 2009 1330 2009 1330 2163 1335 c 1,62,63
 2163 1335 2163 1335 2164 1335 c 0,64,65
 2181 1335 2181 1335 2185 1303 c 1,66,67
 2185 1270 2185 1270 2161 1270 c 0,68,69
 2071 1270 2071 1270 2032 1237 c 128,-1,70
 1993 1204 1993 1204 1948 1085 c 2,71,-1
 1526 -20 l 2,72,73
 1520 -36 1520 -36 1460 -36 c 0,74,75
 1458 -36 1458 -36 1456 -37 c 0,76,77
 1401 -37 1401 -37 1393 -25 c 2,78,-1
 1149 559 l 2,79,80
 1147 567 1147 567 1142 571 c 128,-1,81
 1137 575 1137 575 1129.5 571 c 128,-1,82
 1122 567 1122 567 1114 549 c 2,83,-1
 881 -25 l 2,84,85
 874 -41 874 -41 824 -41 c 0,86,87
 818 -41 818 -41 812 -41 c 0,88,89
 752 -39 752 -39 743 -18 c 2,90,-1
 326 1055 l 2,91,92
 287 1157 287 1157 259 1196 c 128,-1,93
 231 1235 231 1235 196.5 1246 c 128,-1,94
 162 1257 162 1257 74 1260 c 0,95,96
 54 1260 54 1260 43 1266 c 0,97,98
 29 1273 29 1273 29 1290 c 0,99,100
 29 1302 29 1302 35 1317 c 0,0,1
1069 1239 m 0,101,102
 1069 1227 1069 1227 1083 1184 c 0,103,104
 1087 1176 1087 1176 1161 1006 c 0,105,106
 1163 1002 1163 1002 1165 1002 c 0,107,108
 1168 1002 1168 1002 1174 1008 c 0,109,110
 1182 1018 1182 1018 1186 1028 c 2,111,-1
 1239 1157 l 2,112,113
 1266 1221 1266 1221 1266 1237 c 0,114,115
 1266 1266 1266 1266 1210 1266 c 0,116,117
 1186 1263 1186 1263 1164 1263 c 128,-1,118
 1142 1263 1142 1263 1124 1266 c 0,119,120
 1069 1266 1069 1266 1069 1239 c 0,101,102
EndSplineSet
Validated: 1
EndChar

StartChar: X
Encoding: 88 88 59
Width: 1607
GlyphClass: 2
Flags: W
LayerCount: 2
Fore
SplineSet
55 1274 m 0,0,1
 53 1282 53 1282 53 1291 c 0,2,3
 54 1302 54 1302 58 1314 c 0,4,5
 66 1334 66 1334 90 1333 c 0,6,7
 227 1327 227 1327 360 1327 c 0,8,9
 515 1327 515 1327 666 1335 c 0,10,11
 695 1335 695 1335 700 1319 c 0,12,13
 708 1301 708 1301 699 1283.5 c 128,-1,14
 690 1266 690 1266 668 1266 c 0,15,16
 582 1264 582 1264 555 1255.5 c 128,-1,17
 528 1247 528 1247 528 1227 c 0,18,19
 528 1217 528 1217 536.5 1201.5 c 128,-1,20
 545 1186 545 1186 554 1173.5 c 128,-1,21
 563 1161 563 1161 576.5 1143.5 c 128,-1,22
 590 1126 590 1126 594 1122 c 2,23,-1
 805 840 l 2,24,25
 821 817 821 817 846 852 c 0,26,27
 1053 1126 1053 1126 1083 1171 c 0,28,29
 1106 1205 1106 1205 1106 1227 c 0,30,31
 1106 1265 1106 1265 1036 1266 c 2,32,-1
 987 1266 l 2,33,34
 956 1266 956 1266 949 1286.5 c 128,-1,35
 942 1307 942 1307 954 1319 c 0,36,37
 962 1331 962 1331 989 1331 c 0,38,39
 1101 1327 1101 1327 1207 1327 c 0,40,41
 1340 1327 1340 1327 1464 1333 c 0,42,43
 1480 1331 1480 1331 1486.5 1313.5 c 128,-1,44
 1493 1296 1493 1296 1487 1281 c 128,-1,45
 1481 1266 1481 1266 1466 1266 c 0,46,47
 1343 1260 1343 1260 1266.5 1198.5 c 128,-1,48
 1190 1137 1190 1137 1096 1012 c 2,49,-1
 897 748 l 2,50,51
 891 738 891 738 899 719 c 1,52,-1
 1260 248 l 2,53,54
 1348 133 1348 133 1376 113 c 0,55,56
 1429 74 1429 74 1554 59 c 0,57,58
 1573 58 1573 58 1573 25 c 0,59,60
 1573 -4 1573 -4 1552 -4 c 0,61,62
 1483 -1 1483 -1 1373 -1 c 0,63,64
 1226 -1 1226 -1 1006 -6 c 0,65,66
 977 -6 977 -6 971 4 c 0,67,68
 965 18 965 18 968 38.5 c 128,-1,69
 971 59 971 59 983 59 c 2,70,-1
 1004 59 l 2,71,72
 1113 59 1113 59 1112 102 c 0,73,74
 1110 129 1110 129 1047 215 c 2,75,-1
 786 569 l 2,76,77
 780 573 780 573 767 569 c 128,-1,78
 754 565 754 565 745 555 c 2,79,-1
 459 197 l 2,80,81
 410 131 410 131 410 102 c 0,82,83
 410 59 410 59 535 59 c 2,84,-1
 553 59 l 2,85,86
 567 59 567 59 573.5 43 c 128,-1,87
 580 27 580 27 575.5 10.5 c 128,-1,88
 571 -6 571 -6 557 -6 c 0,89,90
 336 -2 336 -2 206 -2 c 0,91,92
 120 -2 120 -2 74 -4 c 0,93,94
 56 -4 56 -4 55.5 31 c 128,-1,95
 55 66 55 66 76 66 c 0,96,97
 164 72 164 72 215 93.5 c 128,-1,98
 266 115 266 115 311 174 c 0,99,100
 317 182 317 182 331.5 201.5 c 128,-1,101
 346 221 346 221 361.5 240.5 c 128,-1,102
 377 260 377 260 393 281 c 2,103,-1
 690 657 l 2,104,105
 694 661 694 661 696 672.5 c 128,-1,106
 698 684 698 684 694 688 c 2,107,-1
 395 1073 l 2,108,109
 299 1198 299 1198 253 1225.5 c 128,-1,110
 207 1253 207 1253 86 1255 c 0,111,112
 59 1255 59 1255 55 1274 c 0,0,1
EndSplineSet
Validated: 33
EndChar

StartChar: Y
Encoding: 89 89 60
Width: 1490
GlyphClass: 2
Flags: W
LayerCount: 2
Fore
SplineSet
32 1278 m 0,0,1
 31 1285 31 1285 31 1291 c 0,2,3
 31 1299 31 1299 33 1307 c 0,4,5
 35 1319 35 1319 41 1326 c 0,6,7
 46 1331 46 1331 52 1331 c 0,8,9
 53 1331 53 1331 55 1331 c 0,10,11
 252 1328 252 1328 390 1328 c 128,-1,12
 528 1328 528 1328 606 1331 c 0,13,14
 614 1331 614 1331 623.5 1314.5 c 128,-1,15
 633 1298 633 1298 628 1283 c 128,-1,16
 623 1268 623 1268 600 1268 c 0,17,18
 473 1268 473 1268 473 1227 c 0,19,20
 473 1198 473 1198 537 1100 c 2,21,-1
 811 678 l 2,22,23
 819 668 819 668 837.5 677 c 128,-1,24
 856 686 856 686 866 705 c 2,25,-1
 1085 1075 l 2,26,27
 1151 1184 1151 1184 1151 1212 c 0,28,29
 1151 1243 1151 1243 1127.5 1254.5 c 128,-1,30
 1104 1266 1104 1266 1034 1266 c 2,31,-1
 1014 1266 l 1,32,33
 996 1274 996 1274 998 1304 c 0,34,35
 999 1331 999 1331 1017 1331 c 0,36,37
 1019 1331 1019 1331 1020 1331 c 0,38,39
 1109 1328 1109 1328 1223.5 1328 c 128,-1,40
 1338 1328 1338 1328 1477 1331 c 0,41,42
 1495 1331 1495 1331 1495 1300 c 0,43,44
 1495 1265 1495 1265 1477 1266 c 0,45,46
 1373 1260 1373 1260 1307 1192 c 0,47,48
 1276 1159 1276 1159 1200 1032 c 2,49,-1
 897 518 l 1,50,51
 897 473 897 473 897 410.5 c 128,-1,52
 897 348 897 348 897 282.5 c 128,-1,53
 897 217 897 217 897 203 c 0,54,55
 897 144 897 144 922.5 111 c 128,-1,56
 948 78 948 78 1012 70 c 0,57,58
 1020 70 1020 70 1044.5 71 c 128,-1,59
 1069 72 1069 72 1079 68 c 0,60,61
 1104 62 1104 62 1104 27 c 128,-1,62
 1104 -8 1104 -8 1079 -8 c 0,63,64
 835 -4 835 -4 678 -4 c 0,65,66
 573 -4 573 -4 506 -6 c 0,67,68
 490 -6 490 -6 483.5 15.5 c 128,-1,69
 477 37 477 37 483 53 c 0,70,71
 491 73 491 73 526 74 c 0,72,73
 536 76 536 76 557 74 c 128,-1,74
 578 72 578 72 582 72 c 0,75,76
 691 78 691 78 696 203 c 0,77,78
 702 289 702 289 702 369 c 0,79,80
 702 433 702 433 698 494 c 1,81,-1
 324 1079 l 2,82,83
 252 1192 252 1192 204 1226 c 128,-1,84
 156 1260 156 1260 61 1264 c 0,85,86
 36 1264 36 1264 32 1278 c 0,0,1
EndSplineSet
Validated: 1
EndChar

StartChar: Z
Encoding: 90 90 61
Width: 1443
GlyphClass: 2
Flags: W
LayerCount: 2
Fore
SplineSet
74 31 m 0,0,1
 74 45 74 45 84 61 c 2,2,-1
 961 1204 l 2,3,4
 971 1218 971 1218 956.5 1225.5 c 128,-1,5
 942 1233 942 1233 930 1233 c 2,6,-1
 492 1233 l 2,7,8
 336 1233 336 1233 295 1199 c 128,-1,9
 254 1165 254 1165 236 1014 c 0,10,11
 236 1008 236 1008 223.5 1006 c 128,-1,12
 211 1004 211 1004 196.5 1009 c 128,-1,13
 182 1014 182 1014 178 1024 c 1,14,15
 178 1225 178 1225 188 1311 c 0,16,17
 192 1325 192 1325 233 1331 c 1,18,-1
 1208 1331 l 2,19,20
 1241 1331 1241 1331 1254.5 1315.5 c 128,-1,21
 1268 1300 1268 1300 1251 1268 c 1,22,-1
 383 145 l 2,23,24
 375 137 375 137 372 128 c 128,-1,25
 369 119 369 119 382 108.5 c 128,-1,26
 395 98 395 98 432 98 c 2,27,-1
 952 98 l 2,28,29
 1108 98 1108 98 1164.5 156.5 c 128,-1,30
 1221 215 1221 215 1237 375 c 2,31,-1
 1239 395 l 2,32,33
 1243 401 1243 401 1259.5 405.5 c 128,-1,34
 1276 410 1276 410 1289.5 407.5 c 128,-1,35
 1303 405 1303 405 1303 399 c 0,36,37
 1295 188 1295 188 1276 20 c 0,38,39
 1272 -4 1272 -4 1218 -4 c 0,40,41
 1216 -4 1216 -4 1214 -4 c 0,42,43
 1151 -4 1151 -4 920.5 -5 c 128,-1,44
 690 -6 690 -6 563 -6 c 0,45,46
 125 -6 125 -6 115 -4 c 0,47,48
 105 -4 105 -4 95.5 -2 c 128,-1,49
 86 0 86 0 79 9 c 0,50,51
 74 16 74 16 74 25 c 0,52,53
 74 28 74 28 74 31 c 0,0,1
EndSplineSet
Validated: 1
EndChar

StartChar: bracketleft
Encoding: 91 91 62
Width: 690
GlyphClass: 2
Flags: W
LayerCount: 2
Fore
SplineSet
213 -428 m 0,0,1
 201 467 201 467 213 1360 c 0,2,3
 213 1389 213 1389 222 1400 c 128,-1,4
 231 1411 231 1411 258 1413 c 0,5,6
 321 1419 321 1419 520 1413 c 0,7,8
 557 1413 557 1413 557 1399 c 2,9,-1
 557 1368 l 2,10,11
 557 1352 557 1352 541 1352 c 0,12,13
 418 1342 418 1342 401 1333 c 0,14,15
 376 1319 376 1319 377 1272 c 0,16,17
 369 438 369 438 377 -332 c 0,18,19
 377 -373 377 -373 393.5 -384 c 128,-1,20
 410 -395 410 -395 485 -401 c 2,21,-1
 535 -406 l 2,22,23
 549 -408 549 -408 553 -411 c 128,-1,24
 557 -414 557 -414 557 -428 c 2,25,-1
 557 -451 l 2,26,27
 557 -469 557 -469 518 -469 c 0,28,29
 432 -475 432 -475 260 -469 c 0,30,31
 213 -465 213 -465 213 -428 c 0,0,1
EndSplineSet
Validated: 33
EndChar

StartChar: backslash
Encoding: 92 92 63
Width: 980
GlyphClass: 2
Flags: W
LayerCount: 2
Fore
SplineSet
82 1350 m 2,0,1
 66 1381 66 1381 141 1380 c 2,2,-1
 184 1380 l 2,3,4
 188 1380 188 1380 196.5 1380 c 128,-1,5
 205 1380 205 1380 207 1380 c 128,-1,6
 209 1380 209 1380 214 1379 c 128,-1,7
 219 1378 219 1378 221 1377 c 128,-1,8
 223 1376 223 1376 226 1372 c 128,-1,9
 229 1368 229 1368 232.5 1363 c 128,-1,10
 236 1358 236 1358 240 1350 c 2,11,-1
 893 18 l 2,12,13
 913 -25 913 -25 877 -29 c 2,14,-1
 791 -39 l 2,15,16
 764 -43 764 -43 750 -12 c 0,17,18
 748 -8 748 -8 745 -6 c 2,19,-1
 82 1350 l 2,0,1
EndSplineSet
Validated: 33
EndChar

StartChar: bracketright
Encoding: 93 93 64
Width: 702
GlyphClass: 2
Flags: W
LayerCount: 2
Fore
SplineSet
66 -428 m 2,0,1
 66 -412 66 -412 76 -405.5 c 128,-1,2
 86 -399 86 -399 111 -401 c 2,3,-1
 137 -401 l 1,4,5
 211 -395 211 -395 228.5 -384 c 128,-1,6
 246 -373 246 -373 246 -330 c 0,7,8
 254 442 254 442 246 1276 c 0,9,10
 246 1323 246 1323 221 1335 c 0,11,12
 209 1341 209 1341 137 1348 c 2,13,-1
 82 1352 l 2,14,15
 66 1352 66 1352 66 1368 c 2,16,-1
 66 1399 l 2,17,18
 66 1413 66 1413 90 1413 c 2,19,-1
 102 1413 l 1,20,-1
 365 1413 l 2,21,22
 392 1411 392 1411 401 1401 c 128,-1,23
 410 1391 410 1391 410 1360 c 0,24,25
 424 338 424 338 410 -428 c 0,26,27
 410 -465 410 -465 362 -469 c 0,28,29
 190 -475 190 -475 104 -469 c 0,30,31
 65 -469 65 -469 66 -451 c 2,32,-1
 66 -428 l 2,0,1
EndSplineSet
Validated: 33
EndChar

StartChar: asciicircum
Encoding: 94 94 65
Width: 1005
GlyphClass: 2
Flags: W
LayerCount: 2
Fore
SplineSet
46 710.5 m 128,-1,1
 47 721 47 721 57 737 c 0,2,3
 284 1145 284 1145 485 1456 c 1,4,-1
 530 1456 l 1,5,6
 786 1038 786 1038 958 729 c 0,7,8
 981 692 981 692 938 688 c 2,9,-1
 897 684 l 2,10,11
 862 680 862 680 842 719 c 0,12,13
 690 989 690 989 528 1247 c 0,14,15
 505 1284 505 1284 487 1253 c 0,16,17
 374 1079 374 1079 166 711 c 0,18,19
 152 684 152 684 113 684 c 0,20,21
 109 684 109 684 91.5 685 c 128,-1,22
 74 686 74 686 67.5 688 c 128,-1,23
 61 690 61 690 53 695 c 128,-1,0
 45 700 45 700 46 710.5 c 128,-1,1
EndSplineSet
Validated: 33
EndChar

StartChar: underscore
Encoding: 95 95 66
Width: 1071
GlyphClass: 2
Flags: W
LayerCount: 2
Fore
SplineSet
-20 -383 m 2,0,1
 -20 -375 -20 -375 -14 -371 c 128,-1,2
 -8 -367 -8 -367 7.5 -366 c 128,-1,3
 23 -365 23 -365 38 -366 c 128,-1,4
 53 -367 53 -367 78.5 -368 c 128,-1,5
 104 -369 104 -369 125 -369 c 2,6,-1
 930 -369 l 2,7,8
 934 -369 934 -369 964.5 -368 c 128,-1,9
 995 -367 995 -367 1017.5 -367 c 128,-1,10
 1040 -367 1040 -367 1057 -367 c 0,11,12
 1098 -367 1098 -367 1098 -391 c 2,13,-1
 1098 -451 l 2,14,15
 1098 -471 1098 -471 1077 -475 c 1,16,-1
 1034 -475 l 1,17,-1
 57 -475 l 2,18,19
 -21 -475 -21 -475 -20 -438 c 2,20,-1
 -20 -383 l 2,0,1
EndSplineSet
Validated: 33
EndChar

StartChar: grave
Encoding: 96 96 67
Width: 712
GlyphClass: 2
Flags: W
LayerCount: 2
Fore
SplineSet
143 1307 m 0,0,1
 133 1317 133 1317 143.5 1331.5 c 128,-1,2
 154 1346 154 1346 172 1346 c 2,3,-1
 330 1348 l 2,4,5
 359 1348 359 1348 369 1331 c 0,6,7
 428 1175 428 1175 469 997 c 0,8,9
 471 979 471 979 450.5 975 c 128,-1,10
 430 971 430 971 418 983 c 0,11,12
 309 1124 309 1124 143 1307 c 0,0,1
EndSplineSet
Validated: 1
EndChar

StartChar: a
Encoding: 97 97 68
Width: 847
GlyphClass: 2
Flags: W
LayerCount: 2
Fore
SplineSet
51 160 m 0,0,1
 51 312 51 312 268 369 c 0,2,3
 350 392 350 392 463 444 c 0,4,5
 486 458 486 458 485 481 c 2,6,-1
 483 612 l 2,7,8
 479 796 479 796 344 797 c 0,9,10
 309 797 309 797 268 767 c 128,-1,11
 227 737 227 737 227 705 c 0,12,13
 227 670 227 670 233 655 c 1,14,15
 223 645 223 645 175 621.5 c 128,-1,16
 127 598 127 598 111 594 c 0,17,18
 84 584 84 584 73.5 590 c 128,-1,19
 63 596 63 596 63 625 c 0,20,21
 63 701 63 701 193 799 c 1,22,23
 297 883 297 883 385 883 c 0,24,25
 451 883 451 883 515.5 850 c 128,-1,26
 580 817 580 817 614 766 c 0,27,28
 639 733 639 733 644 703.5 c 128,-1,29
 649 674 649 674 649 575 c 2,30,-1
 649 203 l 2,31,32
 649 142 649 142 659.5 122 c 128,-1,33
 670 102 670 102 694.5 102 c 128,-1,34
 719 102 719 102 731 109 c 0,35,36
 756 117 756 117 780 139 c 0,37,38
 790 145 790 145 799 145 c 0,39,40
 819 141 819 141 819 121 c 0,41,42
 819 110 819 110 813 94 c 1,43,44
 678 -25 678 -25 596 -25 c 0,45,46
 508 -25 508 -25 489 82 c 1,47,48
 483 88 483 88 481 88 c 128,-1,49
 479 88 479 88 469 80 c 2,50,-1
 459 72 l 2,51,52
 393 15 393 15 350 -5 c 128,-1,53
 307 -25 307 -25 250 -25 c 0,54,55
 162 -25 162 -25 106.5 26.5 c 128,-1,56
 51 78 51 78 51 160 c 0,0,1
241.5 106.5 m 128,-1,58
 274 74 274 74 322 74 c 0,59,60
 355 74 355 74 413 111.5 c 128,-1,61
 471 149 471 149 483 182 c 1,62,-1
 483 334 l 2,63,64
 483 340 483 340 483 345 c 128,-1,65
 483 350 483 350 481 360.5 c 128,-1,66
 479 371 479 371 475 375 c 0,67,68
 473 377 473 377 470.5 377 c 128,-1,69
 468 377 468 377 465 375 c 0,70,71
 418 352 418 352 319 311 c 0,72,73
 209 266 209 266 209 187 c 0,74,57
 209 139 209 139 241.5 106.5 c 128,-1,58
EndSplineSet
Validated: 1
EndChar

StartChar: b
Encoding: 98 98 69
Width: 1005
GlyphClass: 2
Flags: W
LayerCount: 2
Fore
SplineSet
16 1371.5 m 128,-1,1
 16 1395 16 1395 31 1399 c 2,2,-1
 281 1483 l 2,3,4
 293 1487 293 1487 301.5 1487 c 128,-1,5
 310 1487 310 1487 314 1483 c 0,6,7
 322 1475 322 1475 319 1448 c 0,8,9
 316 1342 316 1342 316 1177 c 128,-1,10
 316 1012 316 1012 319 788 c 1,11,12
 325 741 325 741 336 739 c 0,13,14
 338 739 338 739 340 741 c 0,15,16
 344 745 344 745 363.5 758.5 c 128,-1,17
 383 772 383 772 391 778 c 128,-1,18
 399 784 399 784 418.5 797.5 c 128,-1,19
 438 811 438 811 449.5 817 c 128,-1,20
 461 823 461 823 479.5 833.5 c 128,-1,21
 498 844 498 844 512 850 c 128,-1,22
 526 856 526 856 542.5 861 c 128,-1,23
 559 866 559 866 574.5 869 c 128,-1,24
 590 872 590 872 604 872 c 0,25,26
 741 872 741 872 836.5 751.5 c 128,-1,27
 932 631 932 631 932 463 c 0,28,29
 932 250 932 250 802 109.5 c 128,-1,30
 672 -31 672 -31 467 -31 c 0,31,32
 363 -31 363 -31 186 8 c 0,33,34
 170 14 170 14 166 45 c 1,35,36
 169 299 169 299 169 591.5 c 128,-1,37
 169 884 169 884 166 1214 c 0,38,39
 166 1234 166 1234 165 1259 c 128,-1,40
 164 1284 164 1284 164 1288 c 0,41,42
 162 1321 162 1321 119 1327 c 0,43,44
 105 1329 105 1329 75 1334 c 128,-1,45
 45 1339 45 1339 30.5 1343.5 c 128,-1,0
 16 1348 16 1348 16 1371.5 c 128,-1,1
317 444 m 0,46,47
 317 264 317 264 334 197 c 0,48,49
 350 134 350 134 399.5 94.5 c 128,-1,50
 449 55 449 55 520 55 c 0,51,52
 635 55 635 55 706.5 151.5 c 128,-1,53
 778 248 778 248 778 403.5 c 128,-1,54
 778 559 778 559 706.5 657.5 c 128,-1,55
 635 756 635 756 526 756 c 0,56,57
 460 756 460 756 319 653 c 0,58,59
 319 649 319 649 318 574.5 c 128,-1,60
 317 500 317 500 317 444 c 0,46,47
EndSplineSet
Validated: 1
EndChar

StartChar: c
Encoding: 99 99 70
Width: 864
GlyphClass: 2
Flags: W
LayerCount: 2
Fore
SplineSet
51 395 m 0,0,1
 51 600 51 600 195.5 742.5 c 128,-1,2
 340 885 340 885 547 885 c 0,3,4
 647 885 647 885 719 848 c 128,-1,5
 791 811 791 811 791 754 c 0,6,7
 791 721 791 721 769.5 699.5 c 128,-1,8
 748 678 748 678 717 678 c 0,9,10
 664 678 664 678 590 750 c 0,11,12
 533 807 533 807 473 807 c 0,13,14
 371 807 371 807 293 698.5 c 128,-1,15
 215 590 215 590 215 442 c 0,16,17
 215 284 215 284 295 185 c 128,-1,18
 375 86 375 86 498 86 c 0,19,20
 645 86 645 86 739 223 c 1,21,22
 749 254 749 254 774 248 c 0,23,24
 780 246 780 246 782 244 c 128,-1,25
 784 242 784 242 786.5 237.5 c 128,-1,26
 789 233 789 233 791 229 c 0,27,28
 798 224 798 224 798 215 c 0,29,30
 798 205 798 205 788 190 c 0,31,32
 651 -25 651 -25 426 -25 c 0,33,34
 264 -25 264 -25 157.5 94 c 128,-1,35
 51 213 51 213 51 395 c 0,0,1
EndSplineSet
Validated: 1
EndChar

StartChar: d
Encoding: 100 100 71
Width: 1050
GlyphClass: 2
Flags: W
LayerCount: 2
Fore
SplineSet
47 391 m 0,0,1
 47 596 47 596 179 735 c 128,-1,2
 311 874 311 874 508 874 c 0,3,4
 580 874 580 874 678 842 c 0,5,6
 686 840 686 840 693 856 c 128,-1,7
 700 872 700 872 700 893 c 0,8,9
 703 961 703 961 703 1063.5 c 128,-1,10
 703 1166 703 1166 700 1305 c 1,11,12
 690 1334 690 1334 684 1337 c 0,13,14
 672 1345 672 1345 653.5 1347.5 c 128,-1,15
 635 1350 635 1350 609.5 1351 c 128,-1,16
 584 1352 584 1352 573 1354 c 0,17,18
 553 1358 553 1358 551 1368 c 0,19,20
 547 1388 547 1388 549 1397 c 0,21,22
 553 1413 553 1413 569 1415 c 0,23,24
 712 1460 712 1460 827 1503 c 0,25,26
 835 1506 835 1506 840 1506 c 0,27,28
 848 1506 848 1506 854 1500 c 0,29,30
 862 1489 862 1489 862 1466 c 2,31,-1
 862 240 l 2,32,33
 862 158 862 158 872.5 140.5 c 128,-1,34
 883 123 883 123 918 123 c 0,35,36
 926 123 926 123 963 135 c 0,37,38
 965 135 965 135 974 138 c 128,-1,39
 983 141 983 141 988 142 c 128,-1,40
 993 143 993 143 1000.5 143 c 128,-1,41
 1008 143 1008 143 1013 139 c 128,-1,42
 1018 135 1018 135 1020 127 c 0,43,44
 1025 111 1025 111 1025 101 c 0,45,46
 1025 85 1025 85 1014 80 c 0,47,48
 877 12 877 12 737 -23 c 0,49,50
 723 -29 723 -29 714 -22.5 c 128,-1,51
 705 -16 705 -16 701.5 -3 c 128,-1,52
 698 10 698 10 698 22.5 c 128,-1,53
 698 35 698 35 700 49 c 2,54,-1
 700 66 l 2,55,56
 700 80 700 80 694 91 c 128,-1,57
 688 102 688 102 678 96 c 0,58,59
 494 -31 494 -31 389 -31 c 0,60,61
 246 -31 246 -31 146.5 93 c 128,-1,62
 47 217 47 217 47 391 c 0,0,1
211 455 m 0,63,64
 211 297 211 297 283.5 191.5 c 128,-1,65
 356 86 356 86 465 86 c 0,66,67
 553 86 553 86 678 170 c 0,68,69
 694 178 694 178 698 217 c 1,70,-1
 698 637 l 1,71,72
 589 793 589 793 463 793 c 0,73,74
 350 793 350 793 280.5 699.5 c 128,-1,75
 211 606 211 606 211 455 c 0,63,64
EndSplineSet
Validated: 1
EndChar

StartChar: e
Encoding: 101 101 72
Width: 876
GlyphClass: 2
Flags: W
LayerCount: 2
Fore
SplineSet
53 414 m 0,0,1
 53 615 53 615 173 747 c 128,-1,2
 293 879 293 879 473 879 c 0,3,4
 680 879 680 879 768 698 c 2,5,-1
 784 664 l 2,6,7
 796 633 796 633 825 598 c 0,8,9
 828 589 828 589 828 577 c 0,10,11
 828 572 828 572 827 566 c 0,12,13
 825 548 825 548 799 547 c 0,14,15
 720 544 720 544 583 544 c 128,-1,16
 446 544 446 544 250 547 c 0,17,18
 213 547 213 547 211 526 c 0,19,20
 207 503 207 503 207 465 c 0,21,22
 207 307 207 307 295 203.5 c 128,-1,23
 383 100 383 100 514 100 c 0,24,25
 657 100 657 100 768 231 c 0,26,27
 778 245 778 245 799 242 c 0,28,29
 811 238 811 238 818 223.5 c 128,-1,30
 825 209 825 209 819 199 c 0,31,32
 751 119 751 119 674 57 c 0,33,34
 559 -31 559 -31 432 -31 c 0,35,36
 270 -31 270 -31 161.5 98 c 128,-1,37
 53 227 53 227 53 414 c 0,0,1
229 627 m 0,38,39
 228 622 228 622 240 618 c 0,40,41
 254 612 254 612 262 612 c 2,42,-1
 569 612 l 2,43,44
 585 612 585 612 602.5 618.5 c 128,-1,45
 620 625 620 625 618 637 c 0,46,47
 595 721 595 721 544.5 768 c 128,-1,48
 494 815 494 815 428 815 c 0,49,50
 229 815 229 815 229 627 c 0,38,39
EndSplineSet
Validated: 1
EndChar

StartChar: f
Encoding: 102 102 73
Width: 657
GlyphClass: 2
Flags: W
LayerCount: 2
Fore
SplineSet
35 756.5 m 128,-1,1
 35 784 35 784 45 791 c 1,2,3
 139 811 139 811 199 846 c 1,4,5
 199 854 199 854 203 956 c 0,6,7
 209 1081 209 1081 238.5 1160 c 128,-1,8
 268 1239 268 1239 348 1325 c 0,9,10
 498 1489 498 1489 670 1489 c 0,11,12
 727 1489 727 1489 795.5 1464.5 c 128,-1,13
 864 1440 864 1440 893 1397 c 0,14,15
 899 1388 899 1388 899 1374 c 0,16,17
 899 1354 899 1354 858 1288 c 0,18,19
 844 1268 844 1268 828.5 1266 c 128,-1,20
 813 1264 813 1264 804 1269 c 128,-1,21
 795 1274 795 1274 774 1290 c 0,22,23
 676 1370 676 1370 578 1370 c 0,24,25
 515 1370 515 1370 462.5 1333 c 128,-1,26
 410 1296 410 1296 389 1235 c 0,27,28
 360 1156 360 1156 360 1046 c 0,29,30
 360 1039 360 1039 360 1032 c 2,31,-1
 362 891 l 2,32,33
 362 850 362 850 393 850 c 2,34,-1
 545 850 l 2,35,36
 570 850 570 850 573 831 c 2,37,-1
 588 739 l 1,38,39
 584 723 584 723 563 723 c 2,40,-1
 389 725 l 2,41,42
 379 725 379 725 370.5 716 c 128,-1,43
 362 707 362 707 362 698 c 2,44,-1
 362 262 l 2,45,46
 362 119 362 119 382 94 c 0,47,48
 400 70 400 70 489 70 c 0,49,50
 497 70 497 70 504 70 c 2,51,-1
 573 70 l 2,52,53
 596 68 596 68 600 27 c 0,54,55
 600 -6 600 -6 582 -6 c 0,56,57
 426 -1 426 -1 297 -1 c 128,-1,58
 168 -1 168 -1 66 -6 c 0,59,60
 50 -6 50 -6 49 27 c 0,61,62
 49 43 49 43 53 49 c 0,63,64
 59 63 59 63 90 63 c 0,65,66
 162 63 162 63 180.5 101 c 128,-1,67
 199 139 199 139 199 270 c 2,68,-1
 199 696 l 1,69,70
 193 725 193 725 174 729 c 1,71,-1
 45 729 l 2,72,0
 35 729 35 729 35 756.5 c 128,-1,1
EndSplineSet
Validated: 1
EndChar

StartChar: g
Encoding: 103 103 74
Width: 989
GlyphClass: 2
Flags: W
LayerCount: 2
Fore
SplineSet
55 -287 m 0,0,1
 55 -217 55 -217 86 -172 c 128,-1,2
 117 -127 117 -127 180 -86 c 0,3,4
 188 -80 188 -80 196.5 -75 c 128,-1,5
 205 -70 205 -70 214 -64.5 c 128,-1,6
 223 -59 223 -59 229 -55 c 0,7,8
 239 -47 239 -47 243.5 -36 c 128,-1,9
 248 -25 248 -25 240 -20 c 0,10,11
 97 31 97 31 96 131 c 0,12,13
 96 172 96 172 182 219 c 0,14,15
 196 227 196 227 216 238.5 c 128,-1,16
 236 250 236 250 246 256 c 2,17,-1
 254 262 l 2,18,19
 264 268 264 268 269 274.5 c 128,-1,20
 274 281 274 281 270 283 c 0,21,22
 109 364 109 364 109 535 c 0,23,24
 109 682 109 682 208 780.5 c 128,-1,25
 307 879 307 879 453 879 c 0,26,27
 590 879 590 879 670 793 c 1,28,-1
 686 793 l 2,29,30
 727 793 727 793 872 815 c 0,31,32
 895 819 895 819 902 814 c 128,-1,33
 909 809 909 809 911 786 c 0,34,35
 918 726 918 726 918 694 c 0,36,37
 918 690 918 690 918 686 c 0,38,39
 914 659 914 659 897 659 c 0,40,41
 870 659 870 659 770 674 c 0,42,43
 766 676 766 676 757 669 c 128,-1,44
 748 662 748 662 750 657 c 0,45,46
 768 612 768 612 768 555 c 0,47,48
 768 418 768 418 669.5 331 c 128,-1,49
 571 244 571 244 422 244 c 0,50,51
 381 244 381 244 338 256 c 1,52,53
 334 250 334 250 281 203 c 0,54,55
 242 170 242 170 242 150 c 0,56,57
 242 136 242 136 250 125.5 c 128,-1,58
 258 115 258 115 318.5 103.5 c 128,-1,59
 379 92 379 92 496 92 c 0,60,61
 725 88 725 88 819 45 c 0,62,63
 924 -2 924 -2 924 -143 c 0,64,65
 924 -299 924 -299 765 -405.5 c 128,-1,66
 606 -512 606 -512 385 -512 c 0,67,68
 270 -512 270 -512 162.5 -448.5 c 128,-1,69
 55 -385 55 -385 55 -287 c 0,0,1
205 -231 m 0,70,71
 203 -309 203 -309 292 -358.5 c 128,-1,72
 381 -408 381 -408 498 -408 c 0,73,74
 600 -408 600 -408 701.5 -341.5 c 128,-1,75
 803 -275 803 -275 803 -199 c 0,76,77
 803 -127 803 -127 752.5 -93 c 128,-1,78
 702 -59 702 -59 575 -49 c 0,79,80
 526 -45 526 -45 451.5 -45 c 128,-1,81
 377 -45 377 -45 338 -43 c 1,82,83
 334 -51 334 -51 311 -74 c 0,84,85
 205 -180 205 -180 205 -231 c 0,70,71
260 582 m 0,86,87
 260 459 260 459 312.5 387 c 128,-1,88
 365 315 365 315 444 315 c 0,89,90
 522 315 522 315 569 376 c 128,-1,91
 616 437 616 437 616 543 c 0,92,93
 616 660 616 660 562 735.5 c 128,-1,94
 508 811 508 811 428 811 c 0,95,96
 356 811 356 811 308 745.5 c 128,-1,97
 260 680 260 680 260 582 c 0,86,87
EndSplineSet
Validated: 33
EndChar

StartChar: h
Encoding: 104 104 75
Width: 1077
GlyphClass: 2
Flags: W
LayerCount: 2
Fore
SplineSet
41 57 m 0,0,1
 43 59 43 59 84 68 c 1,2,3
 154 72 154 72 172 106.5 c 128,-1,4
 190 141 190 141 190 270 c 2,5,-1
 190 1206 l 1,6,-1
 188 1284 l 2,7,8
 188 1329 188 1329 137 1337 c 0,9,10
 123 1339 123 1339 95.5 1342.5 c 128,-1,11
 68 1346 68 1346 53 1348 c 0,12,13
 41 1350 41 1350 39 1374.5 c 128,-1,14
 37 1399 37 1399 53 1405 c 0,15,16
 145 1442 145 1442 315 1491 c 0,17,18
 321 1493 321 1493 326 1493 c 0,19,20
 336 1493 336 1493 342 1487 c 0,21,22
 352 1477 352 1477 352 1446 c 2,23,-1
 352 815 l 2,24,25
 352 801 352 801 359.5 785.5 c 128,-1,26
 367 770 367 770 377 776 c 0,27,28
 459 827 459 827 520.5 850.5 c 128,-1,29
 582 874 582 874 664 874 c 0,30,31
 836 874 836 874 881 729 c 0,32,33
 904 661 904 661 907 502 c 0,34,35
 907 453 907 453 903 362.5 c 128,-1,36
 899 272 899 272 899 266 c 0,37,38
 895 176 895 176 895 131 c 0,39,40
 895 92 895 92 918.5 81 c 128,-1,41
 942 70 942 70 1024 70 c 0,42,43
 1044 70 1044 70 1048.5 62 c 128,-1,44
 1053 54 1053 54 1055 29 c 0,45,46
 1056 23 1056 23 1056 18 c 0,47,48
 1056 -4 1056 -4 1042 -4 c 0,49,50
 967 -5 967 -5 879 -5 c 0,51,52
 835 -5 835 -5 788 -5 c 0,53,54
 647 -4 647 -4 606 -4 c 0,55,56
 573 -4 573 -4 573 31 c 1,57,58
 569 64 569 64 590 63 c 2,59,-1
 602 63 l 2,60,61
 674 63 674 63 698.5 82.5 c 128,-1,62
 723 102 723 102 729 160 c 0,63,64
 743 283 743 283 743 440 c 0,65,66
 743 575 743 575 732 628.5 c 128,-1,67
 721 682 721 682 690 717 c 0,68,69
 641 770 641 770 563 770 c 0,70,71
 524 770 524 770 485 756.5 c 128,-1,72
 446 743 446 743 429 734 c 128,-1,73
 412 725 412 725 362 694 c 0,74,75
 352 688 352 688 352 672 c 2,76,-1
 352 182 l 2,77,78
 352 104 352 104 373.5 83.5 c 128,-1,79
 395 63 395 63 463 63 c 0,80,81
 492 63 492 63 494 47 c 0,82,83
 494 29 494 29 496 20 c 0,84,85
 496 8 496 8 488 0 c 0,86,87
 482 -6 482 -6 475 -6 c 0,88,89
 473 -6 473 -6 471 -6 c 0,90,91
 445 -5 445 -5 393.5 -5 c 128,-1,92
 342 -5 342 -5 265.5 -6 c 128,-1,93
 189 -7 189 -7 136 -7 c 128,-1,94
 83 -7 83 -7 53 -6 c 0,95,96
 52 -6 52 -6 51 -6 c 0,97,98
 44 -6 44 -6 39 4 c 128,-1,99
 34 14 34 14 34 28 c 0,100,101
 34 47 34 47 41 57 c 0,0,1
EndSplineSet
Validated: 1
EndChar

StartChar: i
Encoding: 105 105 76
Width: 544
GlyphClass: 2
Flags: W
LayerCount: 2
Fore
SplineSet
41 12 m 2,0,1
 41 16 41 16 41 21.5 c 128,-1,2
 41 27 41 27 41 30 c 2,3,-1
 41 41 l 2,4,5
 41 52 41 52 49 58 c 0,6,7
 59 66 59 66 72 68 c 0,8,9
 82 70 82 70 93 68 c 128,-1,10
 104 66 104 66 115 68 c 0,11,12
 178 76 178 76 191.5 104.5 c 128,-1,13
 205 133 205 133 205 256 c 2,14,-1
 205 623 l 2,15,16
 205 699 205 699 196.5 713 c 128,-1,17
 188 727 188 727 150 735 c 0,18,19
 103 745 103 745 66 758 c 0,20,21
 56 760 56 760 54.5 781.5 c 128,-1,22
 53 803 53 803 63 809 c 0,23,24
 79 815 79 815 137 837.5 c 128,-1,25
 195 860 195 860 241 876.5 c 128,-1,26
 287 893 287 893 313 899 c 1,27,28
 336 909 336 909 347 899 c 128,-1,29
 358 889 358 889 361.5 877.5 c 128,-1,30
 365 866 365 866 365 846 c 2,31,-1
 365 256 l 2,32,33
 365 178 365 178 367 150 c 0,34,35
 369 95 369 95 386 82.5 c 128,-1,36
 403 70 403 70 469 70 c 1,37,38
 479 74 479 74 491.5 65.5 c 128,-1,39
 504 57 504 57 506 47 c 0,40,41
 506 45 506 45 505 38 c 128,-1,42
 504 31 504 31 504 27 c 0,43,44
 504 -6 504 -6 475 -6 c 0,45,46
 339 -3 339 -3 236.5 -3 c 128,-1,47
 134 -3 134 -3 66 -6 c 0,48,49
 48 -6 48 -6 43 10 c 1,50,-1
 41 12 l 2,0,1
152 1255 m 128,-1,52
 152 1300 152 1300 182.5 1331 c 128,-1,53
 213 1362 213 1362 258 1362 c 0,54,55
 307 1362 307 1362 338 1332 c 128,-1,56
 369 1302 369 1302 369 1255 c 0,57,58
 369 1210 369 1210 336 1180.5 c 128,-1,59
 303 1151 303 1151 256 1151 c 128,-1,60
 209 1151 209 1151 180.5 1180.5 c 128,-1,51
 152 1210 152 1210 152 1255 c 128,-1,52
EndSplineSet
Validated: 1
EndChar

StartChar: j
Encoding: 106 106 77
Width: 505
GlyphClass: 2
Flags: W
LayerCount: 2
Fore
SplineSet
-219 -381 m 0,0,1
 -219 -338 -219 -338 -197.5 -305 c 128,-1,2
 -176 -272 -176 -272 -145 -272 c 0,3,4
 -112 -272 -112 -272 -61 -334 c 0,5,6
 -5 -399 -5 -399 57 -399 c 0,7,8
 58 -399 58 -399 59 -399 c 0,9,10
 127 -399 127 -399 158.5 -342 c 128,-1,11
 190 -285 190 -285 190 -154 c 2,12,-1
 190 -27 l 1,13,-1
 190 631 l 2,14,15
 190 697 190 697 187 712 c 128,-1,16
 184 727 184 727 170 735 c 0,17,18
 152 745 152 745 113 752 c 0,19,20
 101 756 101 756 78 760 c 128,-1,21
 55 764 55 764 49 766 c 0,22,23
 41 770 41 770 41 791.5 c 128,-1,24
 41 813 41 813 49 817 c 0,25,26
 164 866 164 866 303 911 c 0,27,28
 326 919 326 919 337 905 c 128,-1,29
 348 891 348 891 348 870 c 2,30,-1
 348 51 l 2,31,32
 348 -84 348 -84 341 -146.5 c 128,-1,33
 334 -209 334 -209 307 -272 c 0,34,35
 276 -344 276 -344 223 -401 c 0,36,37
 133 -499 133 -499 -18 -500 c 0,38,39
 -106 -500 -106 -500 -162.5 -466 c 128,-1,40
 -219 -432 -219 -432 -219 -381 c 0,0,1
127 1235 m 128,-1,42
 127 1280 127 1280 160 1309.5 c 128,-1,43
 193 1339 193 1339 240 1339 c 0,44,45
 289 1339 289 1339 319.5 1309.5 c 128,-1,46
 350 1280 350 1280 350 1235 c 128,-1,47
 350 1190 350 1190 318.5 1159 c 128,-1,48
 287 1128 287 1128 240 1128 c 0,49,50
 191 1128 191 1128 159 1159 c 128,-1,41
 127 1190 127 1190 127 1235 c 128,-1,42
EndSplineSet
Validated: 1
EndChar

StartChar: k
Encoding: 107 107 78
Width: 1060
GlyphClass: 2
Flags: W
LayerCount: 2
Fore
SplineSet
31 1367 m 128,-1,1
 31 1391 31 1391 43 1395 c 0,2,3
 102 1409 102 1409 174 1438.5 c 128,-1,4
 246 1468 246 1468 283 1479 c 0,5,6
 292 1481 292 1481 299 1481 c 0,7,8
 328 1481 328 1481 328 1444 c 2,9,-1
 330 571 l 2,10,11
 330 540 330 540 371 565 c 2,12,-1
 588 723 l 2,13,14
 641 762 641 762 641 772 c 0,15,16
 641 797 641 797 549 797 c 1,17,18
 524 809 524 809 526 834 c 0,19,20
 528 850 528 850 533.5 856 c 128,-1,21
 539 862 539 862 555 862 c 0,22,23
 609 861 609 861 669 861 c 0,24,25
 790 861 790 861 936 864 c 0,26,27
 956 864 956 864 956 831 c 0,28,29
 956 796 956 796 944 797 c 0,30,31
 811 795 811 795 692 702 c 0,32,33
 549 596 549 596 475 545 c 0,34,35
 461 531 461 531 483 508 c 0,36,37
 729 254 729 254 854 129 c 0,38,39
 895 88 895 88 920.5 73.5 c 128,-1,40
 946 59 946 59 995 59 c 2,41,-1
 1016 59 l 1,42,43
 1026 55 1026 55 1029 39 c 0,44,45
 1030 32 1030 32 1030 26 c 0,46,47
 1030 16 1030 16 1028 8 c 0,48,49
 1024 -6 1024 -6 1016 -6 c 0,50,51
 924 -1 924 -1 813 -1 c 128,-1,52
 702 -1 702 -1 571 -6 c 0,53,54
 555 -6 555 -6 555 29 c 0,55,56
 555 49 555 49 560 54 c 128,-1,57
 565 59 565 59 586 59 c 0,58,59
 657 59 657 59 657 87 c 0,60,61
 657 100 657 100 610 152 c 2,62,-1
 346 432 l 2,63,64
 334 440 334 440 332 420 c 0,65,66
 330 412 330 412 330 399 c 2,67,-1
 330 254 l 2,68,69
 330 111 330 111 344 86 c 128,-1,70
 358 61 358 61 440 61 c 2,71,-1
 465 61 l 2,72,73
 481 61 481 61 481 27 c 0,74,75
 481 12 481 12 477 2 c 0,76,77
 474 -7 474 -7 467 -6 c 0,78,79
 466 -6 466 -6 465 -6 c 0,80,81
 355 -4 355 -4 250.5 -4 c 128,-1,82
 146 -4 146 -4 47 -6 c 0,83,84
 33 -6 33 -6 33 27 c 0,85,86
 31 50 31 50 36 56.5 c 128,-1,87
 41 63 41 63 63 63 c 0,88,89
 137 63 137 63 152.5 95 c 128,-1,90
 168 127 168 127 168 270 c 2,91,-1
 168 1174 l 2,92,93
 168 1244 168 1244 166 1282 c 0,94,95
 164 1313 164 1313 96 1327 c 0,96,97
 90 1329 90 1329 85 1330 c 128,-1,98
 80 1331 80 1331 75 1332 c 128,-1,99
 70 1333 70 1333 64.5 1334 c 128,-1,100
 59 1335 59 1335 56 1336 c 128,-1,101
 53 1337 53 1337 50 1338 c 128,-1,102
 47 1339 47 1339 45 1339 c 2,103,-1
 43 1339 l 1,104,0
 31 1343 31 1343 31 1367 c 128,-1,1
EndSplineSet
Validated: 1
EndChar

StartChar: l
Encoding: 108 108 79
Width: 536
GlyphClass: 2
Flags: W
LayerCount: 2
Fore
SplineSet
37 12 m 0,0,1
 33 25 33 25 33 35 c 0,2,3
 33 55 33 55 49 63 c 1,4,-1
 72 63 l 2,5,6
 152 63 152 63 174.5 89 c 128,-1,7
 197 115 197 115 197 199 c 2,8,-1
 197 1276 l 2,9,10
 197 1307 197 1307 164 1313 c 0,11,12
 146 1317 146 1317 112 1323 c 128,-1,13
 78 1329 78 1329 61 1331 c 0,14,15
 49 1335 49 1335 47 1358.5 c 128,-1,16
 45 1382 45 1382 61 1389 c 0,17,18
 198 1424 198 1424 332 1475 c 0,19,20
 333 1475 333 1475 335 1475 c 0,21,22
 345 1476 345 1476 352 1462 c 0,23,24
 360 1446 360 1446 360 1432 c 2,25,-1
 360 201 l 2,26,27
 360 109 360 109 376.5 86 c 128,-1,28
 393 63 393 63 467 63 c 0,29,30
 504 63 504 63 506 51 c 0,31,32
 506 49 506 49 506 44 c 128,-1,33
 506 39 506 39 506 34 c 128,-1,34
 506 29 506 29 506 27 c 0,35,36
 506 -6 506 -6 481 -6 c 0,37,38
 425 -8 425 -8 366 -8 c 0,39,40
 306 -8 306 -8 246 -6 c 0,41,42
 165 -3 165 -3 110 -3 c 0,43,44
 82 -3 82 -3 61 -4 c 0,45,46
 57 -4 57 -4 48 1 c 128,-1,47
 39 6 39 6 37 12 c 0,0,1
EndSplineSet
Validated: 1
EndChar

StartChar: m
Encoding: 109 109 80
Width: 1662
GlyphClass: 2
Flags: W
LayerCount: 2
Fore
SplineSet
35 8 m 0,0,1
 32 16 32 16 32 24 c 0,2,3
 32 36 32 36 37 49 c 0,4,5
 43 63 43 63 82 63 c 0,6,7
 150 67 150 67 170 103 c 128,-1,8
 190 139 190 139 190 270 c 2,9,-1
 190 563 l 2,10,11
 190 708 190 708 184 717 c 0,12,13
 174 740 174 740 100 750 c 2,14,-1
 53 756 l 2,15,16
 41 758 41 758 43 782.5 c 128,-1,17
 45 807 45 807 53 811 c 0,18,19
 141 852 141 852 322 899 c 0,20,21
 327 900 327 900 331 900 c 0,22,23
 341 900 341 900 346 893 c 0,24,25
 352 883 352 883 352 862 c 2,26,-1
 352 741 l 2,27,28
 354 721 354 721 379 739 c 0,29,30
 578 878 578 878 700 879 c 0,31,32
 770 879 770 879 822 839 c 128,-1,33
 874 799 874 799 897 729 c 0,34,35
 901 715 901 715 920 729 c 0,36,37
 992 780 992 780 1025.5 801.5 c 128,-1,38
 1059 823 1059 823 1125.5 851 c 128,-1,39
 1192 879 1192 879 1247 879 c 0,40,41
 1382 879 1382 879 1436 756 c 0,42,43
 1466 686 1466 686 1466 482 c 0,44,45
 1466 475 1466 475 1466 469 c 0,46,47
 1466 414 1466 414 1462 307.5 c 128,-1,48
 1458 201 1458 201 1458 145 c 0,49,50
 1458 96 1458 96 1482.5 82 c 128,-1,51
 1507 68 1507 68 1595 68 c 0,52,53
 1601 70 1601 70 1614.5 69 c 128,-1,54
 1628 68 1628 68 1634 63 c 0,55,56
 1643 59 1643 59 1643 40 c 0,57,58
 1643 34 1643 34 1642 25 c 0,59,60
 1642 12 1642 12 1636 2 c 0,61,62
 1631 -7 1631 -7 1625 -6 c 0,63,64
 1624 -6 1624 -6 1622 -6 c 0,65,66
 1564 -4 1564 -4 1450.5 -4 c 128,-1,67
 1337 -4 1337 -4 1167 -6 c 0,68,69
 1147 -6 1147 -6 1141 6 c 0,70,71
 1135 16 1135 16 1137 37.5 c 128,-1,72
 1139 59 1139 59 1155 59 c 2,73,-1
 1176 59 l 2,74,75
 1242 59 1242 59 1264 79.5 c 128,-1,76
 1286 100 1286 100 1292 166 c 0,77,78
 1302 305 1302 305 1303 453 c 0,79,80
 1303 643 1303 643 1272 708.5 c 128,-1,81
 1241 774 1241 774 1157 774 c 0,82,83
 1081 774 1081 774 907 655 c 1,84,-1
 907 182 l 2,85,86
 907 106 907 106 929.5 82.5 c 128,-1,87
 952 59 952 59 1020 59 c 0,88,89
 1036 59 1036 59 1041.5 53 c 128,-1,90
 1047 47 1047 47 1049 29 c 0,91,92
 1049 17 1049 17 1042.5 5.5 c 128,-1,93
 1036 -6 1036 -6 1028 -6 c 0,94,95
 874 -2 874 -2 752 -2 c 0,96,97
 670 -2 670 -2 602 -4 c 0,98,99
 584 -4 584 -4 582 23.5 c 128,-1,100
 580 51 580 51 598 59 c 0,101,102
 602 61 602 61 625 61 c 0,103,104
 705 61 705 61 726.5 96 c 128,-1,105
 748 131 748 131 748 270 c 2,106,-1
 748 604 l 2,107,108
 748 684 748 684 711 729 c 128,-1,109
 674 774 674 774 610 774 c 0,110,111
 528 774 528 774 352 655 c 1,112,-1
 352 182 l 2,113,114
 352 104 352 104 374.5 81.5 c 128,-1,115
 397 59 397 59 475 59 c 1,116,117
 489 63 489 63 494 59 c 0,118,119
 508 55 508 55 508 23 c 0,120,121
 506 12 506 12 500 2 c 0,122,123
 495 -7 495 -7 489 -6 c 0,124,125
 488 -6 488 -6 487 -6 c 0,126,127
 387 -2 387 -2 278.5 -2 c 128,-1,128
 170 -2 170 -2 53 -6 c 0,129,130
 39 -6 39 -6 35 8 c 0,0,1
EndSplineSet
Validated: 1
EndChar

StartChar: n
Encoding: 110 110 81
Width: 1056
GlyphClass: 2
Flags: W
LayerCount: 2
Fore
SplineSet
33 40 m 0,0,1
 37 60 37 60 51 59 c 2,2,-1
 63 59 l 2,3,4
 135 59 135 59 157.5 98 c 128,-1,5
 180 137 180 137 180 272 c 2,6,-1
 180 553 l 2,7,8
 180 703 180 703 172 719 c 0,9,10
 164 737 164 737 92 752 c 2,11,-1
 51 760 l 2,12,13
 41 762 41 762 41 786.5 c 128,-1,14
 41 811 41 811 51 815 c 0,15,16
 84 821 84 821 170 858 c 128,-1,17
 256 895 256 895 293 903 c 0,18,19
 303 905 303 905 310 905 c 0,20,21
 340 905 340 905 340 868 c 2,22,-1
 340 756 l 2,23,24
 340 750 340 750 347 737.5 c 128,-1,25
 354 725 354 725 362 731 c 0,26,27
 458 799 458 799 532 836 c 0,28,29
 618 877 618 877 676 877 c 0,30,31
 903 877 903 877 903 508 c 0,32,33
 903 447 903 447 895 324 c 128,-1,34
 887 201 887 201 887 137 c 0,35,36
 887 90 887 90 903.5 76.5 c 128,-1,37
 920 63 920 63 989 63 c 1,38,39
 1007 75 1007 75 1022 57 c 0,40,41
 1028 46 1028 46 1028 32 c 0,42,43
 1028 24 1028 24 1026 14 c 0,44,45
 1024 2 1024 2 1020 -1 c 128,-1,46
 1016 -4 1016 -4 1001 -4 c 0,47,48
 997 -4 997 -4 995 -4 c 0,49,50
 952 -4 952 -4 802 -3 c 0,51,52
 752 -3 752 -3 713 -3 c 0,53,54
 636 -3 636 -3 606 -4 c 0,55,56
 586 -4 586 -4 580.5 2 c 128,-1,57
 575 8 575 8 573 29 c 0,58,59
 573 64 573 64 590 63 c 2,60,-1
 604 63 l 1,61,62
 672 69 672 69 697.5 92 c 128,-1,63
 723 115 723 115 729 178 c 0,64,65
 741 297 741 297 741 539 c 0,66,67
 741 766 741 766 592 766 c 0,68,69
 496 766 496 766 340 645 c 1,70,-1
 340 182 l 2,71,72
 340 104 340 104 362.5 83.5 c 128,-1,73
 385 63 385 63 465 63 c 0,74,75
 479 63 479 63 483 29 c 0,76,77
 483 -4 483 -4 455 -6 c 0,78,79
 431 -5 431 -5 382.5 -5 c 128,-1,80
 334 -5 334 -5 260 -6 c 0,81,82
 211 -7 211 -7 173 -7 c 0,83,84
 96 -7 96 -7 63 -4 c 0,85,86
 38 -4 38 -4 35 6 c 0,87,88
 31 14 31 14 31 25 c 0,89,90
 31 32 31 32 33 40 c 0,0,1
EndSplineSet
Validated: 1
EndChar

StartChar: o
Encoding: 111 111 82
Width: 1030
GlyphClass: 2
Flags: W
LayerCount: 2
Fore
SplineSet
51 424 m 0,0,1
 51 621 51 621 183 751 c 128,-1,2
 315 881 315 881 512 881 c 0,3,4
 711 881 711 881 846 749 c 0,5,6
 979 619 979 619 979 428 c 0,7,8
 979 425 979 425 979 422 c 0,9,10
 979 232 979 232 846 100.5 c 128,-1,11
 713 -31 713 -31 518 -31 c 0,12,13
 319 -31 319 -31 185 99 c 128,-1,14
 51 229 51 229 51 424 c 0,0,1
229 489 m 0,15,16
 229 303 229 303 321.5 174 c 128,-1,17
 414 45 414 45 543 45 c 0,18,19
 652 45 652 45 724.5 137.5 c 128,-1,20
 797 230 797 230 797 373 c 0,21,22
 797 551 797 551 703.5 679 c 128,-1,23
 610 807 610 807 483 807 c 0,24,25
 374 807 374 807 301.5 717 c 128,-1,26
 229 627 229 627 229 489 c 0,15,16
EndSplineSet
Validated: 1
EndChar

StartChar: p
Encoding: 112 112 83
Width: 1030
GlyphClass: 2
Flags: W
LayerCount: 2
Fore
SplineSet
13 -522 m 0,0,1
 16 -500 16 -500 33 -500 c 2,2,-1
 51 -500 l 2,3,4
 137 -500 137 -500 159.5 -460 c 128,-1,5
 182 -420 182 -420 182 -270 c 2,6,-1
 182 578 l 1,7,-1
 182 627 l 2,8,9
 182 666 182 666 173 676 c 128,-1,10
 164 686 164 686 129 696 c 0,11,12
 117 700 117 700 93.5 708.5 c 128,-1,13
 70 717 70 717 57.5 719 c 128,-1,14
 45 721 45 721 44 738.5 c 128,-1,15
 43 756 43 756 49 762 c 0,16,17
 51 766 51 766 61 776 c 2,18,-1
 287 918 l 2,19,20
 309 932 309 932 322 932 c 0,21,22
 342 932 342 932 342 901 c 2,23,-1
 342 774 l 2,24,25
 342 733 342 733 358 735 c 0,26,27
 360 735 360 735 362 737 c 0,28,29
 546 868 546 868 653 868 c 0,30,31
 782 868 782 868 877.5 745.5 c 128,-1,32
 973 623 973 623 973 461 c 0,33,34
 973 266 973 266 837.5 121.5 c 128,-1,35
 702 -23 702 -23 520 -23 c 0,36,37
 459 -23 459 -23 367 6 c 0,38,39
 355 10 355 10 348.5 5 c 128,-1,40
 342 0 342 0 342 -27 c 2,41,-1
 342 -270 l 2,42,43
 342 -417 342 -417 365.5 -455.5 c 128,-1,44
 389 -494 389 -494 475 -494 c 2,45,-1
 504 -494 l 2,46,47
 535 -494 535 -494 541 -510 c 0,48,49
 549 -539 549 -539 539 -557 c 0,50,51
 533 -569 533 -569 512 -569 c 0,52,53
 466 -567 466 -567 391 -567 c 0,54,55
 334 -567 334 -567 260 -568 c 0,56,57
 157 -570 157 -570 102 -570 c 0,58,59
 66 -570 66 -570 51 -569 c 0,60,61
 24 -569 24 -569 18 -559 c 128,-1,62
 12 -549 12 -549 12 -534 c 0,63,64
 12 -529 12 -529 13 -522 c 0,0,1
342 174 m 1,65,66
 459 63 459 63 578 63 c 0,67,68
 680 63 680 63 746.5 153.5 c 128,-1,69
 813 244 813 244 813 381 c 0,70,71
 813 537 813 537 737.5 641 c 128,-1,72
 662 745 662 745 551 745 c 0,73,74
 465 745 465 745 354 657 c 0,75,76
 342 645 342 645 342 621 c 2,77,-1
 342 174 l 1,65,66
EndSplineSet
Validated: 1
EndChar

StartChar: q
Encoding: 113 113 84
Width: 1032
GlyphClass: 2
Flags: W
LayerCount: 2
Fore
SplineSet
63 399 m 0,0,1
 63 598 63 598 192.5 735 c 128,-1,2
 322 872 322 872 510 872 c 0,3,4
 627 872 627 872 743 813 c 0,5,6
 766 801 766 801 774 817 c 1,7,8
 803 850 803 850 829 870 c 0,9,10
 839 876 839 876 856 878 c 0,11,12
 857 878 857 878 859 878 c 0,13,14
 873 878 873 878 881 868 c 1,15,16
 867 813 867 813 866 715 c 2,17,-1
 866 625 l 1,18,-1
 866 -266 l 2,19,20
 866 -409 866 -409 887.5 -454.5 c 128,-1,21
 909 -500 909 -500 977 -500 c 2,22,-1
 997 -500 l 2,23,24
 1011 -500 1011 -500 1014 -520 c 0,25,26
 1016 -527 1016 -527 1016 -532 c 0,27,28
 1016 -545 1016 -545 1010 -555 c 0,29,30
 1006 -565 1006 -565 999 -567 c 2,31,-1
 981 -567 l 1,32,33
 866 -563 866 -563 751.5 -563 c 128,-1,34
 637 -563 637 -563 524 -567 c 0,35,36
 485 -567 485 -567 485 -537 c 0,37,38
 485 -504 485 -504 502 -496 c 1,39,40
 516 -494 516 -494 582 -494 c 0,41,42
 666 -494 666 -494 688.5 -455 c 128,-1,43
 711 -416 711 -416 711 -266 c 2,44,-1
 711 61 l 1,45,-1
 713 61 l 2,46,47
 713 63 713 63 712 68.5 c 128,-1,48
 711 74 711 74 709 83 c 128,-1,49
 707 92 707 92 702.5 96 c 128,-1,50
 698 100 698 100 694 96 c 0,51,52
 547 -27 547 -27 408 -27 c 0,53,54
 258 -27 258 -27 160.5 95 c 128,-1,55
 63 217 63 217 63 399 c 0,0,1
221 455 m 0,56,57
 221 295 221 295 301 188.5 c 128,-1,58
 381 82 381 82 498 82 c 0,59,60
 590 82 590 82 698 174 c 0,61,62
 707 182 707 182 713 211 c 1,63,-1
 711 446 l 2,64,65
 709 612 709 612 692 664 c 0,66,67
 669 725 669 725 613 765 c 128,-1,68
 557 805 557 805 487 805 c 0,69,70
 364 805 364 805 292.5 711.5 c 128,-1,71
 221 618 221 618 221 455 c 0,56,57
EndSplineSet
Validated: 1
EndChar

StartChar: r
Encoding: 114 114 85
Width: 716
GlyphClass: 2
Flags: W
LayerCount: 2
Fore
SplineSet
41 29 m 0,0,1
 41 43 41 43 41 46 c 128,-1,2
 41 49 41 49 44 55 c 128,-1,3
 47 61 47 61 52 61 c 128,-1,4
 57 61 57 61 68 61 c 0,5,6
 142 61 142 61 165 99 c 128,-1,7
 188 137 188 137 188 270 c 2,8,-1
 188 664 l 1,9,10
 182 691 182 691 168 694 c 2,11,-1
 82 727 l 2,12,13
 51 739 51 739 47 752 c 0,14,15
 47 754 47 754 47 758 c 2,16,-1
 47 774 l 2,17,18
 47 792 47 792 63 797 c 0,19,20
 88 809 88 809 184 842 c 0,21,22
 258 867 258 867 307 891 c 0,23,24
 316 895 316 895 323 895 c 128,-1,25
 330 895 330 895 334 892 c 0,26,27
 344 885 344 885 344 866 c 0,28,29
 344 841 344 841 344 793 c 128,-1,30
 344 745 344 745 346 723 c 0,31,32
 346 715 346 715 349 711 c 128,-1,33
 352 707 352 707 354 708 c 128,-1,34
 356 709 356 709 358 709 c 0,35,36
 419 842 419 842 451 858 c 0,37,38
 477 872 477 872 511 872 c 0,39,40
 565 872 565 872 641 838 c 0,41,42
 647 836 647 836 659.5 832 c 128,-1,43
 672 828 672 828 676 827 c 0,44,45
 695 824 695 824 695 810 c 0,46,47
 695 807 695 807 694 803 c 0,48,49
 678 754 678 754 635 674 c 1,50,51
 608 676 608 676 559 700 c 0,52,53
 514 723 514 723 485 723 c 0,54,55
 417 723 417 723 348 592 c 1,56,57
 348 236 348 236 350 182 c 0,58,59
 352 104 352 104 373.5 83.5 c 128,-1,60
 395 63 395 63 473 63 c 2,61,-1
 518 63 l 2,62,63
 532 63 532 63 538.5 35.5 c 128,-1,64
 545 8 545 8 530 -4 c 0,65,66
 528 -6 528 -6 502 -6 c 0,67,68
 338 -3 338 -3 229 -3 c 128,-1,69
 120 -3 120 -3 66 -6 c 0,70,71
 63 -6 63 -6 61 -6 c 0,72,73
 50 -6 50 -6 46 1 c 0,74,75
 42 10 42 10 41 29 c 0,0,1
EndSplineSet
Validated: 1
EndChar

StartChar: s
Encoding: 115 115 86
Width: 643
GlyphClass: 2
Flags: W
LayerCount: 2
Fore
SplineSet
70 641 m 0,0,1
 70 752 70 752 147.5 821.5 c 128,-1,2
 225 891 225 891 346 891 c 0,3,4
 424 891 424 891 518 852 c 1,5,6
 524 770 524 770 524 709 c 0,7,8
 524 672 524 672 522 643 c 0,9,10
 522 633 522 633 494 633 c 0,11,12
 482 633 482 633 473.5 636 c 128,-1,13
 465 639 465 639 467 643 c 0,14,15
 453 725 453 725 412 770 c 128,-1,16
 371 815 371 815 313 815 c 0,17,18
 264 815 264 815 232.5 784.5 c 128,-1,19
 201 754 201 754 201 707 c 0,20,21
 201 635 201 635 324 545 c 0,22,23
 344 531 344 531 386 503 c 128,-1,24
 428 475 428 475 458.5 451.5 c 128,-1,25
 489 428 489 428 514 401 c 0,26,27
 584 325 584 325 584 231 c 0,28,29
 584 125 584 125 505 52.5 c 128,-1,30
 426 -20 426 -20 315 -20 c 0,31,32
 262 -20 262 -20 213 -6 c 0,33,34
 211 -6 211 -6 195.5 0 c 128,-1,35
 180 6 180 6 172 8 c 0,36,37
 156 8 156 8 145 -18 c 1,38,39
 121 -25 121 -25 114 -25 c 2,40,41
 114 -25 114 -25 113 -25 c 0,42,43
 95 -23 95 -23 92 -4 c 0,44,45
 74 140 74 140 74 215 c 0,46,47
 74 223 74 223 74 229 c 0,48,49
 72 241 72 241 84 244.5 c 128,-1,50
 96 248 96 248 115 246 c 0,51,52
 125 242 125 242 129 225 c 0,53,54
 172 41 172 41 309 41 c 0,55,56
 364 41 364 41 403 80 c 128,-1,57
 442 119 442 119 442 172 c 0,58,59
 442 192 442 192 437 211.5 c 128,-1,60
 432 231 432 231 417.5 250.5 c 128,-1,61
 403 270 403 270 394 282.5 c 128,-1,62
 385 295 385 295 360.5 313.5 c 128,-1,63
 336 332 336 332 327.5 339 c 128,-1,64
 319 346 319 346 290.5 365.5 c 128,-1,65
 262 385 262 385 258 387 c 0,66,67
 201 426 201 426 166 454.5 c 128,-1,68
 131 483 131 483 100.5 533.5 c 128,-1,69
 70 584 70 584 70 641 c 0,0,1
EndSplineSet
Validated: 1
EndChar

StartChar: t
Encoding: 116 116 87
Width: 653
GlyphClass: 2
Flags: W
LayerCount: 2
Fore
SplineSet
43 799 m 0,0,1
 47 807 47 807 59 813 c 0,2,3
 176 872 176 872 248 1073 c 0,4,5
 248 1080 248 1080 261 1086 c 0,6,7
 269 1089 269 1089 277 1090 c 0,8,9
 282 1090 282 1090 286 1088 c 0,10,11
 298 1084 298 1084 299 1073 c 0,12,13
 296 1013 296 1013 296 967.5 c 128,-1,14
 296 922 296 922 299 893 c 0,15,16
 301 885 301 885 309 875.5 c 128,-1,17
 317 866 317 866 324 866 c 2,18,-1
 551 866 l 2,19,20
 586 866 586 866 575 834 c 1,21,22
 571 801 571 801 557 766 c 0,23,24
 547 750 547 750 524 750 c 2,25,-1
 330 754 l 2,26,27
 322 754 322 754 311.5 745.5 c 128,-1,28
 301 737 301 737 299 729 c 2,29,-1
 299 367 l 2,30,31
 299 209 299 209 327.5 152.5 c 128,-1,32
 356 96 356 96 430 96 c 0,33,34
 496 96 496 96 553 205 c 0,35,36
 555 215 555 215 573.5 214 c 128,-1,37
 592 213 592 213 600 203 c 0,38,39
 606 196 606 196 606 185 c 0,40,41
 606 176 606 176 602 164 c 0,42,43
 518 -22 518 -22 362 -23 c 0,44,45
 266 -23 266 -23 204.5 49 c 128,-1,46
 143 121 143 121 143 233 c 2,47,-1
 143 317 l 1,48,-1
 143 727 l 2,49,50
 143 745 143 745 131 750 c 1,51,-1
 90 750 l 2,52,53
 74 750 74 750 49 756 c 1,54,55
 40 771 40 771 40 784 c 0,56,57
 40 792 40 792 43 799 c 0,0,1
EndSplineSet
Validated: 1
EndChar

StartChar: u
Encoding: 117 117 88
Width: 1093
GlyphClass: 2
Flags: W
LayerCount: 2
Fore
SplineSet
40 820 m 0,0,1
 40 824 40 824 40 826 c 0,2,3
 40 842 40 842 53 846 c 0,4,5
 73 850 73 850 170.5 874.5 c 128,-1,6
 268 899 268 899 309 907 c 0,7,8
 325 909 325 909 333.5 897 c 128,-1,9
 342 885 342 885 342 868 c 2,10,-1
 342 377 l 2,11,12
 342 213 342 213 380 156.5 c 128,-1,13
 418 100 418 100 522 100 c 0,14,15
 622 100 622 100 752 203 c 1,16,-1
 754 209 l 2,17,18
 756 215 756 215 758 224 c 128,-1,19
 760 233 760 233 760 242 c 2,20,-1
 760 596 l 2,21,22
 760 688 760 688 754 717 c 0,23,24
 740 774 740 774 692 782 c 0,25,26
 678 786 678 786 665.5 787 c 128,-1,27
 653 788 653 788 647 791 c 0,28,29
 645 791 645 791 580 801 c 1,30,31
 568 809 568 809 569.5 829.5 c 128,-1,32
 571 850 571 850 584 854 c 0,33,34
 793 901 793 901 877 909 c 0,35,36
 881 909 881 909 885 909 c 0,37,38
 918 909 918 909 918 877 c 2,39,-1
 918 225 l 1,40,-1
 918 162 l 2,41,42
 918 111 918 111 967 111 c 0,43,44
 984 111 984 111 1006 117 c 0,45,46
 1010 119 1010 119 1019 121 c 128,-1,47
 1028 123 1028 123 1035 125 c 128,-1,48
 1042 127 1042 127 1049 129 c 0,49,50
 1061 132 1061 132 1066 116 c 0,51,52
 1069 107 1069 107 1069 98 c 0,53,54
 1069 90 1069 90 1067 82 c 0,55,56
 1063 64 1063 64 1051 63 c 0,57,58
 938 14 938 14 817 -10 c 0,59,60
 794 -18 794 -18 778 -13 c 128,-1,61
 762 -8 762 -8 760 18 c 2,62,-1
 756 98 l 2,63,64
 756 106 756 106 752 120.5 c 128,-1,65
 748 135 748 135 741 129 c 0,66,67
 673 80 673 80 636.5 55.5 c 128,-1,68
 600 31 600 31 535.5 5.5 c 128,-1,69
 471 -20 471 -20 412 -20 c 0,70,71
 181 -20 181 -20 180 262 c 2,72,-1
 180 696 l 2,73,74
 180 731 180 731 172 747.5 c 128,-1,75
 164 764 164 764 135 772 c 0,76,77
 121 776 121 776 94.5 783.5 c 128,-1,78
 68 791 68 791 53 795 c 0,79,80
 43 798 43 798 40 820 c 0,0,1
EndSplineSet
Validated: 1
EndChar

StartChar: v
Encoding: 118 118 89
Width: 1019
GlyphClass: 2
Flags: W
LayerCount: 2
Fore
SplineSet
8 826 m 0,0,1
 10 856 10 856 28 858 c 0,2,3
 35 859 35 859 67 859 c 0,4,5
 113 859 113 859 211 857 c 0,6,7
 281 856 281 856 337 856 c 0,8,9
 411 856 411 856 459 858 c 0,10,11
 471 858 471 858 471 825 c 0,12,13
 471 794 471 794 455 795 c 2,14,-1
 436 795 l 2,15,16
 389 795 389 795 363.5 787.5 c 128,-1,17
 338 780 338 780 334 773 c 128,-1,18
 330 766 330 766 330 754 c 0,19,20
 330 740 330 740 373 633 c 128,-1,21
 416 526 416 526 477.5 383 c 128,-1,22
 539 240 539 240 539 238 c 0,23,24
 541 236 541 236 545 227.5 c 128,-1,25
 549 219 549 219 552 216 c 128,-1,26
 555 213 555 213 559 210 c 128,-1,27
 563 207 563 207 567 211 c 128,-1,28
 571 215 571 215 575 225 c 0,29,30
 708 549 708 549 772 684 c 0,31,32
 781 703 781 703 781 719 c 0,33,34
 782 750 782 750 746 767 c 0,35,36
 692 793 692 793 627 795 c 1,37,38
 619 801 619 801 618.5 829.5 c 128,-1,39
 618 858 618 858 635 858 c 0,40,41
 718 856 718 856 809 856 c 128,-1,42
 900 856 900 856 999 858 c 0,43,44
 1008 858 1008 858 1012 842 c 0,45,46
 1014 834 1014 834 1014 826 c 0,47,48
 1014 819 1014 819 1013 812 c 0,49,50
 1010 797 1010 797 1004 797 c 0,51,52
 938 789 938 789 907.5 751 c 128,-1,53
 877 713 877 713 819 582 c 2,54,-1
 569 4 l 2,55,56
 557 -19 557 -19 541 -20 c 0,57,58
 529 -23 529 -23 517 -23 c 0,59,60
 501 -23 501 -23 485 -18 c 0,61,62
 475 -14 475 -14 465 12 c 2,63,-1
 199 625 l 2,64,65
 154 731 154 731 137 752 c 0,66,67
 110 781 110 781 20 795 c 0,68,69
 8 797 8 797 8 820 c 0,70,71
 8 822 8 822 8 826 c 0,0,1
EndSplineSet
Validated: 1
EndChar

StartChar: w
Encoding: 119 119 90
Width: 1542
GlyphClass: 2
Flags: W
LayerCount: 2
Fore
SplineSet
4 814 m 0,0,1
 3 821 3 821 3 826 c 0,2,3
 3 837 3 837 6 842 c 0,4,5
 10 856 10 856 35 852 c 0,6,7
 55 852 55 852 111.5 850 c 128,-1,8
 168 848 168 848 239.5 848 c 128,-1,9
 311 848 311 848 406 852 c 0,10,11
 410 852 410 852 416 852 c 0,12,13
 436 854 436 854 440 836 c 0,14,15
 446 824 446 824 443 808.5 c 128,-1,16
 440 793 440 793 428 793 c 0,17,18
 324 789 324 789 324 745 c 0,19,20
 324 720 324 720 412 498 c 0,21,22
 457 383 457 383 522 227 c 0,23,24
 526 217 526 217 535.5 209 c 128,-1,25
 545 201 545 201 553 211 c 2,26,-1
 737 643 l 1,27,-1
 737 641 l 1,28,29
 692 731 692 731 672 752 c 0,30,31
 639 785 639 785 582 788 c 0,32,33
 576 788 576 788 563.5 789.5 c 128,-1,34
 551 791 551 791 543 791 c 0,35,36
 529 791 529 791 528 821 c 0,37,38
 524 854 524 854 539 854 c 0,39,40
 737 849 737 849 844 849 c 0,41,42
 924 849 924 849 954 852 c 0,43,44
 987 856 987 856 993 838 c 0,45,46
 997 826 997 826 995 810.5 c 128,-1,47
 993 795 993 795 989 791 c 0,48,49
 881 789 881 789 881 738 c 0,50,51
 881 710 881 710 911 637 c 2,52,-1
 1083 221 l 2,53,54
 1089 211 1089 211 1099.5 219 c 128,-1,55
 1110 227 1110 227 1114 238 c 0,56,57
 1280 625 1280 625 1292 692 c 0,58,59
 1295 707 1295 707 1295 720 c 0,60,61
 1294 750 1294 750 1278 764 c 0,62,63
 1254 784 1254 784 1204 788 c 0,64,65
 1165 788 1165 788 1145 791 c 0,66,67
 1135 795 1135 795 1132.5 824.5 c 128,-1,68
 1130 854 1130 854 1149 854 c 0,69,70
 1224 852 1224 852 1313 852 c 128,-1,71
 1402 852 1402 852 1505 854 c 0,72,73
 1507 854 1507 854 1508 854 c 0,74,75
 1520 854 1520 854 1524 840 c 0,76,77
 1528 830 1528 830 1528 820 c 0,78,79
 1528 814 1528 814 1527 809 c 0,80,81
 1524 793 1524 793 1516 791 c 0,82,83
 1434 783 1434 783 1411 750 c 0,84,85
 1401 734 1401 734 1368 655 c 0,86,87
 1323 544 1323 544 1106 4 c 0,88,89
 1100 -12 1100 -12 1096 -16 c 128,-1,90
 1092 -20 1092 -20 1071 -23 c 0,91,92
 1046 -28 1046 -28 1037 -28 c 0,93,94
 1034 -28 1034 -28 1032 -27 c 0,95,96
 1018 -25 1018 -25 1012 -10 c 2,97,-1
 1008 0 l 1,98,-1
 786 535 l 2,99,100
 780 547 780 547 766 520 c 2,101,-1
 547 4 l 1,102,103
 541 -21 541 -21 520 -23 c 0,104,105
 516 -25 516 -25 508 -25 c 2,106,-1
 485 -25 l 2,107,108
 471 -25 471 -25 467 -23 c 0,109,110
 455 -21 455 -21 449 -8 c 2,111,-1
 444 2 l 1,112,-1
 195 618 l 2,113,114
 150 733 150 733 122 759.5 c 128,-1,115
 94 786 94 786 16 791 c 0,116,117
 6 794 6 794 4 814 c 0,0,1
EndSplineSet
Validated: 5
EndChar

StartChar: x
Encoding: 120 120 91
Width: 1069
GlyphClass: 2
Flags: W
LayerCount: 2
Fore
SplineSet
14 25 m 1,0,1
 14 56 14 56 31 55 c 0,2,3
 105 57 105 57 145.5 83 c 128,-1,4
 186 109 186 109 270 205 c 2,5,-1
 453 412 l 1,6,-1
 283 639 l 2,7,8
 209 739 209 739 169 765 c 128,-1,9
 129 791 129 791 43 795 c 1,10,11
 31 800 31 800 32 828 c 0,12,13
 33 855 33 855 50 854 c 0,14,15
 51 854 51 854 53 854 c 0,16,17
 107 851 107 851 206.5 851 c 128,-1,18
 306 851 306 851 451 854 c 0,19,20
 471 854 471 854 473 850 c 0,21,22
 479 842 479 842 480 829.5 c 128,-1,23
 481 817 481 817 478 807 c 128,-1,24
 475 797 475 797 471 797 c 2,25,-1
 453 797 l 2,26,27
 383 797 383 797 383 772.5 c 128,-1,28
 383 748 383 748 457 651 c 0,29,30
 512 577 512 577 537 553 c 0,31,32
 549 537 549 537 557 536 c 128,-1,33
 565 535 565 535 582 553 c 0,34,35
 627 598 627 598 662 643 c 0,36,37
 717 709 717 709 717 748 c 0,38,39
 717 771 717 771 698.5 782 c 128,-1,40
 680 793 680 793 627 795 c 0,41,42
 623 795 623 795 618.5 795 c 128,-1,43
 614 795 614 795 612 795 c 128,-1,44
 610 795 610 795 607 798 c 128,-1,45
 604 801 604 801 602 805 c 0,46,47
 596 821 596 821 600 842 c 0,48,49
 602 855 602 855 617 855 c 0,50,51
 621 855 621 855 625 854 c 0,52,53
 779 852 779 852 876 852 c 128,-1,54
 973 852 973 852 1014 854 c 0,55,56
 1016 854 1016 854 1018 854 c 0,57,58
 1031 854 1031 854 1038 844 c 0,59,60
 1046 824 1046 824 1040 807 c 0,61,62
 1036 795 1036 795 1010 795 c 0,63,64
 920 789 920 789 879 767 c 128,-1,65
 838 745 838 745 772 672 c 2,66,-1
 694 586 l 1,67,-1
 598 475 l 1,68,69
 715 325 715 325 763 263 c 128,-1,70
 811 201 811 201 846 158 c 0,71,72
 889 103 889 103 927 82 c 128,-1,73
 965 61 965 61 1030 57 c 1,74,75
 1047 47 1047 47 1047 20 c 0,76,77
 1047 10 1047 10 1041.5 2 c 128,-1,78
 1036 -6 1036 -6 1028 -4 c 0,79,80
 936 -2 936 -2 851 -2 c 0,81,82
 722 -2 722 -2 606 -6 c 0,83,84
 588 -6 588 -6 588 23.5 c 128,-1,85
 588 53 588 53 606 53 c 2,86,-1
 625 53 l 2,87,88
 696 53 696 53 696 85 c 0,89,90
 696 96 696 96 687 111.5 c 128,-1,91
 678 127 678 127 662.5 145.5 c 128,-1,92
 647 164 647 164 643 168 c 2,93,-1
 526 324 l 2,94,95
 495 363 495 363 479 344 c 0,96,97
 475 338 475 338 448.5 310.5 c 128,-1,98
 422 283 422 283 399.5 257 c 128,-1,99
 377 231 377 231 351.5 200.5 c 128,-1,100
 326 170 326 170 310.5 146.5 c 128,-1,101
 295 123 295 123 295 113 c 0,102,103
 295 86 295 86 318.5 72.5 c 128,-1,104
 342 59 342 59 406 53 c 1,105,-1
 422 53 l 2,106,107
 432 53 432 53 436 36.5 c 128,-1,108
 440 20 440 20 436 6 c 0,109,110
 432 -6 432 -6 424 -6 c 0,111,112
 423 -6 423 -6 422 -6 c 0,113,114
 319 -2 319 -2 199 -2 c 0,115,116
 119 -2 119 -2 31 -4 c 0,117,118
 19 -4 19 -4 14 25 c 1,0,1
EndSplineSet
Validated: 1
EndChar

StartChar: y
Encoding: 121 121 92
Width: 999
GlyphClass: 2
Flags: W
LayerCount: 2
Fore
SplineSet
18 840 m 0,0,1
 24 863 24 863 59 858 c 0,2,3
 68 858 68 858 94 858 c 0,4,5
 172 858 172 858 408 862 c 0,6,7
 443 862 443 862 446 846 c 0,8,9
 450 832 450 832 446 815.5 c 128,-1,10
 442 799 442 799 434 797 c 0,11,12
 368 795 368 795 348 782.5 c 128,-1,13
 328 770 328 770 328 745 c 0,14,15
 328 722 328 722 350 674 c 0,16,17
 393 580 393 580 539 215 c 0,18,19
 545 201 545 201 567 236 c 0,20,21
 571 240 571 240 571 242 c 2,22,-1
 694 555 l 2,23,24
 714 606 714 606 725 639 c 0,25,26
 743 694 743 694 743 723 c 0,27,28
 743 764 743 764 718.5 779.5 c 128,-1,29
 694 795 694 795 618 797 c 1,30,31
 608 803 608 803 607 828.5 c 128,-1,32
 606 854 606 854 625 856 c 2,33,-1
 641 856 l 1,34,35
 739 862 739 862 819 862 c 0,36,37
 883 862 883 862 936 858 c 0,38,39
 971 858 971 858 975 840 c 0,40,41
 976 836 976 836 976 832 c 0,42,43
 976 823 976 823 973 812 c 0,44,45
 969 797 969 797 963 797 c 0,46,47
 900 789 900 789 861.5 740.5 c 128,-1,48
 823 692 823 692 762 530 c 2,49,-1
 508 -154 l 2,50,51
 436 -338 436 -338 422 -373 c 0,52,53
 391 -447 391 -447 348 -498 c 0,54,55
 315 -541 315 -541 254 -541 c 0,56,57
 215 -541 215 -541 186.5 -513 c 128,-1,58
 158 -485 158 -485 158 -449 c 0,59,60
 158 -386 158 -386 260 -360 c 0,61,62
 323 -344 323 -344 365.5 -287.5 c 128,-1,63
 408 -231 408 -231 444 -111 c 2,64,-1
 473 -16 l 1,65,-1
 213 602 l 2,66,67
 158 735 158 735 131 763 c 128,-1,68
 104 791 104 791 31 797 c 0,69,70
 25 799 25 799 20 813 c 0,71,72
 17 823 17 823 17 832 c 0,73,74
 17 836 17 836 18 840 c 0,0,1
EndSplineSet
Validated: 1
EndChar

StartChar: z
Encoding: 122 122 93
Width: 839
GlyphClass: 2
Flags: W
LayerCount: 2
Fore
SplineSet
31 35 m 0,0,1
 33 41 33 41 39 48 c 128,-1,2
 45 55 45 55 47 59 c 2,3,-1
 545 737 l 2,4,5
 549 749 549 749 530 756 c 1,6,7
 513 757 513 757 491 757 c 0,8,9
 447 757 447 757 382 754 c 0,10,11
 285 750 285 750 244 750 c 0,12,13
 201 750 201 750 178.5 717 c 128,-1,14
 156 684 156 684 125 559 c 0,15,16
 121 549 121 549 104.5 547 c 128,-1,17
 88 545 88 545 78 551 c 0,18,19
 62 557 62 557 66 580 c 0,20,21
 117 861 117 861 127 905 c 0,22,23
 131 911 131 911 157.5 911 c 128,-1,24
 184 911 184 911 184 903 c 0,25,26
 184 868 184 868 198 858 c 0,27,28
 210 850 210 850 254 850 c 0,29,30
 263 850 263 850 272 850 c 0,31,32
 539 854 539 854 668 854 c 0,33,34
 711 854 711 854 739 854 c 0,35,36
 774 854 774 854 782 846 c 1,37,38
 790 813 790 813 778 799 c 0,39,40
 491 424 491 424 276 111 c 0,41,42
 274 105 274 105 283.5 99.5 c 128,-1,43
 293 94 293 94 301 96 c 0,44,45
 369 90 369 90 446 90 c 128,-1,46
 523 90 523 90 610 96 c 0,47,48
 661 98 661 98 685 124 c 128,-1,49
 709 150 709 150 745 236 c 1,50,-1
 754 246 l 1,51,52
 762 266 762 266 795 258 c 0,53,54
 810 255 810 255 810 246 c 0,55,56
 810 244 810 244 809 242 c 2,57,-1
 725 12 l 2,58,59
 719 0 719 0 702 -4 c 0,60,61
 535 -8 535 -8 370.5 -8 c 128,-1,62
 206 -8 206 -8 43 -4 c 0,63,64
 30 -4 30 -4 30 21 c 0,65,66
 30 27 30 27 31 35 c 0,0,1
EndSplineSet
Validated: 1
EndChar

StartChar: braceleft
Encoding: 123 123 94
Width: 1026
GlyphClass: 2
Flags: W
LayerCount: 2
Fore
SplineSet
215 459 m 1,0,1
 209 473 209 473 215 485 c 1,2,3
 215 499 215 499 229 504 c 0,4,5
 331 524 331 524 390 581.5 c 128,-1,6
 449 639 449 639 449 713 c 0,7,8
 449 762 449 762 424 866 c 0,9,10
 401 956 401 956 401 1036 c 0,11,12
 401 1194 401 1194 513 1312 c 128,-1,13
 625 1430 625 1430 799 1456 c 0,14,15
 811 1456 811 1456 813 1446 c 0,16,17
 821 1417 821 1417 817 1413 c 0,18,19
 817 1411 817 1411 815 1411 c 0,20,21
 813 1409 813 1409 813 1407 c 0,22,23
 809 1397 809 1397 795 1393 c 0,24,25
 686 1368 686 1368 629.5 1306.5 c 128,-1,26
 573 1245 573 1245 573 1155 c 0,27,28
 573 1096 573 1096 592 1004 c 0,29,30
 615 887 615 887 614 823 c 0,31,32
 614 682 614 682 502 575 c 0,33,34
 439 516 439 516 375 487 c 0,35,36
 342 475 342 475 373 459 c 0,37,38
 615 338 615 338 614 121 c 0,39,40
 614 39 614 39 594 -55 c 0,41,42
 576 -145 576 -145 575 -207 c 0,43,44
 575 -387 575 -387 801 -451 c 0,45,46
 811 -451 811 -451 817 -461 c 2,47,-1
 819 -463 l 1,48,49
 827 -484 827 -484 819 -502 c 0,50,51
 813 -512 813 -512 799 -510 c 0,52,53
 623 -483 623 -483 513 -366.5 c 128,-1,54
 403 -250 403 -250 403 -92 c 0,55,56
 403 -29 403 -29 426 72 c 0,57,58
 451 181 451 181 451 227 c 0,59,60
 451 305 451 305 392.5 361.5 c 128,-1,61
 334 418 334 418 225 440 c 0,62,63
 215 444 215 444 215 459 c 1,0,1
EndSplineSet
Validated: 33
EndChar

StartChar: bar
Encoding: 124 124 95
Width: 1093
GlyphClass: 2
Flags: W
LayerCount: 2
Fore
SplineSet
483 10 m 2,0,-1
 483 1710 l 2,1,2
 483 1739 483 1739 493.5 1750 c 128,-1,3
 504 1761 504 1761 530 1761 c 1,4,5
 567 1753 567 1753 590 1757 c 0,6,7
 602 1757 602 1757 608 1756 c 128,-1,8
 614 1755 614 1755 616 1750 c 128,-1,9
 618 1745 618 1745 618 1741 c 128,-1,10
 618 1737 618 1737 617 1725.5 c 128,-1,11
 616 1714 616 1714 616 1706 c 2,12,-1
 616 864 l 2,13,14
 616 71 616 71 614 0 c 0,15,16
 614 -45 614 -45 569 -45 c 1,17,18
 546 -41 546 -41 518 -45 c 0,19,20
 495 -45 495 -45 489 -31.5 c 128,-1,21
 483 -18 483 -18 483 10 c 2,0,-1
EndSplineSet
Validated: 1
EndChar

StartChar: braceright
Encoding: 125 125 96
Width: 1026
GlyphClass: 2
Flags: W
LayerCount: 2
Fore
SplineSet
217 -485 m 0,0,1
 217 -483 217 -483 218 -475 c 128,-1,2
 219 -467 219 -467 219 -463 c 0,3,4
 223 -449 223 -449 233 -446 c 0,5,6
 342 -423 342 -423 400.5 -361 c 128,-1,7
 459 -299 459 -299 459 -211 c 0,8,9
 459 -154 459 -154 437.5 -45.5 c 128,-1,10
 416 63 416 63 416 121 c 0,11,12
 416 260 416 260 530 371 c 0,13,14
 589 430 589 430 657 459 c 0,15,16
 669 465 669 465 668.5 474 c 128,-1,17
 668 483 668 483 655 489 c 0,18,19
 415 610 415 610 416 823 c 0,20,21
 416 876 416 876 436.5 986 c 128,-1,22
 457 1096 457 1096 457 1151 c 0,23,24
 457 1331 457 1331 242 1393 c 0,25,26
 234 1395 234 1395 224.5 1405 c 128,-1,27
 215 1415 215 1415 217 1427 c 0,28,29
 217 1458 217 1458 233 1456 c 0,30,31
 409 1429 409 1429 520 1312.5 c 128,-1,32
 631 1196 631 1196 631 1038 c 0,33,34
 631 983 631 983 606.5 878.5 c 128,-1,35
 582 774 582 774 582 719 c 0,36,37
 582 645 582 645 635 590 c 128,-1,38
 688 535 688 535 788 510 c 0,39,40
 817 502 817 502 817 477 c 0,41,42
 817 442 817 442 793 438 c 0,43,44
 695 415 695 415 639.5 360 c 128,-1,45
 584 305 584 305 584 233 c 0,46,47
 584 178 584 178 608.5 71.5 c 128,-1,48
 633 -35 633 -35 633 -90 c 0,49,50
 633 -244 633 -244 527.5 -359.5 c 128,-1,51
 422 -475 422 -475 256 -506 c 0,52,53
 242 -510 242 -510 228.5 -504 c 128,-1,54
 215 -498 215 -498 217 -485 c 0,0,1
EndSplineSet
Validated: 33
EndChar

StartChar: asciitilde
Encoding: 126 126 97
Width: 1161
GlyphClass: 2
Flags: W
LayerCount: 2
Fore
SplineSet
49 518 m 0,0,1
 55 661 55 661 139 755.5 c 128,-1,2
 223 850 223 850 344 850 c 0,3,4
 450 850 450 850 623 756 c 0,5,6
 625 756 625 756 647.5 742.5 c 128,-1,7
 670 729 670 729 674 727 c 128,-1,8
 678 725 678 725 699.5 713.5 c 128,-1,9
 721 702 721 702 729 699 c 128,-1,10
 737 696 737 696 755.5 688 c 128,-1,11
 774 680 774 680 785.5 677 c 128,-1,12
 797 674 797 674 812 669 c 128,-1,13
 827 664 827 664 841.5 663 c 128,-1,14
 856 662 856 662 870 662 c 0,15,16
 1015 662 1015 662 1047 831 c 0,17,18
 1051 858 1051 858 1071 858 c 2,19,-1
 1094 856 l 2,20,21
 1106 854 1106 854 1114 847 c 128,-1,22
 1122 840 1122 840 1120 834 c 0,23,24
 1110 687 1110 687 1029 590.5 c 128,-1,25
 948 494 948 494 831 494 c 0,26,27
 716 494 716 494 537 590 c 0,28,29
 531 594 531 594 484.5 618.5 c 128,-1,30
 438 643 438 643 415.5 653.5 c 128,-1,31
 393 664 393 664 356 676 c 128,-1,32
 319 688 319 688 291 688 c 0,33,34
 223 688 223 688 175 640 c 128,-1,35
 127 592 127 592 117 510 c 0,36,37
 113 483 113 483 86 487 c 0,38,39
 76 489 76 489 68.5 491.5 c 128,-1,40
 61 494 61 494 55 501 c 128,-1,41
 49 508 49 508 49 518 c 0,0,1
EndSplineSet
Validated: 1
EndChar

StartChar: exclamdown
Encoding: 161 161 99
Width: 557
GlyphClass: 2
Flags: W
LayerCount: 2
Fore
SplineSet
162 776 m 0,0,1
 162 823 162 823 195.5 856 c 128,-1,2
 229 889 229 889 280.5 889 c 128,-1,3
 332 889 332 889 365.5 857 c 128,-1,4
 399 825 399 825 399 776 c 0,5,6
 399 725 399 725 365.5 692 c 128,-1,7
 332 659 332 659 280.5 659 c 128,-1,8
 229 659 229 659 195.5 692 c 128,-1,9
 162 725 162 725 162 776 c 0,0,1
176 -426 m 2,10,-1
 252 522 l 2,11,12
 256 532 256 532 279.5 532 c 128,-1,13
 303 532 303 532 307 522 c 2,14,-1
 389 -428 l 2,15,16
 393 -475 393 -475 381 -492.5 c 128,-1,17
 369 -510 369 -510 317 -510 c 2,18,-1
 252 -510 l 2,19,20
 199 -510 199 -510 185.5 -492.5 c 128,-1,21
 172 -475 172 -475 176 -426 c 2,10,-1
EndSplineSet
Validated: 33
EndChar

StartChar: cent
Encoding: 162 162 100
Width: 915
GlyphClass: 2
Flags: W
LayerCount: 2
Fore
SplineSet
98 389 m 0,0,1
 98 596 98 596 243.5 741.5 c 128,-1,2
 389 887 389 887 596 887 c 0,3,4
 606 887 606 887 655 883 c 1,5,-1
 756 1145 l 2,6,7
 764 1159 764 1159 782 1157 c 0,8,9
 784 1157 784 1157 792.5 1156 c 128,-1,10
 801 1155 801 1155 804 1155 c 128,-1,11
 807 1155 807 1155 812 1153 c 128,-1,12
 817 1151 817 1151 819 1148 c 128,-1,13
 821 1145 821 1145 821 1140 c 128,-1,14
 821 1135 821 1135 819 1126 c 2,15,-1
 719 870 l 1,16,17
 846 832 846 832 846 752 c 0,18,19
 846 719 846 719 823.5 697.5 c 128,-1,20
 801 676 801 676 766 676 c 0,21,22
 729 676 729 676 690 709 c 0,23,24
 665 734 665 734 655 707 c 2,25,-1
 428 137 l 2,26,27
 416 102 416 102 462 89 c 128,-1,28
 508 76 508 76 549 76 c 0,29,30
 625 76 625 76 679 110.5 c 128,-1,31
 733 145 733 145 793 217 c 0,32,33
 805 233 805 233 819 225 c 2,34,-1
 840 213 l 2,35,36
 856 203 856 203 836 172 c 0,37,38
 693 -37 693 -37 473 -37 c 0,39,40
 432 -37 432 -37 387 -27 c 0,41,42
 364 -21 364 -21 354 -47 c 0,43,44
 260 -303 260 -303 238 -346 c 0,45,46
 226 -373 226 -373 205 -371 c 2,47,-1
 174 -365 l 2,48,49
 162 -363 162 -363 168 -346 c 2,50,-1
 172 -338 l 1,51,-1
 295 -29 l 2,52,53
 305 2 305 2 285 14 c 0,54,55
 201 69 201 69 149.5 170.5 c 128,-1,56
 98 272 98 272 98 389 c 0,0,1
262 436 m 0,57,58
 262 274 262 274 352 168 c 0,59,60
 364 152 364 152 377 178 c 2,61,-1
 614 778 l 1,62,63
 577 807 577 807 526 807 c 0,64,65
 420 807 420 807 341 698.5 c 128,-1,66
 262 590 262 590 262 436 c 0,57,58
EndSplineSet
Validated: 1
EndChar

StartChar: sterling
Encoding: 163 163 101
Width: 1630
GlyphClass: 2
Flags: W
LayerCount: 2
Fore
SplineSet
31 -416 m 0,0,1
 31 -359 31 -359 107.5 -287 c 128,-1,2
 184 -215 184 -215 283 -174 c 1,3,4
 344 -65 344 -65 393 66 c 2,5,-1
 406 98 l 2,6,7
 410 106 410 106 403.5 116.5 c 128,-1,8
 397 127 397 127 385 127 c 2,9,-1
 147 127 l 2,10,11
 118 127 118 127 117 129 c 0,12,13
 105 133 105 133 111 154 c 0,14,15
 111 158 111 158 113 164 c 0,16,17
 115 176 115 176 116 181 c 128,-1,18
 117 186 117 186 121 192.5 c 128,-1,19
 125 199 125 199 133 201 c 128,-1,20
 141 203 141 203 154 203 c 2,21,-1
 444 203 l 1,22,23
 462 252 462 252 514.5 396.5 c 128,-1,24
 567 541 567 541 598 618 c 0,25,26
 692 862 692 862 784 1018 c 0,27,28
 1026 1432 1026 1432 1325 1432 c 0,29,30
 1429 1432 1429 1432 1509 1384 c 128,-1,31
 1589 1336 1589 1336 1589 1266 c 0,32,33
 1589 1233 1589 1233 1565.5 1210.5 c 128,-1,34
 1542 1188 1542 1188 1507 1188 c 0,35,36
 1464 1188 1464 1188 1417 1235 c 0,37,38
 1403 1247 1403 1247 1391 1262 c 0,39,40
 1319 1334 1319 1334 1243 1333 c 0,41,42
 1149 1333 1149 1333 1075 1233 c 0,43,44
 995 1129 995 1129 907 905 c 0,45,46
 712 424 712 424 629 242 c 0,47,48
 613 205 613 205 639 203 c 2,49,-1
 647 203 l 1,50,-1
 918 205 l 1,51,-1
 944 205 l 2,52,53
 969 205 969 205 963 178 c 2,54,-1
 956 152 l 2,55,56
 952 123 952 123 909 123 c 2,57,-1
 571 127 l 1,58,59
 495 -27 495 -27 418 -127 c 1,60,61
 506 -86 506 -86 618 -86 c 0,62,63
 710 -86 710 -86 786 -121 c 128,-1,64
 862 -156 862 -156 948 -219 c 0,65,66
 1028 -280 1028 -280 1083 -311 c 0,67,68
 1157 -354 1157 -354 1225 -354 c 0,69,70
 1299 -354 1299 -354 1351 -311 c 128,-1,71
 1403 -268 1403 -268 1403 -207 c 0,72,73
 1403 -174 1403 -174 1370 -117 c 0,74,75
 1343 -72 1343 -72 1343 -45 c 0,76,77
 1343 -8 1343 -8 1368 16.5 c 128,-1,78
 1393 41 1393 41 1427 41 c 0,79,80
 1474 41 1474 41 1505 -3 c 128,-1,81
 1536 -47 1536 -47 1536 -113 c 0,82,83
 1536 -256 1536 -256 1410 -368.5 c 128,-1,84
 1284 -481 1284 -481 1126 -481 c 0,85,86
 1007 -481 1007 -481 909 -418 c 0,87,88
 878 -398 878 -398 817 -348 c 0,89,90
 811 -342 811 -342 775 -313.5 c 128,-1,91
 739 -285 739 -285 721 -270 c 0,92,93
 600 -180 600 -180 514 -180 c 0,94,95
 451 -180 451 -180 358 -223 c 1,96,-1
 352 -227 l 1,97,98
 297 -340 297 -340 227.5 -409.5 c 128,-1,99
 158 -479 158 -479 100 -479 c 0,100,101
 71 -479 71 -479 51 -460.5 c 128,-1,102
 31 -442 31 -442 31 -416 c 0,0,1
EndSplineSet
Validated: 33
EndChar

StartChar: currency
Encoding: 164 164 102
Width: 1429
GlyphClass: 2
Flags: W
LayerCount: 2
Fore
SplineSet
207 272 m 1,0,-1
 340 406 l 1,1,2
 283 494 283 494 264.5 551 c 128,-1,3
 246 608 246 608 246 700 c 0,4,5
 246 790 246 790 264.5 846.5 c 128,-1,6
 283 903 283 903 340 981 c 1,7,-1
 207 1114 l 1,8,-1
 299 1210 l 1,9,-1
 434 1075 l 1,10,11
 508 1134 508 1134 565.5 1154 c 128,-1,12
 623 1174 623 1174 717 1174 c 0,13,14
 813 1174 813 1174 869.5 1154.5 c 128,-1,15
 926 1135 926 1135 1006 1075 c 1,16,-1
 1135 1210 l 1,17,-1
 1229 1114 l 1,18,-1
 1098 981 l 1,19,20
 1155 899 1155 899 1174.5 840.5 c 128,-1,21
 1194 782 1194 782 1194 688 c 0,22,23
 1194 592 1194 592 1174.5 535.5 c 128,-1,24
 1155 479 1155 479 1098 406 c 1,25,-1
 1229 272 l 1,26,-1
 1135 178 l 1,27,-1
 1006 311 l 1,28,29
 924 252 924 252 867.5 232.5 c 128,-1,30
 811 213 811 213 714.5 213 c 128,-1,31
 618 213 618 213 563 232.5 c 128,-1,32
 508 252 508 252 434 311 c 1,33,-1
 299 178 l 1,34,-1
 207 272 l 1,0,-1
379 694.5 m 128,-1,36
 379 551 379 551 477 449.5 c 128,-1,37
 575 348 575 348 715 348 c 0,38,39
 858 348 858 348 958.5 448.5 c 128,-1,40
 1059 549 1059 549 1059 692.5 c 128,-1,41
 1059 836 1059 836 959.5 937 c 128,-1,42
 860 1038 860 1038 721 1038 c 0,43,44
 580 1038 580 1038 479.5 938 c 128,-1,35
 379 838 379 838 379 694.5 c 128,-1,36
EndSplineSet
Validated: 1
EndChar

StartChar: yen
Encoding: 165 165 103
Width: 1071
GlyphClass: 2
Flags: W
LayerCount: 2
Fore
SplineSet
-6 1409 m 0,0,1
 -6 1413 -6 1413 -4 1417 c 2,2,-1
 -4 1423 l 2,3,4
 -6 1441 -6 1441 14 1442 c 0,5,6
 252 1434 252 1434 459 1444 c 0,7,8
 482 1444 482 1444 481 1415 c 1,9,10
 487 1399 487 1399 481 1391 c 1,11,12
 481 1373 481 1373 471 1370 c 2,13,-1
 465 1370 l 1,14,15
 352 1362 352 1362 352 1317 c 0,16,17
 352 1307 352 1307 371 1262 c 2,18,-1
 424 1130 l 2,19,20
 432 1110 432 1110 477 1110 c 2,21,-1
 709 1110 l 2,22,23
 738 1110 738 1110 748 1135 c 2,24,-1
 793 1245 l 2,25,26
 813 1298 813 1298 813 1319 c 0,27,28
 813 1362 813 1362 737 1368 c 1,29,30
 694 1376 694 1376 694 1395 c 2,31,-1
 694 1417 l 2,32,33
 694 1435 694 1435 717 1436 c 2,34,-1
 725 1436 l 1,35,36
 913 1428 913 1428 1061 1438 c 0,37,38
 1081 1440 1081 1440 1081 1413 c 2,39,-1
 1081 1389 l 1,40,-1
 1081 1380 l 2,41,42
 1081 1370 1081 1370 1063 1370 c 0,43,44
 1006 1370 1006 1370 973 1340.5 c 128,-1,45
 940 1311 940 1311 899 1217 c 2,46,-1
 862 1130 l 2,47,48
 852 1110 852 1110 895 1110 c 2,49,-1
 1049 1110 l 2,50,51
 1080 1110 1080 1110 1079 1081 c 2,52,-1
 1079 1040 l 2,53,54
 1079 1007 1079 1007 1049 1008 c 2,55,-1
 838 1008 l 2,56,57
 811 1008 811 1008 803 987 c 2,58,-1
 739 848 l 2,59,60
 733 836 733 836 744.5 826.5 c 128,-1,61
 756 817 756 817 772 817 c 2,62,-1
 1053 821 l 1,63,64
 1080 813 1080 813 1079 795 c 2,65,-1
 1079 743 l 2,66,67
 1079 714 1079 714 1038 715 c 2,68,-1
 735 717 l 2,69,70
 706 717 706 717 694 715 c 0,71,72
 680 715 680 715 674 702 c 2,73,-1
 637 618 l 1,74,-1
 637 258 l 2,75,76
 637 131 637 131 660.5 97 c 128,-1,77
 684 63 684 63 762 63 c 2,78,-1
 784 63 l 2,79,80
 815 63 815 63 815 37 c 2,81,-1
 815 12 l 2,82,83
 815 -4 815 -4 810 -7 c 128,-1,84
 805 -10 805 -10 782 -8 c 0,85,86
 524 6 524 6 283 -8 c 0,87,88
 271 -8 271 -8 262.5 -2 c 128,-1,89
 254 4 254 4 256 12 c 2,90,-1
 258 39 l 2,91,92
 260 62 260 62 285 61 c 2,93,-1
 303 61 l 2,94,95
 393 61 393 61 415.5 93 c 128,-1,96
 438 125 438 125 438 258 c 2,97,-1
 438 596 l 1,98,-1
 393 696 l 2,99,100
 385 716 385 716 365 717 c 2,101,-1
 350 717 l 1,102,-1
 35 717 l 2,103,104
 -2 717 -2 717 -2 750 c 2,105,-1
 -2 799 l 2,106,107
 -2 822 -2 822 39 821 c 2,108,-1
 291 817 l 2,109,110
 311 817 311 817 323.5 823 c 128,-1,111
 336 829 336 829 330 848 c 2,112,-1
 274 979 l 2,113,114
 262 1008 262 1008 242 1008 c 2,115,-1
 29 1008 l 2,116,117
 -2 1008 -2 1008 -2 1036 c 2,118,-1
 -2 1083 l 2,119,120
 -2 1110 -2 1110 33 1110 c 2,121,-1
 180 1110 l 2,122,123
 190 1110 190 1110 201.5 1118 c 128,-1,124
 213 1126 213 1126 209 1135 c 2,125,-1
 170 1227 l 2,126,127
 137 1309 137 1309 104.5 1337.5 c 128,-1,128
 72 1366 72 1366 14 1370 c 0,129,130
 0 1370 0 1370 -2 1391 c 0,131,132
 -6 1395 -6 1395 -6 1409 c 0,0,1
485 985 m 2,133,-1
 569 780 l 2,134,135
 573 768 573 768 582.5 768 c 128,-1,136
 592 768 592 768 600 784 c 2,137,-1
 680 983 l 2,138,139
 688 1008 688 1008 668 1008 c 2,140,-1
 502 1008 l 2,141,142
 475 1008 475 1008 485 985 c 2,133,-1
EndSplineSet
Validated: 33
EndChar

StartChar: brokenbar
Encoding: 166 166 104
Width: 1093
GlyphClass: 2
Flags: W
LayerCount: 2
Fore
SplineSet
483 -45 m 1,0,-1
 483 733 l 1,1,-1
 616 733 l 1,2,-1
 616 -45 l 1,3,-1
 483 -45 l 1,0,-1
483 981 m 1,4,-1
 483 1761 l 1,5,-1
 616 1761 l 1,6,-1
 616 981 l 1,7,-1
 483 981 l 1,4,-1
EndSplineSet
Validated: 1
EndChar

StartChar: section
Encoding: 167 167 105
Width: 1005
GlyphClass: 2
Flags: W
LayerCount: 2
Fore
SplineSet
109 881 m 0,0,1
 109 1106 109 1106 254 1269 c 128,-1,2
 399 1432 399 1432 598 1432 c 0,3,4
 643 1432 643 1432 705.5 1416.5 c 128,-1,5
 768 1401 768 1401 824.5 1364 c 128,-1,6
 881 1327 881 1327 881 1280 c 0,7,8
 881 1245 881 1245 853 1217.5 c 128,-1,9
 825 1190 825 1190 791 1190 c 0,10,11
 750 1190 750 1190 700 1239 c 0,12,13
 696 1243 696 1243 691 1247 c 128,-1,14
 686 1251 686 1251 681 1257.5 c 128,-1,15
 676 1264 676 1264 674 1266 c 0,16,17
 600 1344 600 1344 535 1343 c 0,18,19
 459 1343 459 1343 405.5 1295 c 128,-1,20
 352 1247 352 1247 352 1180 c 0,21,22
 352 1162 352 1162 359.5 1136 c 128,-1,23
 367 1110 367 1110 382 1080.5 c 128,-1,24
 397 1051 397 1051 411.5 1025 c 128,-1,25
 426 999 426 999 449.5 964.5 c 128,-1,26
 473 930 473 930 486.5 910.5 c 128,-1,27
 500 891 500 891 523.5 859 c 128,-1,28
 547 827 547 827 551 821 c 0,29,30
 721 579 721 579 785.5 465.5 c 128,-1,31
 850 352 850 352 881 240 c 0,32,33
 903 152 903 152 903 39 c 0,34,35
 903 -172 903 -172 755.5 -328.5 c 128,-1,36
 608 -485 608 -485 410 -485 c 0,37,38
 306 -485 306 -485 221.5 -442 c 128,-1,39
 137 -399 137 -399 137 -338 c 0,40,41
 137 -305 137 -305 161.5 -276.5 c 128,-1,42
 186 -248 186 -248 219 -248 c 0,43,44
 231 -248 231 -248 241.5 -252 c 128,-1,45
 252 -256 252 -256 260 -260 c 128,-1,46
 268 -264 268 -264 278.5 -273.5 c 128,-1,47
 289 -283 289 -283 293 -288 c 128,-1,48
 297 -293 297 -293 308 -305 c 128,-1,49
 319 -317 319 -317 322 -322 c 0,50,51
 396 -402 396 -402 479 -401 c 0,52,53
 549 -401 549 -401 605.5 -353 c 128,-1,54
 662 -305 662 -305 662 -246 c 0,55,56
 662 -158 662 -158 543 6 c 0,57,58
 336 293 336 293 229 481 c 0,59,60
 108 694 108 694 109 881 c 0,0,1
246 1090 m 0,61,62
 158 859 158 859 297 582 c 0,63,64
 354 471 354 471 486 276.5 c 128,-1,65
 618 82 618 82 670 -10 c 0,66,67
 723 -106 723 -106 737 -147 c 0,68,69
 743 -163 743 -163 754 -158 c 0,70,71
 766 -152 766 -152 772 -135 c 0,72,73
 797 -72 797 -72 797 18 c 0,74,75
 797 190 797 190 723 348 c 0,76,77
 684 424 684 424 641 492 c 0,78,79
 594 562 594 562 543 639 c 0,80,81
 467 750 467 750 397 858 c 0,82,83
 301 1005 301 1005 274 1090 c 0,84,85
 264 1115 264 1115 258 1112 c 0,86,87
 252 1108 252 1108 246 1090 c 0,61,62
EndSplineSet
Validated: 33
EndChar

StartChar: dieresis
Encoding: 168 168 106
Width: 712
GlyphClass: 2
Flags: W
LayerCount: 2
Fore
SplineSet
53 1108 m 128,-1,1
 53 1159 53 1159 89 1195 c 128,-1,2
 125 1231 125 1231 176 1231 c 128,-1,3
 227 1231 227 1231 263 1195 c 128,-1,4
 299 1159 299 1159 299 1108 c 128,-1,5
 299 1057 299 1057 263 1021 c 128,-1,6
 227 985 227 985 176 985 c 128,-1,7
 125 985 125 985 89 1021 c 128,-1,0
 53 1057 53 1057 53 1108 c 128,-1,1
416 1108 m 128,-1,9
 416 1159 416 1159 451.5 1195 c 128,-1,10
 487 1231 487 1231 538.5 1231 c 128,-1,11
 590 1231 590 1231 627 1195 c 128,-1,12
 664 1159 664 1159 664 1108 c 128,-1,13
 664 1057 664 1057 627 1021 c 128,-1,14
 590 985 590 985 538.5 985 c 128,-1,15
 487 985 487 985 451.5 1021 c 128,-1,8
 416 1057 416 1057 416 1108 c 128,-1,9
EndSplineSet
Validated: 1
EndChar

StartChar: copyright
Encoding: 169 169 107
Width: 1630
GlyphClass: 2
Flags: W
LayerCount: 2
Fore
SplineSet
86 713 m 128,-1,1
 86 1018 86 1018 301 1235 c 128,-1,2
 516 1452 516 1452 819 1452 c 128,-1,3
 1122 1452 1122 1452 1337 1236 c 128,-1,4
 1552 1020 1552 1020 1552 713 c 0,5,6
 1552 408 1552 408 1337 190.5 c 128,-1,7
 1122 -27 1122 -27 819 -27 c 128,-1,8
 516 -27 516 -27 301 190.5 c 128,-1,0
 86 408 86 408 86 713 c 128,-1,1
172 713 m 0,9,10
 172 443 172 443 361.5 251 c 128,-1,11
 551 59 551 59 819 59 c 128,-1,12
 1087 59 1087 59 1276.5 251 c 128,-1,13
 1466 443 1466 443 1466 713 c 0,14,15
 1466 985 1466 985 1276.5 1175.5 c 128,-1,16
 1087 1366 1087 1366 819 1366 c 128,-1,17
 551 1366 551 1366 361.5 1175.5 c 128,-1,18
 172 985 172 985 172 713 c 0,9,10
340 707 m 0,19,20
 340 916 340 916 489.5 1055 c 128,-1,21
 639 1194 639 1194 860 1194 c 0,22,23
 936 1194 936 1194 1051 1155 c 0,24,25
 1076 1147 1076 1147 1085 1147 c 0,26,27
 1099 1147 1099 1147 1106.5 1155 c 128,-1,28
 1114 1163 1114 1163 1126 1194 c 1,29,-1
 1167 1194 l 2,30,31
 1185 1194 1185 1194 1188 1171 c 2,32,-1
 1206 932 l 1,33,-1
 1206 897 l 2,34,35
 1206 883 1206 883 1192 883 c 2,36,-1
 1159 883 l 2,37,38
 1147 883 1147 883 1143 895 c 0,39,40
 1141 897 1141 897 1139 907.5 c 128,-1,41
 1137 918 1137 918 1133 924 c 0,42,43
 1057 1125 1057 1125 848 1124 c 0,44,45
 705 1124 705 1124 618.5 1021 c 128,-1,46
 532 918 532 918 532 737 c 0,47,48
 532 538 532 538 617 432 c 128,-1,49
 702 326 702 326 858 326 c 0,50,51
 1042 326 1042 326 1157 475 c 0,52,53
 1173 495 1173 495 1186 487 c 2,54,-1
 1217 471 l 2,55,56
 1233 462 1233 462 1217 442 c 0,57,58
 1065 239 1065 239 823 240 c 0,59,60
 618 240 618 240 479 374 c 128,-1,61
 340 508 340 508 340 707 c 0,19,20
EndSplineSet
Validated: 33
EndChar

StartChar: ordfeminine
Encoding: 170 170 108
Width: 557
GlyphClass: 2
Flags: W
LayerCount: 2
Fore
SplineSet
47 942 m 0,0,1
 47 1036 47 1036 193 1069 c 0,2,3
 269 1087 269 1087 332 1120 c 1,4,-1
 332 1217 l 2,5,6
 332 1321 332 1321 242 1321 c 0,7,8
 213 1321 213 1321 186 1300 c 1,9,10
 170 1282 170 1282 170 1272 c 2,11,-1
 178 1239 l 1,12,-1
 66 1188 l 1,13,14
 56 1217 56 1217 55 1223 c 0,15,16
 55 1268 55 1268 143 1331 c 0,17,18
 209 1380 209 1380 270 1380 c 0,19,20
 364 1380 364 1380 405 1336 c 128,-1,21
 446 1292 446 1292 446 1192 c 2,22,-1
 446 1022 l 1,23,-1
 446 965 l 2,24,25
 446 910 446 910 473 909 c 0,26,27
 493 909 493 909 543 942 c 1,28,-1
 557 903 l 1,29,30
 461 823 461 823 410 823 c 0,31,32
 349 823 349 823 336 893 c 1,33,34
 332 891 332 891 328 887 c 128,-1,35
 324 883 324 883 319 881 c 0,36,37
 245 824 245 824 182 823 c 0,38,39
 123 823 123 823 85 856 c 128,-1,40
 47 889 47 889 47 942 c 0,0,1
160 956 m 0,41,42
 160 927 160 927 179.5 909 c 128,-1,43
 199 891 199 891 227 891 c 0,44,45
 254 891 254 891 293 918.5 c 128,-1,46
 332 946 332 946 332 969 c 2,47,-1
 332 1069 l 1,48,49
 293 1053 293 1053 266 1042 c 0,50,51
 194 1013 194 1013 177 998 c 128,-1,52
 160 983 160 983 160 956 c 0,41,42
EndSplineSet
Validated: 1
EndChar

StartChar: guillemotleft
Encoding: 171 171 109
Width: 759
GlyphClass: 2
Flags: W
LayerCount: 2
Fore
SplineSet
63 471 m 1,0,-1
 383 881 l 1,1,-1
 446 881 l 1,2,-1
 240 471 l 1,3,-1
 240 473 l 1,4,-1
 446 68 l 1,5,-1
 383 68 l 1,6,-1
 63 471 l 1,0,-1
362 471 m 1,7,-1
 618 846 l 1,8,-1
 676 846 l 1,9,-1
 539 471 l 1,10,-1
 678 104 l 1,11,-1
 618 104 l 1,12,-1
 362 471 l 1,7,-1
EndSplineSet
Validated: 5
EndChar

StartChar: logicalnot
Encoding: 172 172 110
Width: 1429
GlyphClass: 2
Flags: W
LayerCount: 2
Fore
SplineSet
145 881 m 1,0,-1
 145 1018 l 1,1,-1
 1290 1018 l 1,2,-1
 1290 373 l 1,3,-1
 1155 373 l 1,4,-1
 1155 881 l 1,5,-1
 145 881 l 1,0,-1
EndSplineSet
Validated: 1
EndChar

StartChar: uni00AD
Encoding: 173 173 111
Width: 890
GlyphClass: 2
Flags: W
LayerCount: 2
Fore
SplineSet
90 432 m 1,0,-1
 90 514 l 2,1,2
 90 530 90 530 103.5 539.5 c 128,-1,3
 117 549 117 549 129 549 c 0,4,5
 197 547 197 547 432.5 550 c 128,-1,6
 668 553 668 553 782 549 c 0,7,8
 792 549 792 549 801.5 537.5 c 128,-1,9
 811 526 811 526 811 516 c 2,10,-1
 807 436 l 1,11,12
 801 411 801 411 772 408 c 0,13,14
 614 412 614 412 414.5 409 c 128,-1,15
 215 406 215 406 111 408 c 0,16,17
 97 408 97 408 90 432 c 1,0,-1
EndSplineSet
Validated: 33
EndChar

StartChar: registered
Encoding: 174 174 112
Width: 1630
GlyphClass: 2
Flags: W
LayerCount: 2
Fore
SplineSet
63 713 m 0,0,1
 63 1026 63 1026 282.5 1247 c 128,-1,2
 502 1468 502 1468 811 1468 c 128,-1,3
 1120 1468 1120 1468 1339.5 1247 c 128,-1,4
 1559 1026 1559 1026 1559 713 c 0,5,6
 1559 402 1559 402 1339.5 180.5 c 128,-1,7
 1120 -41 1120 -41 811 -41 c 128,-1,8
 502 -41 502 -41 282.5 180 c 128,-1,9
 63 401 63 401 63 713 c 0,0,1
152 712.5 m 128,-1,11
 152 436 152 436 344.5 241.5 c 128,-1,12
 537 47 537 47 811 47 c 128,-1,13
 1085 47 1085 47 1279 241.5 c 128,-1,14
 1473 436 1473 436 1473 712.5 c 128,-1,15
 1473 989 1473 989 1279 1183.5 c 128,-1,16
 1085 1378 1085 1378 811 1378 c 128,-1,17
 537 1378 537 1378 344.5 1183.5 c 128,-1,10
 152 989 152 989 152 712.5 c 128,-1,11
393 266 m 2,18,-1
 393 295 l 2,19,20
 393 311 393 311 418 311 c 0,21,22
 473 313 473 313 487.5 334.5 c 128,-1,23
 502 356 502 356 502 442 c 2,24,-1
 502 991 l 2,25,26
 502 1077 502 1077 489.5 1097.5 c 128,-1,27
 477 1118 477 1118 426 1122 c 0,28,29
 406 1122 406 1122 406 1141 c 2,30,-1
 406 1159 l 2,31,32
 406 1175 406 1175 408 1178 c 0,33,34
 412 1182 412 1182 434 1182 c 0,35,36
 475 1180 475 1180 544.5 1180 c 128,-1,37
 614 1180 614 1180 701 1181 c 128,-1,38
 788 1182 788 1182 817 1182 c 0,39,40
 958 1184 958 1184 1047.5 1115.5 c 128,-1,41
 1137 1047 1137 1047 1137 936 c 0,42,43
 1137 770 1137 770 934 700 c 0,44,45
 914 696 914 696 928 676 c 2,46,-1
 1122 397 l 2,47,48
 1157 348 1157 348 1179.5 330.5 c 128,-1,49
 1202 313 1202 313 1237 311 c 0,50,51
 1249 311 1249 311 1249 307 c 2,52,-1
 1249 299 l 1,53,-1
 1249 289 l 1,54,-1
 1249 268 l 2,55,56
 1249 250 1249 250 1225 250 c 0,57,58
 1133 254 1133 254 1059 250 c 0,59,60
 1041 250 1041 250 1030 264 c 2,61,-1
 733 676 l 1,62,-1
 694 676 l 2,63,64
 674 676 674 676 674 639 c 2,65,-1
 674 440 l 1,66,-1
 674 362 l 2,67,68
 674 313 674 313 782 311 c 0,69,70
 796 311 796 311 797 291 c 2,71,-1
 797 268 l 1,72,-1
 797 256 l 2,73,74
 797 250 797 250 788 250 c 2,75,-1
 772 250 l 1,76,77
 577 260 577 260 418 250 c 0,78,79
 393 250 393 250 393 266 c 2,18,-1
674 764 m 2,80,81
 674 752 674 752 677 747.5 c 128,-1,82
 680 743 680 743 694 743 c 0,83,84
 815 743 815 743 880.5 791.5 c 128,-1,85
 946 840 946 840 946 924 c 0,86,87
 946 1006 946 1006 891 1059 c 128,-1,88
 836 1112 836 1112 750 1112 c 0,89,90
 713 1112 713 1112 674 1100 c 1,91,-1
 674 764 l 2,80,81
EndSplineSet
Validated: 33
EndChar

StartChar: macron
Encoding: 175 175 113
Width: 714
GlyphClass: 2
Flags: W
LayerCount: 2
Fore
SplineSet
18 1063 m 2,0,-1
 18 1155 l 2,1,2
 18 1178 18 1178 61 1178 c 2,3,-1
 82 1178 l 1,4,-1
 657 1178 l 2,5,6
 680 1178 680 1178 689 1171.5 c 128,-1,7
 698 1165 698 1165 698 1145 c 2,8,-1
 698 1055 l 2,9,10
 698 1024 698 1024 651 1024 c 2,11,-1
 53 1024 l 2,12,13
 18 1024 18 1024 18 1063 c 2,0,-1
EndSplineSet
Validated: 1
EndChar

StartChar: degree
Encoding: 176 176 114
Width: 849
GlyphClass: 2
Flags: W
LayerCount: 2
Fore
SplineSet
98 1053 m 0,0,1
 98 1192 98 1192 193.5 1289 c 128,-1,2
 289 1386 289 1386 426 1386 c 128,-1,3
 563 1386 563 1386 659.5 1289 c 128,-1,4
 756 1192 756 1192 756 1053 c 0,5,6
 756 916 756 916 659.5 818.5 c 128,-1,7
 563 721 563 721 426 721 c 128,-1,8
 289 721 289 721 193.5 818 c 128,-1,9
 98 915 98 915 98 1053 c 0,0,1
209 1053 m 0,10,11
 209 963 209 963 272.5 898.5 c 128,-1,12
 336 834 336 834 426 834 c 128,-1,13
 516 834 516 834 580.5 898.5 c 128,-1,14
 645 963 645 963 645 1053 c 0,15,16
 645 1145 645 1145 580.5 1209.5 c 128,-1,17
 516 1274 516 1274 426 1274 c 128,-1,18
 336 1274 336 1274 272.5 1209.5 c 128,-1,19
 209 1145 209 1145 209 1053 c 0,10,11
EndSplineSet
Validated: 1
EndChar

StartChar: plusminus
Encoding: 177 177 115
Width: 1429
GlyphClass: 2
Flags: W
LayerCount: 2
Fore
SplineSet
145 -2 m 1,0,-1
 145 43 l 2,1,2
 145 70 145 70 151.5 79 c 128,-1,3
 158 88 158 88 184 86 c 0,4,5
 237 82 237 82 609 82 c 128,-1,6
 981 82 981 82 1249 86 c 0,7,8
 1274 86 1274 86 1282 78 c 128,-1,9
 1290 70 1290 70 1290 45 c 2,10,-1
 1290 -8 l 2,11,12
 1290 -39 1290 -39 1270 -45 c 0,13,14
 1258 -51 1258 -51 1221 -51 c 0,15,16
 988 -53 988 -53 201 -53 c 0,17,18
 162 -53 162 -53 152 -43 c 0,19,20
 150 -39 150 -39 145 -27 c 1,21,-1
 145 -2 l 1,0,-1
145 836 m 2,22,-1
 145 891 l 1,23,-1
 145 911 l 2,24,25
 145 919 145 919 147 924 c 0,26,27
 153 932 153 932 180 932 c 2,28,-1
 618 932 l 2,29,30
 638 932 638 932 643.5 937 c 128,-1,31
 649 942 649 942 649 961 c 2,32,-1
 649 1368 l 2,33,34
 649 1374 649 1374 648 1382.5 c 128,-1,35
 647 1391 647 1391 647 1395 c 0,36,37
 647 1442 647 1442 676 1442 c 2,38,-1
 756 1442 l 2,39,40
 774 1442 774 1442 779 1434.5 c 128,-1,41
 784 1427 784 1427 784 1397 c 2,42,-1
 784 954 l 1,43,44
 780 931 780 931 805 932 c 2,45,-1
 1247 932 l 2,46,47
 1276 932 1276 932 1283 925 c 128,-1,48
 1290 918 1290 918 1290 897 c 2,49,-1
 1290 834 l 2,50,51
 1290 807 1290 807 1281 802 c 128,-1,52
 1272 797 1272 797 1241 797 c 2,53,-1
 815 797 l 1,54,-1
 799 797 l 2,55,56
 793 797 793 797 791 795 c 0,57,58
 785 791 785 791 784 774 c 2,59,-1
 784 332 l 2,60,61
 784 301 784 301 778 296 c 128,-1,62
 772 291 772 291 741 291 c 1,63,64
 706 281 706 281 680 291 c 1,65,66
 655 291 655 291 649 301 c 2,67,-1
 647 307 l 2,68,69
 647 311 647 311 647 313 c 128,-1,70
 647 315 647 315 648 321.5 c 128,-1,71
 649 328 649 328 649 332 c 2,72,-1
 649 770 l 2,73,74
 649 786 649 786 643 791.5 c 128,-1,75
 637 797 637 797 621 797 c 2,76,-1
 188 797 l 2,77,78
 161 797 161 797 153 803 c 128,-1,79
 145 809 145 809 145 836 c 2,22,-1
EndSplineSet
Validated: 1
EndChar

StartChar: uni00B2
Encoding: 178 178 116
Width: 614
GlyphClass: 2
Flags: W
LayerCount: 2
Fore
SplineSet
18 633 m 2,0,-1
 18 664 l 1,1,2
 71 727 71 727 186 825 c 0,3,4
 188 827 188 827 214 847.5 c 128,-1,5
 240 868 240 868 246 874.5 c 128,-1,6
 252 881 252 881 275.5 901.5 c 128,-1,7
 299 922 299 922 307 933 c 128,-1,8
 315 944 315 944 333.5 963.5 c 128,-1,9
 352 983 352 983 359.5 997.5 c 128,-1,10
 367 1012 367 1012 377 1030.5 c 128,-1,11
 387 1049 387 1049 391 1067 c 128,-1,12
 395 1085 395 1085 395 1104 c 0,13,14
 395 1151 395 1151 358.5 1185 c 128,-1,15
 322 1219 322 1219 266.5 1219 c 128,-1,16
 211 1219 211 1219 167 1183 c 128,-1,17
 123 1147 123 1147 102 1083 c 0,18,19
 98 1073 98 1073 64.5 1074 c 128,-1,20
 31 1075 31 1075 31 1087 c 0,21,22
 41 1196 41 1196 115.5 1259.5 c 128,-1,23
 190 1323 190 1323 299 1323 c 0,24,25
 403 1323 403 1323 476 1265.5 c 128,-1,26
 549 1208 549 1208 549 1118 c 0,27,28
 549 1100 549 1100 545 1080.5 c 128,-1,29
 541 1061 541 1061 536.5 1046.5 c 128,-1,30
 532 1032 532 1032 521 1015.5 c 128,-1,31
 510 999 510 999 505 989 c 128,-1,32
 500 979 500 979 481.5 962.5 c 128,-1,33
 463 946 463 946 458 940 c 128,-1,34
 453 934 453 934 430.5 917.5 c 128,-1,35
 408 901 408 901 403.5 898 c 128,-1,36
 399 895 399 895 373.5 877.5 c 128,-1,37
 348 860 348 860 346 858 c 0,38,39
 272 809 272 809 195 739 c 0,40,41
 189 735 189 735 199 731 c 0,42,43
 211 727 211 727 221 727 c 2,44,-1
 397 727 l 2,45,46
 463 727 463 727 475 735 c 0,47,48
 481 741 481 741 487 754 c 0,49,50
 487 758 487 758 491.5 772 c 128,-1,51
 496 786 496 786 498 799 c 0,52,53
 500 809 500 809 522 809 c 2,54,-1
 537 809 l 2,55,56
 573 809 573 809 573 797 c 0,57,58
 546 631 546 631 545 631 c 2,59,-1
 547 631 l 1,60,61
 541 617 541 617 514 616 c 2,62,-1
 39 616 l 2,63,64
 19 616 19 616 18 633 c 2,0,-1
EndSplineSet
Validated: 1
EndChar

StartChar: uni00B3
Encoding: 179 179 117
Width: 614
GlyphClass: 2
Flags: W
LayerCount: 2
Fore
SplineSet
4 698 m 0,0,1
 4 723 4 723 23.5 740.5 c 128,-1,2
 43 758 43 758 70 758 c 0,3,4
 82 758 82 758 97.5 751.5 c 128,-1,5
 113 745 113 745 122 740 c 128,-1,6
 131 735 131 735 148.5 723 c 128,-1,7
 166 711 166 711 170 709 c 0,8,9
 215 676 215 676 252 676 c 0,10,11
 307 676 307 676 351 725 c 128,-1,12
 395 774 395 774 395 842 c 0,13,14
 395 893 395 893 364.5 928 c 128,-1,15
 334 963 334 963 295 963 c 0,16,17
 260 963 260 963 223 936 c 1,18,19
 188 916 188 916 168 948 c 0,20,21
 164 956 164 956 167 970.5 c 128,-1,22
 170 985 170 985 178 989 c 0,23,24
 334 1089 334 1089 334 1153 c 0,25,26
 334 1182 334 1182 308.5 1203.5 c 128,-1,27
 283 1225 283 1225 246 1225 c 0,28,29
 160 1225 160 1225 102 1122 c 1,30,31
 82 1095 82 1095 54.5 1112.5 c 128,-1,32
 27 1130 27 1130 33 1149 c 0,33,34
 72 1231 72 1231 138.5 1277 c 128,-1,35
 205 1323 205 1323 287 1323 c 0,36,37
 363 1323 363 1323 416 1285 c 128,-1,38
 469 1247 469 1247 469 1186 c 0,39,40
 469 1118 469 1118 401 1067 c 0,41,42
 387 1055 387 1055 403 1049 c 0,43,44
 466 1029 466 1029 503.5 981.5 c 128,-1,45
 541 934 541 934 541 868 c 0,46,47
 541 759 541 759 439.5 680.5 c 128,-1,48
 338 602 338 602 209 602 c 0,49,50
 131 602 131 602 67.5 628.5 c 128,-1,51
 4 655 4 655 4 698 c 0,0,1
EndSplineSet
Validated: 1
EndChar

StartChar: acute
Encoding: 180 180 118
Width: 714
GlyphClass: 2
Flags: W
LayerCount: 2
Fore
SplineSet
242 991 m 2,0,-1
 342 1327 l 1,1,2
 356 1354 356 1354 381 1354 c 2,3,-1
 561 1354 l 2,4,5
 573 1356 573 1356 582.5 1350.5 c 128,-1,6
 592 1345 592 1345 590 1335 c 0,7,8
 590 1333 590 1333 590 1329 c 2,9,-1
 588 1325 l 1,10,-1
 295 973 l 2,11,12
 285 961 285 961 260.5 965 c 128,-1,13
 236 969 236 969 242 991 c 2,0,-1
EndSplineSet
Validated: 1
EndChar

StartChar: paragraph
Encoding: 182 182 119
Width: 960
GlyphClass: 2
Flags: W
LayerCount: 2
Fore
SplineSet
-18 940 m 0,0,1
 -18 1133 -18 1133 109 1241.5 c 128,-1,2
 236 1350 236 1350 459 1352 c 0,3,4
 912 1352 912 1352 948.5 1354 c 128,-1,5
 985 1356 985 1356 985 1325 c 2,6,-1
 985 1288 l 2,7,8
 985 1263 985 1263 950 1264 c 2,9,-1
 872 1264 l 2,10,11
 845 1264 845 1264 846 1227 c 2,12,-1
 846 -477 l 2,13,14
 846 -500 846 -500 841 -505 c 128,-1,15
 836 -510 836 -510 811 -510 c 2,16,-1
 778 -510 l 2,17,18
 743 -510 743 -510 743 -479 c 2,19,-1
 745 1227 l 2,20,21
 745 1260 745 1260 709 1260 c 2,22,-1
 604 1260 l 2,23,24
 577 1260 577 1260 578 1231 c 2,25,-1
 580 -485 l 2,26,27
 580 -510 580 -510 547 -510 c 2,28,-1
 504 -510 l 2,29,30
 484 -510 484 -510 478.5 -504 c 128,-1,31
 473 -498 473 -498 473 -477 c 2,32,-1
 473 502 l 2,33,34
 473 533 473 533 436 532 c 0,35,36
 276 534 276 534 179 585.5 c 128,-1,37
 82 637 82 637 29 737 c 0,38,39
 -18 825 -18 825 -18 940 c 0,0,1
EndSplineSet
Validated: 1
EndChar

StartChar: periodcentered
Encoding: 183 183 120
Width: 526
GlyphClass: 2
Flags: W
LayerCount: 2
Fore
SplineSet
156 575.5 m 128,-1,1
 156 621 156 621 187.5 653.5 c 128,-1,2
 219 686 219 686 264 686 c 128,-1,3
 309 686 309 686 341 654 c 128,-1,4
 373 622 373 622 373 575 c 0,5,6
 373 530 373 530 341 497.5 c 128,-1,7
 309 465 309 465 264 465 c 128,-1,8
 219 465 219 465 187.5 497.5 c 128,-1,0
 156 530 156 530 156 575.5 c 128,-1,1
EndSplineSet
Validated: 1
EndChar

StartChar: cedilla
Encoding: 184 184 121
Width: 714
GlyphClass: 2
Flags: W
LayerCount: 2
Fore
SplineSet
211 -266 m 2,0,-1
 381 20 l 1,1,-1
 438 20 l 1,2,-1
 381 -86 l 2,3,4
 377 -94 377 -94 377 -98 c 0,5,6
 379 -100 379 -100 383 -101 c 128,-1,7
 387 -102 387 -102 389 -102 c 0,8,9
 448 -110 448 -110 487 -156.5 c 128,-1,10
 526 -203 526 -203 526 -266 c 0,11,12
 526 -346 526 -346 470 -402.5 c 128,-1,13
 414 -459 414 -459 334 -459 c 0,14,15
 287 -459 287 -459 248 -444 c 0,16,17
 225 -436 225 -436 240 -414 c 0,18,19
 246 -402 246 -402 248 -399 c 0,20,21
 252 -387 252 -387 266 -391 c 0,22,23
 297 -397 297 -397 311 -397 c 0,24,25
 354 -397 354 -397 384 -368.5 c 128,-1,26
 414 -340 414 -340 414 -301 c 0,27,28
 414 -227 414 -227 356 -227 c 0,29,30
 327 -227 327 -227 227 -279 c 0,31,32
 219 -283 219 -283 212 -279.5 c 128,-1,33
 205 -276 205 -276 211 -266 c 2,0,-1
EndSplineSet
Validated: 1
EndChar

StartChar: uni00B9
Encoding: 185 185 122
Width: 614
GlyphClass: 2
Flags: W
LayerCount: 2
Fore
SplineSet
100 1149 m 1,0,1
 241 1233 241 1233 309 1315 c 0,2,3
 313 1321 313 1321 354 1321 c 128,-1,4
 395 1321 395 1321 395 1309 c 2,5,-1
 395 723 l 2,6,7
 395 700 395 700 399 694 c 0,8,9
 403 686 403 686 424 684 c 0,10,11
 447 684 447 684 457 686 c 0,12,13
 475 686 475 686 483.5 685 c 128,-1,14
 492 684 492 684 500 673.5 c 128,-1,15
 508 663 508 663 508 645 c 0,16,17
 508 612 508 612 494 612 c 0,18,19
 328 618 328 618 164 612 c 0,20,21
 148 612 148 612 147.5 645 c 128,-1,22
 147 678 147 678 164 678 c 2,23,-1
 223 684 l 2,24,25
 248 688 248 688 255 694 c 128,-1,26
 262 700 262 700 262 721 c 2,27,-1
 260 1147 l 2,28,29
 258 1159 258 1159 256 1161 c 0,30,31
 233 1147 233 1147 193 1126 c 0,32,33
 164 1114 164 1114 131 1102 c 1,34,35
 111 1100 111 1100 100.5 1118.5 c 128,-1,36
 90 1137 90 1137 100 1149 c 1,0,1
EndSplineSet
Validated: 33
EndChar

StartChar: ordmasculine
Encoding: 186 186 123
Width: 737
GlyphClass: 2
Flags: W
LayerCount: 2
Fore
SplineSet
63 1102 m 128,-1,1
 63 1221 63 1221 150.5 1300.5 c 128,-1,2
 238 1380 238 1380 369 1380 c 128,-1,3
 500 1380 500 1380 589 1300.5 c 128,-1,4
 678 1221 678 1221 678 1102 c 128,-1,5
 678 983 678 983 589 903 c 128,-1,6
 500 823 500 823 373 823 c 0,7,8
 240 823 240 823 151.5 903 c 128,-1,0
 63 983 63 983 63 1102 c 128,-1,1
188 1141 m 0,9,10
 188 1030 188 1030 247.5 954.5 c 128,-1,11
 307 879 307 879 389 879 c 0,12,13
 459 879 459 879 505 933 c 128,-1,14
 551 987 551 987 551 1071 c 0,15,16
 551 1177 551 1177 490.5 1252 c 128,-1,17
 430 1327 430 1327 350 1327 c 0,18,19
 280 1327 280 1327 234 1275 c 128,-1,20
 188 1223 188 1223 188 1141 c 0,9,10
EndSplineSet
Validated: 1
EndChar

StartChar: guillemotright
Encoding: 187 187 124
Width: 759
GlyphClass: 2
Flags: W
LayerCount: 2
Fore
SplineSet
86 104 m 1,0,-1
 223 471 l 1,1,-1
 86 846 l 1,2,-1
 147 846 l 1,3,-1
 399 471 l 1,4,-1
 147 104 l 1,5,-1
 86 104 l 1,0,-1
315 68 m 1,6,-1
 522 473 l 1,7,-1
 522 471 l 1,8,-1
 315 881 l 1,9,-1
 379 881 l 1,10,-1
 700 471 l 1,11,-1
 379 68 l 1,12,-1
 315 68 l 1,6,-1
EndSplineSet
Validated: 5
EndChar

StartChar: onequarter
Encoding: 188 188 125
Width: 1464
GlyphClass: 2
Flags: W
LayerCount: 2
Fore
SplineSet
100 1149 m 1,0,1
 245 1237 245 1237 311 1315 c 0,2,3
 315 1321 315 1321 357 1321 c 128,-1,4
 399 1321 399 1321 399 1309 c 2,5,-1
 399 721 l 2,6,7
 399 698 399 698 404.5 691 c 128,-1,8
 410 684 410 684 430 682 c 2,9,-1
 461 682 l 2,10,11
 488 684 488 684 500 677 c 128,-1,12
 512 670 512 670 512 643 c 0,13,14
 512 610 512 610 498 610 c 0,15,16
 328 616 328 616 166 610 c 0,17,18
 148 610 148 610 147 643 c 1,19,20
 151 676 151 676 164 676 c 2,21,-1
 227 680 l 2,22,23
 250 682 250 682 256 689 c 128,-1,24
 262 696 262 696 262 719 c 2,25,-1
 262 1145 l 2,26,27
 260 1159 260 1159 258 1159 c 0,28,29
 227 1139 227 1139 195 1126 c 0,30,31
 154 1110 154 1110 131 1100 c 1,32,33
 111 1100 111 1100 100.5 1118.5 c 128,-1,34
 90 1137 90 1137 100 1149 c 1,0,1
194.5 -55.5 m 128,-1,36
 190 -41 190 -41 199 -31 c 2,37,-1
 1167 1339 l 1,38,-1
 1171 1348 l 2,39,40
 1175 1352 1175 1352 1184 1352 c 2,41,-1
 1192 1352 l 1,42,-1
 1276 1352 l 2,43,44
 1280 1352 1280 1352 1282 1347.5 c 128,-1,45
 1284 1343 1284 1343 1283 1336 c 128,-1,46
 1282 1329 1282 1329 1278 1321 c 2,47,-1
 307 -53 l 2,48,49
 297 -69 297 -69 279 -70 c 2,50,-1
 213 -70 l 2,51,35
 199 -70 199 -70 194.5 -55.5 c 128,-1,36
856 188 m 2,52,-1
 856 193 l 1,53,-1
 856 197 l 1,54,-1
 856 229 l 1,55,-1
 1219 692 l 1,56,57
 1254 702 1254 702 1278 696 c 0,58,59
 1298 692 1298 692 1296 672 c 2,60,-1
 1296 283 l 2,61,62
 1296 273 1296 273 1319 272 c 2,63,-1
 1399 272 l 2,64,65
 1424 272 1424 272 1423 238 c 2,66,-1
 1423 221 l 2,67,68
 1423 217 1423 217 1424 211 c 128,-1,69
 1425 205 1425 205 1425 203 c 128,-1,70
 1425 201 1425 201 1424 195.5 c 128,-1,71
 1423 190 1423 190 1421 188 c 0,72,73
 1417 176 1417 176 1395 176 c 2,74,-1
 1319 176 l 1,75,76
 1301 172 1301 172 1296 160 c 1,77,-1
 1296 -8 l 2,78,79
 1296 -35 1296 -35 1280 -35 c 2,80,-1
 1231 -35 l 2,81,82
 1198 -35 1198 -35 1188 -31 c 0,83,84
 1161 -27 1161 -27 1159 -14 c 2,85,-1
 1161 158 l 1,86,87
 1157 172 1157 172 1137 176 c 1,88,-1
 885 176 l 2,89,90
 856 176 856 176 856 188 c 2,52,-1
1004 289 m 2,91,92
 994 273 994 273 1012 272 c 2,93,-1
 1137 272 l 2,94,95
 1161 273 1161 273 1161 283 c 2,96,-1
 1161 455 l 2,97,98
 1161 471 1161 471 1159 479 c 0,99,100
 1159 491 1159 491 1151 483 c 2,101,-1
 1004 289 l 2,91,92
EndSplineSet
Validated: 33
EndChar

StartChar: onehalf
Encoding: 189 189 126
Width: 1464
GlyphClass: 2
Flags: W
LayerCount: 2
Fore
SplineSet
100 1149 m 1,0,1
 245 1237 245 1237 311 1315 c 0,2,3
 315 1319 315 1319 340 1321 c 128,-1,4
 365 1323 365 1323 383 1319 c 0,5,6
 399 1317 399 1317 399 1286 c 2,7,-1
 399 721 l 2,8,9
 399 698 399 698 405.5 690 c 128,-1,10
 412 682 412 682 432 680 c 2,11,-1
 463 680 l 2,12,13
 481 682 481 682 489.5 680 c 128,-1,14
 498 678 498 678 505 669.5 c 128,-1,15
 512 661 512 661 512 643 c 0,16,17
 516 610 516 610 498 610 c 0,18,19
 328 616 328 616 166 610 c 0,20,21
 148 610 148 610 147 643 c 1,22,23
 151 676 151 676 164 676 c 2,24,-1
 244 680 l 2,25,26
 262 682 262 682 262 719 c 2,27,-1
 262 1124 l 2,28,29
 262 1132 262 1132 261 1138.5 c 128,-1,30
 260 1145 260 1145 255 1150 c 128,-1,31
 250 1155 250 1155 240 1151 c 0,32,33
 228 1143 228 1143 195 1126 c 0,34,35
 154 1110 154 1110 131 1100 c 1,36,37
 111 1100 111 1100 100.5 1118.5 c 128,-1,38
 90 1137 90 1137 100 1149 c 1,0,1
189 -50 m 128,-1,40
 190 -43 190 -43 193 -41 c 2,41,-1
 1167 1339 l 2,42,43
 1175 1351 1175 1351 1188 1352 c 2,44,-1
 1200 1352 l 1,45,-1
 1270 1352 l 2,46,47
 1278 1352 1278 1352 1281 1342.5 c 128,-1,48
 1284 1333 1284 1333 1278 1321 c 2,49,-1
 307 -53 l 2,50,51
 299 -67 299 -67 281 -70 c 2,52,-1
 266 -70 l 1,53,-1
 211 -70 l 2,54,55
 201 -70 201 -70 194.5 -63.5 c 128,-1,39
 188 -57 188 -57 189 -50 c 128,-1,40
872 2 m 2,56,-1
 872 33 l 1,57,58
 927 99 927 99 1042 195 c 0,59,60
 1169 301 1169 301 1206 356 c 0,61,62
 1249 415 1249 415 1249 473 c 0,63,64
 1249 522 1249 522 1213.5 556 c 128,-1,65
 1178 590 1178 590 1122 590 c 0,66,67
 1003 590 1003 590 958 455 c 0,68,69
 954 445 954 445 920.5 444.5 c 128,-1,70
 887 444 887 444 887 457 c 0,71,72
 897 566 897 566 972 630 c 128,-1,73
 1047 694 1047 694 1155 694 c 0,74,75
 1259 694 1259 694 1332 636 c 128,-1,76
 1405 578 1405 578 1405 487 c 0,77,78
 1405 462 1405 462 1399 440 c 128,-1,79
 1393 418 1393 418 1386.5 401.5 c 128,-1,80
 1380 385 1380 385 1364 364.5 c 128,-1,81
 1348 344 1348 344 1338.5 334 c 128,-1,82
 1329 324 1329 324 1305.5 304.5 c 128,-1,83
 1282 285 1282 285 1274 278.5 c 128,-1,84
 1266 272 1266 272 1237 251.5 c 128,-1,85
 1208 231 1208 231 1202 227 c 0,86,87
 1130 180 1130 180 1051 111 c 0,88,89
 1041 105 1041 105 1055 100 c 0,90,91
 1067 96 1067 96 1077 96 c 2,92,-1
 1253 96 l 2,93,94
 1319 96 1319 96 1331 104 c 0,95,96
 1337 110 1337 110 1343 125 c 0,97,98
 1351 158 1351 158 1354 168 c 0,99,100
 1356 180 1356 180 1378 180 c 2,101,-1
 1393 180 l 2,102,103
 1430 180 1430 180 1430 166 c 0,104,105
 1403 0 1403 0 1401 0 c 2,106,-1
 1403 0 l 1,107,108
 1397 -14 1397 -14 1370 -14 c 2,109,-1
 895 -14 l 2,110,111
 872 -14 872 -14 872 2 c 2,56,-1
EndSplineSet
Validated: 33
EndChar

StartChar: threequarters
Encoding: 190 190 127
Width: 1464
GlyphClass: 2
Flags: W
LayerCount: 2
Fore
SplineSet
35 692 m 0,0,1
 35 717 35 717 55.5 734.5 c 128,-1,2
 76 752 76 752 102 752 c 0,3,4
 131 752 131 752 203 700 c 0,5,6
 246 669 246 669 283 670 c 0,7,8
 338 670 338 670 382 718 c 128,-1,9
 426 766 426 766 426 834 c 0,10,11
 426 887 426 887 396.5 921.5 c 128,-1,12
 367 956 367 956 326 956 c 0,13,14
 291 956 291 956 254 930 c 1,15,16
 234 910 234 910 219 926 c 0,17,18
 209 936 209 936 201 952 c 0,19,20
 191 972 191 972 209 983 c 0,21,22
 365 1081 365 1081 365 1147 c 0,23,24
 365 1178 365 1178 340 1198.5 c 128,-1,25
 315 1219 315 1219 276 1219 c 0,26,27
 188 1219 188 1219 135 1114 c 0,28,29
 127 1104 127 1104 92 1114 c 128,-1,30
 57 1124 57 1124 66 1143 c 0,31,32
 101 1225 101 1225 168.5 1271 c 128,-1,33
 236 1317 236 1317 317 1317 c 0,34,35
 393 1317 393 1317 447.5 1279 c 128,-1,36
 502 1241 502 1241 502 1180 c 0,37,38
 502 1117 502 1117 434 1059 c 0,39,40
 416 1047 416 1047 436 1042 c 0,41,42
 571 999 571 999 571 860 c 0,43,44
 571 754 571 754 471 675 c 128,-1,45
 371 596 371 596 242 596 c 0,46,47
 164 596 164 596 99.5 622.5 c 128,-1,48
 35 649 35 649 35 692 c 0,0,1
194.5 -55.5 m 128,-1,50
 190 -41 190 -41 197 -37 c 2,51,-1
 1167 1339 l 2,52,53
 1175 1351 1175 1351 1214 1352 c 2,54,-1
 1257 1352 l 2,55,56
 1269 1352 1269 1352 1274.5 1337.5 c 128,-1,57
 1280 1323 1280 1323 1272 1313 c 2,58,-1
 307 -53 l 2,59,60
 293 -71 293 -71 268 -72 c 2,61,-1
 213 -70 l 2,62,49
 199 -70 199 -70 194.5 -55.5 c 128,-1,50
799 197 m 2,63,-1
 799 199 l 1,64,-1
 799 201 l 1,65,-1
 799 229 l 1,66,-1
 1161 692 l 1,67,68
 1194 702 1194 702 1219 696 c 0,69,70
 1242 692 1242 692 1239 672 c 2,71,-1
 1239 283 l 2,72,73
 1239 273 1239 273 1260 272 c 2,74,-1
 1341 272 l 2,75,76
 1357 272 1357 272 1364 256 c 0,77,78
 1370 241 1370 241 1370 223 c 0,79,80
 1370 176 1370 176 1352 176 c 2,81,-1
 1260 176 l 1,82,83
 1244 172 1244 172 1239 160 c 1,84,-1
 1241 -8 l 1,85,86
 1235 -35 1235 -35 1221 -35 c 2,87,-1
 1169 -35 l 2,88,89
 1134 -35 1134 -35 1122 -31 c 0,90,91
 1104 -29 1104 -29 1102 -14 c 2,92,-1
 1104 158 l 1,93,94
 1098 174 1098 174 1079 176 c 2,95,-1
 827 176 l 2,96,97
 817 176 817 176 807 182 c 128,-1,98
 797 188 797 188 799 197 c 2,63,-1
944 278.5 m 128,-1,100
 946 272 946 272 952 272 c 2,101,-1
 1083 272 l 2,102,103
 1104 273 1104 273 1104 283 c 2,104,-1
 1104 475 l 2,105,106
 1104 487 1104 487 1102 489 c 0,107,108
 1098 491 1098 491 1094 483 c 2,109,-1
 946 289 l 2,110,99
 942 285 942 285 944 278.5 c 128,-1,100
EndSplineSet
Validated: 33
EndChar

StartChar: questiondown
Encoding: 191 191 128
Width: 759
GlyphClass: 2
Flags: W
LayerCount: 2
Fore
SplineSet
82 -115 m 0,0,1
 82 86 82 86 227 188 c 0,2,3
 280 225 280 225 375 260 c 0,4,5
 461 293 461 293 461 348 c 0,6,7
 461 381 461 381 446.5 407.5 c 128,-1,8
 432 434 432 434 381 494 c 0,9,10
 363 514 363 514 385 524 c 0,11,12
 399 530 399 530 419.5 526 c 128,-1,13
 440 522 440 522 449 510 c 0,14,15
 555 379 555 379 555 281 c 0,16,17
 555 207 555 207 517 163 c 128,-1,18
 479 119 479 119 391 84 c 0,19,20
 254 33 254 33 205 -16.5 c 128,-1,21
 156 -66 156 -66 156 -147.5 c 128,-1,22
 156 -229 156 -229 209 -276.5 c 128,-1,23
 262 -324 262 -324 360 -324 c 0,24,25
 391 -324 391 -324 442.5 -316.5 c 128,-1,26
 494 -309 494 -309 520 -309 c 0,27,28
 655 -309 655 -309 655 -397 c 0,29,30
 655 -510 655 -510 459 -510 c 0,31,32
 291 -510 291 -510 186.5 -400.5 c 128,-1,33
 82 -291 82 -291 82 -115 c 0,0,1
303 776 m 0,34,35
 303 823 303 823 338 856 c 128,-1,36
 373 889 373 889 424 889 c 128,-1,37
 475 889 475 889 510 857 c 128,-1,38
 545 825 545 825 545 776 c 0,39,40
 545 725 545 725 510 692 c 128,-1,41
 475 659 475 659 424 659 c 0,42,43
 371 659 371 659 337 692 c 128,-1,44
 303 725 303 725 303 776 c 0,34,35
EndSplineSet
Validated: 1
EndChar

StartChar: Agrave
Encoding: 192 192 129
Width: 1456
GlyphClass: 2
Flags: W
LayerCount: 2
Fore
SplineSet
29 55 m 0,0,1
 31 67 31 67 47 68 c 0,2,3
 139 68 139 68 166 98 c 0,4,5
 180 114 180 114 207 176 c 0,6,7
 232 237 232 237 240 260 c 2,8,-1
 625 1307 l 1,9,-1
 610 1360 l 2,10,11
 608 1364 608 1364 611 1367 c 128,-1,12
 614 1370 614 1370 620.5 1372 c 128,-1,13
 627 1374 627 1374 634 1375 c 128,-1,14
 641 1376 641 1376 650 1376 c 128,-1,15
 659 1376 659 1376 665.5 1376 c 128,-1,16
 672 1376 672 1376 680 1376 c 2,17,-1
 686 1376 l 2,18,19
 778 1376 778 1376 793 1356 c 1,20,21
 899 1075 899 1075 984 851 c 128,-1,22
 1069 627 1069 627 1116 502 c 128,-1,23
 1163 377 1163 377 1176 342 c 0,24,25
 1196 289 1196 289 1233 182 c 0,26,27
 1260 108 1260 108 1287.5 84.5 c 128,-1,28
 1315 61 1315 61 1382 61 c 2,29,-1
 1397 61 l 2,30,31
 1409 61 1409 61 1414 44 c 128,-1,32
 1419 27 1419 27 1414 9.5 c 128,-1,33
 1409 -8 1409 -8 1397 -8 c 0,34,35
 1161 2 1161 2 848 -6 c 0,36,37
 832 -6 832 -6 825 10 c 0,38,39
 823 16 823 16 823 35 c 0,40,41
 823 55 823 55 831.5 61.5 c 128,-1,42
 840 68 840 68 860 68 c 2,43,-1
 954 68 l 2,44,45
 1017 70 1017 70 1034 95.5 c 128,-1,46
 1051 121 1051 121 1028 178 c 0,47,48
 1003 244 1003 244 958 365.5 c 128,-1,49
 913 487 913 487 889 553 c 0,50,51
 885 565 885 565 865.5 573.5 c 128,-1,52
 846 582 846 582 831 580 c 0,53,54
 722 574 722 574 512 580 c 0,55,56
 502 580 502 580 495.5 575.5 c 128,-1,57
 489 571 489 571 485 568 c 128,-1,58
 481 565 481 565 476 557 c 128,-1,59
 471 549 471 549 469 545 c 0,60,61
 416 371 416 371 338 190 c 0,62,63
 322 151 322 151 322 121 c 0,64,65
 322 68 322 68 438 66 c 0,66,67
 452 66 452 66 474 68 c 128,-1,68
 496 70 496 70 514 68 c 0,69,70
 528 66 528 66 528 29 c 1,71,72
 524 -6 524 -6 512 -6 c 0,73,74
 172 0 172 0 70 -6 c 1,75,-1
 47 -6 l 1,76,77
 16 0 16 0 29 55 c 0,0,1
510 1763 m 0,78,79
 500 1773 500 1773 511 1787.5 c 128,-1,80
 522 1802 522 1802 541 1802 c 2,81,-1
 696 1804 l 2,82,83
 727 1804 727 1804 735 1788 c 0,84,85
 789 1649 789 1649 838 1454 c 1,86,87
 838 1436 838 1436 817.5 1431.5 c 128,-1,88
 797 1427 797 1427 784 1440 c 0,89,90
 675 1581 675 1581 510 1763 c 0,78,79
535 727 m 0,91,92
 531 709 531 709 559 696 c 1,93,94
 688 692 688 692 807 696 c 0,95,96
 817 696 817 696 822 705.5 c 128,-1,97
 827 715 827 715 823 727 c 0,98,99
 755 915 755 915 698 1100 c 0,100,101
 694 1110 694 1110 685 1113 c 128,-1,102
 676 1116 676 1116 672 1106 c 0,103,104
 633 979 633 979 535 727 c 0,91,92
EndSplineSet
Validated: 33
EndChar

StartChar: Aacute
Encoding: 193 193 130
Width: 1456
GlyphClass: 2
Flags: W
LayerCount: 2
Fore
SplineSet
29 55 m 0,0,1
 31 67 31 67 47 68 c 0,2,3
 139 68 139 68 166 98 c 0,4,5
 180 114 180 114 207 176 c 0,6,7
 232 237 232 237 240 260 c 2,8,-1
 625 1307 l 1,9,-1
 610 1360 l 2,10,11
 608 1364 608 1364 611 1367 c 128,-1,12
 614 1370 614 1370 620.5 1372 c 128,-1,13
 627 1374 627 1374 634 1375 c 128,-1,14
 641 1376 641 1376 650 1376 c 128,-1,15
 659 1376 659 1376 665.5 1376 c 128,-1,16
 672 1376 672 1376 680 1376 c 2,17,-1
 686 1376 l 2,18,19
 778 1376 778 1376 793 1356 c 1,20,21
 899 1075 899 1075 984 851 c 128,-1,22
 1069 627 1069 627 1116 502 c 128,-1,23
 1163 377 1163 377 1176 342 c 0,24,25
 1196 289 1196 289 1233 182 c 0,26,27
 1260 108 1260 108 1287.5 84.5 c 128,-1,28
 1315 61 1315 61 1382 61 c 2,29,-1
 1397 61 l 2,30,31
 1409 61 1409 61 1414 44 c 128,-1,32
 1419 27 1419 27 1414 9.5 c 128,-1,33
 1409 -8 1409 -8 1397 -8 c 0,34,35
 1161 2 1161 2 848 -6 c 0,36,37
 832 -6 832 -6 825 10 c 0,38,39
 823 16 823 16 823 35 c 0,40,41
 823 55 823 55 831.5 61.5 c 128,-1,42
 840 68 840 68 860 68 c 2,43,-1
 954 68 l 2,44,45
 1017 70 1017 70 1034 95.5 c 128,-1,46
 1051 121 1051 121 1028 178 c 0,47,48
 1003 244 1003 244 958 365.5 c 128,-1,49
 913 487 913 487 889 553 c 0,50,51
 885 565 885 565 865.5 573.5 c 128,-1,52
 846 582 846 582 831 580 c 0,53,54
 722 574 722 574 512 580 c 0,55,56
 502 580 502 580 495.5 575.5 c 128,-1,57
 489 571 489 571 485 568 c 128,-1,58
 481 565 481 565 476 557 c 128,-1,59
 471 549 471 549 469 545 c 0,60,61
 416 371 416 371 338 190 c 0,62,63
 322 151 322 151 322 121 c 0,64,65
 322 68 322 68 438 66 c 0,66,67
 452 66 452 66 474 68 c 128,-1,68
 496 70 496 70 514 68 c 0,69,70
 528 66 528 66 528 29 c 1,71,72
 524 -6 524 -6 512 -6 c 0,73,74
 172 0 172 0 70 -6 c 1,75,-1
 47 -6 l 1,76,77
 16 0 16 0 29 55 c 0,0,1
535 727 m 0,78,79
 531 709 531 709 559 696 c 1,80,81
 688 692 688 692 807 696 c 0,82,83
 817 696 817 696 822 705.5 c 128,-1,84
 827 715 827 715 823 727 c 0,85,86
 755 915 755 915 698 1100 c 0,87,88
 694 1110 694 1110 685 1113 c 128,-1,89
 676 1116 676 1116 672 1106 c 0,90,91
 633 979 633 979 535 727 c 0,78,79
608 1448 m 2,92,-1
 711 1784 l 2,93,94
 717 1811 717 1811 748 1810 c 2,95,-1
 928 1812 l 2,96,97
 936 1812 936 1812 943 1810 c 128,-1,98
 950 1808 950 1808 954 1804 c 128,-1,99
 958 1800 958 1800 956 1792 c 0,100,101
 956 1784 956 1784 954 1782 c 2,102,-1
 662 1430 l 2,103,104
 652 1418 652 1418 627 1421.5 c 128,-1,105
 602 1425 602 1425 608 1448 c 2,92,-1
EndSplineSet
Validated: 33
EndChar

StartChar: Acircumflex
Encoding: 194 194 131
Width: 1456
GlyphClass: 2
Flags: W
LayerCount: 2
Fore
SplineSet
29 55 m 0,0,1
 31 67 31 67 49 68 c 0,2,3
 139 68 139 68 166 98 c 0,4,5
 184 118 184 118 209 176 c 0,6,7
 211 182 211 182 240 260 c 2,8,-1
 625 1307 l 1,9,-1
 610 1360 l 2,10,11
 608 1364 608 1364 611 1367 c 128,-1,12
 614 1370 614 1370 620.5 1372 c 128,-1,13
 627 1374 627 1374 634 1375 c 128,-1,14
 641 1376 641 1376 650 1376 c 128,-1,15
 659 1376 659 1376 665.5 1376 c 128,-1,16
 672 1376 672 1376 680 1376 c 2,17,-1
 688 1376 l 2,18,19
 780 1376 780 1376 793 1356 c 1,20,21
 899 1075 899 1075 984 851 c 128,-1,22
 1069 627 1069 627 1116 502 c 128,-1,23
 1163 377 1163 377 1176 342 c 0,24,25
 1217 236 1217 236 1235 182 c 0,26,27
 1262 108 1262 108 1288.5 84.5 c 128,-1,28
 1315 61 1315 61 1382 61 c 2,29,-1
 1397 61 l 2,30,31
 1409 61 1409 61 1414 44 c 128,-1,32
 1419 27 1419 27 1414 9.5 c 128,-1,33
 1409 -8 1409 -8 1397 -8 c 0,34,35
 1161 2 1161 2 850 -6 c 0,36,37
 832 -6 832 -6 825 10 c 0,38,39
 823 16 823 16 823 35 c 0,40,41
 823 55 823 55 831.5 61.5 c 128,-1,42
 840 68 840 68 860 68 c 2,43,-1
 956 68 l 2,44,45
 1017 70 1017 70 1034 95.5 c 128,-1,46
 1051 121 1051 121 1028 178 c 0,47,48
 1003 244 1003 244 958 365.5 c 128,-1,49
 913 487 913 487 889 553 c 0,50,51
 885 565 885 565 865.5 573.5 c 128,-1,52
 846 582 846 582 831 580 c 0,53,54
 725 574 725 574 512 580 c 0,55,56
 504 580 504 580 496.5 575.5 c 128,-1,57
 489 571 489 571 486 568 c 128,-1,58
 483 565 483 565 477 556 c 128,-1,59
 471 547 471 547 469 545 c 0,60,61
 424 400 424 400 340 190 c 0,62,63
 322 145 322 145 322 121 c 0,64,65
 322 94 322 94 348.5 81 c 128,-1,66
 375 68 375 68 440 66 c 0,67,68
 448 66 448 66 475 68 c 128,-1,69
 502 70 502 70 514 68 c 0,70,71
 528 66 528 66 528 29 c 1,72,73
 524 -6 524 -6 514 -6 c 0,74,75
 172 0 172 0 70 -6 c 1,76,-1
 47 -6 l 1,77,78
 16 0 16 0 29 55 c 0,0,1
434 1442 m 2,79,-1
 616 1761 l 2,80,81
 624 1773 624 1773 643 1782 c 0,82,83
 655 1784 655 1784 715.5 1785 c 128,-1,84
 776 1786 776 1786 797 1784 c 0,85,86
 824 1782 824 1782 831 1763 c 2,87,-1
 1012 1452 l 2,88,89
 1026 1427 1026 1427 1010 1425 c 0,90,91
 981 1417 981 1417 969 1430 c 2,92,-1
 719 1642 l 1,93,-1
 483 1430 l 2,94,95
 465 1414 465 1414 440 1427 c 0,96,97
 430 1433 430 1433 434 1442 c 2,79,-1
535 727 m 0,98,99
 531 709 531 709 559 696 c 1,100,101
 688 692 688 692 807 696 c 0,102,103
 817 696 817 696 822 705.5 c 128,-1,104
 827 715 827 715 823 727 c 0,105,106
 755 915 755 915 698 1100 c 0,107,108
 696 1110 696 1110 686 1113 c 128,-1,109
 676 1116 676 1116 672 1106 c 0,110,111
 633 979 633 979 535 727 c 0,98,99
EndSplineSet
Validated: 33
EndChar

